<svg xmlns="http://www.w3.org/2000/svg">
<defs>
<font id="GTWalsheim-LightOblique" horiz-adv-x="640" >
  <font-face 
    font-family="GT Walsheim Light"
    font-weight="300"
    font-style="oblique"
    font-stretch="normal"
    units-per-em="1000"
    panose-1="0 0 4 0 0 0 0 0 0 0"
    ascent="700"
    descent="-300"
    x-height="456"
    cap-height="700"
    bbox="-441 -231 1141 900"
    underline-thickness="50"
    underline-position="-150"
    slope="-6"
    unicode-range="U+000D-FB02"
  />
<missing-glyph horiz-adv-x="800" 
d="M223 27.5q-74 44.5 -113 119t-39 162.5q0 13 2 41q10 96 63.5 180.5t141.5 135.5t197 51q101 0 175.5 -44.5t113.5 -119t39 -162.5q0 -13 -2 -41q-10 -96 -64 -180.5t-142 -135.5t-197 -51q-101 0 -175 44.5zM575.5 52q82.5 46 136.5 125t64 173q2 24 2 35q0 83 -39 154
t-108.5 113.5t-157.5 42.5q-95 0 -178 -48t-136 -127.5t-62 -169.5q-2 -26 -2 -37q0 -86 39.5 -156t109.5 -110.5t157 -40.5q92 0 174.5 46zM264.5 468q-10.5 11 -10.5 27q0 20 13.5 34t32.5 14q17 0 28 -11t11 -28q0 -19 -14.5 -33t-33.5 -14q-16 0 -26.5 11zM561.5 468
q-10.5 11 -10.5 27q0 20 13.5 34t32.5 14q17 0 28 -11t11 -28q0 -19 -14.5 -33t-33.5 -14q-16 0 -26.5 11zM453 527l-135 -243h178l-3 -25h-247zM162.5 236q7.5 15 22.5 23l25 13q11 6 14.5 17.5t6.5 39.5h17q-4 -35 -10.5 -48.5t-17.5 -20.5l-23 -13q-24 -13 -27 -40h-16
q1 14 8.5 29zM617 161q5 17 5 23q0 11 -14 18l-39 20q-33 17 -33 50q0 20 13 48l14 -5q-11 -24 -11 -41q0 -27 29 -41l38 -19q20 -10 20 -29q0 -10 -6 -28zM278.5 104.5q-44.5 38.5 -86.5 123.5q6 -4 42.5 -27.5t70 -33.5t68.5 -10q57 0 118.5 8t104.5 29l4 2
q-18 -32 -57 -62.5t-85.5 -49t-84.5 -18.5q-50 0 -94.5 38.5zM472.5 117q52.5 25 76.5 43l-36 -8q-47 -10 -76 -15t-65 -5q-30 0 -69 11.5t-60 30.5q22 -42 63 -62t70 -20q44 0 96.5 25z" />
    <glyph glyph-name="fi" unicode="fi" horiz-adv-x="566" 
d="M235 672q45 34 98 34q42 0 66 -12l-6 -56q-28 10 -51 10q-38 0 -64 -19.5t-32 -78.5l-10 -94h138l-6 -56h-138l-42 -400h-65l42 400h-100l6 56h100l9 91q10 91 55 125zM563 651.5q15 -15.5 15 -38.5q0 -28 -19.5 -47t-47.5 -19q-24 0 -38.5 14.5t-14.5 37.5q0 28 19 48
t47 20q24 0 39 -15.5zM469 456h65l-48 -456h-65z" />
    <glyph glyph-name="fl" unicode="fl" horiz-adv-x="566" 
d="M235 672q45 34 98 34q42 0 66 -12l-6 -56q-28 10 -51 10q-38 0 -64 -19.5t-32 -78.5l-10 -94h138l-6 -56h-138l-42 -400h-65l42 400h-100l6 56h100l9 91q10 91 55 125zM560 700l-74 -700h-65l74 700h65z" />
    <glyph glyph-name="f_f" unicode="ff" horiz-adv-x="707" 
d="M235 672q45 34 98 34q42 0 66 -12l-6 -56q-28 10 -51 10q-38 0 -64 -19.5t-32 -78.5l-10 -94h138l-6 -56h-138l-42 -400h-65l42 400h-100l6 56h100l9 91q10 91 55 125zM644 628.5q-26 -19.5 -32 -78.5l-10 -94h138l-6 -56h-138l-42 -400h-65l42 400h-100l6 56h100l9 91
q10 91 55 125t98 34q42 0 66 -12l-6 -56q-28 10 -51 10q-38 0 -64 -19.5z" />
    <glyph glyph-name="f_f_i" unicode="ffi" horiz-adv-x="932" 
d="M235 672q45 34 98 34q42 0 66 -12l-6 -56q-28 10 -51 10q-38 0 -64 -19.5t-32 -78.5l-10 -94h138l-6 -56h-138l-42 -400h-65l42 400h-100l6 56h100l9 91q10 91 55 125zM601 672q45 34 98 34q42 0 66 -12l-6 -56q-28 10 -51 10q-38 0 -64 -19.5t-32 -78.5l-10 -94h138
l-6 -56h-138l-42 -400h-65l42 400h-100l6 56h100l9 91q10 91 55 125zM929 651.5q15 -15.5 15 -38.5q0 -28 -19.5 -47t-47.5 -19q-24 0 -38.5 14.5t-14.5 37.5q0 28 19 48t47 20q24 0 39 -15.5zM835 456h65l-48 -456h-65z" />
    <glyph glyph-name="f_f_l" unicode="ffl" horiz-adv-x="932" 
d="M235 672q45 34 98 34q42 0 66 -12l-6 -56q-28 10 -51 10q-38 0 -64 -19.5t-32 -78.5l-10 -94h138l-6 -56h-138l-42 -400h-65l42 400h-100l6 56h100l9 91q10 91 55 125zM601 672q45 34 98 34q42 0 66 -12l-6 -56q-28 10 -51 10q-38 0 -64 -19.5t-32 -78.5l-10 -94h138
l-6 -56h-138l-42 -400h-65l42 400h-100l6 56h100l9 91q10 91 55 125zM926 700l-74 -700h-65l74 700h65z" />
    <glyph glyph-name=".notdef" horiz-adv-x="800" 
d="M223 27.5q-74 44.5 -113 119t-39 162.5q0 13 2 41q10 96 63.5 180.5t141.5 135.5t197 51q101 0 175.5 -44.5t113.5 -119t39 -162.5q0 -13 -2 -41q-10 -96 -64 -180.5t-142 -135.5t-197 -51q-101 0 -175 44.5zM575.5 52q82.5 46 136.5 125t64 173q2 24 2 35q0 83 -39 154
t-108.5 113.5t-157.5 42.5q-95 0 -178 -48t-136 -127.5t-62 -169.5q-2 -26 -2 -37q0 -86 39.5 -156t109.5 -110.5t157 -40.5q92 0 174.5 46zM264.5 468q-10.5 11 -10.5 27q0 20 13.5 34t32.5 14q17 0 28 -11t11 -28q0 -19 -14.5 -33t-33.5 -14q-16 0 -26.5 11zM561.5 468
q-10.5 11 -10.5 27q0 20 13.5 34t32.5 14q17 0 28 -11t11 -28q0 -19 -14.5 -33t-33.5 -14q-16 0 -26.5 11zM453 527l-135 -243h178l-3 -25h-247zM162.5 236q7.5 15 22.5 23l25 13q11 6 14.5 17.5t6.5 39.5h17q-4 -35 -10.5 -48.5t-17.5 -20.5l-23 -13q-24 -13 -27 -40h-16
q1 14 8.5 29zM617 161q5 17 5 23q0 11 -14 18l-39 20q-33 17 -33 50q0 20 13 48l14 -5q-11 -24 -11 -41q0 -27 29 -41l38 -19q20 -10 20 -29q0 -10 -6 -28zM278.5 104.5q-44.5 38.5 -86.5 123.5q6 -4 42.5 -27.5t70 -33.5t68.5 -10q57 0 118.5 8t104.5 29l4 2
q-18 -32 -57 -62.5t-85.5 -49t-84.5 -18.5q-50 0 -94.5 38.5zM472.5 117q52.5 25 76.5 43l-36 -8q-47 -10 -76 -15t-65 -5q-30 0 -69 11.5t-60 30.5q22 -42 63 -62t70 -20q44 0 96.5 25z" />
    <glyph glyph-name=".null" horiz-adv-x="0" 
 />
    <glyph glyph-name="nonmarkingreturn" unicode="&#xd;" horiz-adv-x="250" 
 />
    <glyph glyph-name="space" unicode=" " horiz-adv-x="255" 
 />
    <glyph glyph-name="exclam" unicode="!" horiz-adv-x="254" 
d="M169 700h64l-53 -502h-64zM87 9.5q-15 15.5 -15 38.5q0 29 19.5 49t47.5 20q24 0 40 -16t16 -39q0 -27 -21 -47.5t-48 -20.5q-24 0 -39 15.5z" />
    <glyph glyph-name="quotedbl" unicode="&#x22;" horiz-adv-x="389" 
d="M241 626.5q-1 -4.5 -2 -11.5l-56 -178h-36l-20 178l-1 11q0 27 19 46.5t46 19.5q24 0 39 -16.5t13 -40.5q-1 -4 -2 -8.5zM394 626.5q-1 -4.5 -2 -11.5l-56 -178h-36l-20 178l-1 11q0 27 19 46.5t46 19.5q24 0 39 -16.5t13 -40.5q-1 -4 -2 -8.5z" />
    <glyph glyph-name="numbersign" unicode="#" horiz-adv-x="542" 
d="M149 214h-102l6 52h109l41 168h-102l5 52h110l52 214h55l-53 -214h151l52 214h55l-53 -214h93l-5 -52h-100l-41 -168h93l-6 -52h-101l-52 -214h-54l52 214h-151l-52 -214h-54zM367 266l41 168h-150l-41 -168h150z" />
    <glyph glyph-name="dollar" unicode="$" horiz-adv-x="556" 
d="M471 51q-60 -58 -159 -65l-10 -86h-51l10 86q-97 6 -149 58.5t-52 139.5q0 10 2 30h68q-1 -7 -1 -21q0 -68 42.5 -108t120.5 -40q79 0 125 38t46 106q0 43 -25.5 69t-75.5 40l-116 28q-63 16 -97.5 55t-34.5 102q0 52 26.5 98.5t77 76.5t117.5 33l9 89h51l-10 -91
q78 -9 121 -56.5t43 -122.5q0 -16 -1 -24h-68q1 6 1 19q0 60 -36.5 93.5t-103.5 33.5q-75 0 -116.5 -40t-41.5 -100q0 -44 27.5 -71t82.5 -40l120 -31q56 -15 87 -52t31 -96q0 -93 -60 -151z" />
    <glyph glyph-name="percent" unicode="%" horiz-adv-x="764" 
d="M122 14l544 682l42 -25l-543 -682zM116.5 392q-41.5 43 -41.5 107q0 49 24 93t67.5 70.5t99.5 26.5q74 0 116 -43.5t42 -107.5q0 -49 -24 -92.5t-68 -70t-101 -26.5q-73 0 -114.5 43zM303.5 419.5q29.5 18.5 46 48.5t16.5 65q0 46 -27.5 75.5t-77.5 29.5
q-58 0 -93.5 -39.5t-35.5 -94.5q0 -45 27.5 -74t76.5 -29q38 0 67.5 18.5zM454.5 38.5q-41.5 43.5 -41.5 107.5q0 49 24 92.5t68 70t100 26.5q74 0 115.5 -43t41.5 -107q0 -49 -24 -93t-68 -70.5t-101 -26.5q-73 0 -114.5 43.5zM643 65.5q29 18.5 45 49t16 65.5
q0 45 -27.5 74.5t-76.5 29.5q-38 0 -67.5 -18.5t-46 -48.5t-16.5 -65q0 -46 27.5 -75.5t77.5 -29.5q39 0 68 18.5z" />
    <glyph glyph-name="ampersand" unicode="&#x26;" horiz-adv-x="592" 
d="M609 231h-66q-14 -113 -83 -178.5t-178 -65.5q-64 0 -112.5 22.5t-74.5 63.5t-26 94q0 50 22 92t59.5 69.5t83.5 36.5q-55 13 -85.5 50t-30.5 91q0 12 1 19q9 85 75 136.5t167 51.5q90 0 145 -45t55 -126q0 -17 -1 -26h-70q1 6 1 19q0 54 -35.5 86.5t-100.5 32.5
q-74 0 -121 -40t-47 -107q0 -52 34 -82.5t100 -30.5h27l-6 -62h-26q-79 0 -124.5 -39t-52.5 -103q-1 -5 -1 -15q0 -56 40 -92t110 -36q79 0 127 49.5t59 134.5h-87l7 61h222z" />
    <glyph glyph-name="quotesingle" unicode="'" horiz-adv-x="236" 
d="M241 626.5q-1 -4.5 -2 -11.5l-56 -178h-36l-20 178l-1 11q0 27 19 46.5t46 19.5q24 0 39 -16.5t13 -40.5q-1 -4 -2 -8.5z" />
    <glyph glyph-name="parenleft" unicode="(" horiz-adv-x="311" 
d="M135.5 -18q-45.5 95 -45.5 218q0 39 4 72q15 149 84.5 261.5t179.5 201.5l36 -38q-105 -91 -163.5 -193t-71.5 -232q-4 -46 -4 -68q0 -106 38 -193t112 -165l-44 -38q-80 79 -125.5 174z" />
    <glyph glyph-name="parenright" unicode=")" horiz-adv-x="311" 
d="M-27 -154q105 90 164 193t73 233q3 33 3 65q0 107 -38 194.5t-113 165.5l45 38q81 -78 126.5 -174t45.5 -220q0 -21 -4 -69q-16 -150 -85.5 -262.5t-179.5 -201.5z" />
    <glyph glyph-name="asterisk" unicode="*" horiz-adv-x="429" 
d="M121 389l117 131l-149 44l21 48l144 -56l10 161h52l-24 -161l155 56l11 -48l-156 -44l88 -131l-46 -31l-77 139l-106 -139z" />
    <glyph glyph-name="plus" unicode="+" horiz-adv-x="504" 
d="M251 285h-166l6 59h166l18 168h62l-18 -168h166l-6 -59h-166l-18 -167h-62z" />
    <glyph glyph-name="comma" unicode="," horiz-adv-x="292" 
d="M71 -116l3 35q20 -2 30 -2q22 0 38.5 12t23.5 32q11 22 9 49q-12 -15 -38 -15q-23 0 -37 14t-14 37q0 30 19 49.5t49 19.5t51.5 -24.5t21.5 -67.5q0 -62 -35.5 -101.5t-91.5 -39.5q-20 0 -29 2z" />
    <glyph glyph-name="hyphen" unicode="-" horiz-adv-x="412" 
d="M85 289h302l-6 -58h-302z" />
    <glyph glyph-name="period" unicode="." horiz-adv-x="283" 
d="M101 9.5q-15 15.5 -15 39.5q0 28 20 48t47 20q25 0 40.5 -15.5t15.5 -39.5q0 -28 -20.5 -48t-48.5 -20q-24 0 -39 15.5z" />
    <glyph glyph-name="slash" unicode="/" horiz-adv-x="426" 
d="M11 -38l427 796l50 -23l-426 -796z" />
    <glyph glyph-name="zero" unicode="0" horiz-adv-x="607" 
d="M138 58.5q-56 69.5 -56 203.5q0 42 4 79q18 172 92.5 261.5t198.5 89.5q109 0 164.5 -69t55.5 -203q0 -42 -4 -79q-18 -172 -92 -262t-198 -90q-109 0 -165 69.5zM458.5 123.5q55.5 73.5 70.5 217.5q4 35 4 73q0 218 -163 218q-189 0 -219 -291q-4 -36 -4 -75
q0 -216 162 -216q94 0 149.5 73.5z" />
    <glyph glyph-name="one" unicode="1" horiz-adv-x="361" 
d="M230 506h-139l6 58q59 0 90.5 11t46 35.5t19.5 69.5h62l-71 -680h-67z" />
    <glyph glyph-name="two" unicode="2" horiz-adv-x="559" 
d="M112.5 181q45.5 67 144.5 113l115 54q107 52 117 155q1 5 1 15q0 51 -34.5 82t-90.5 31q-74 0 -121.5 -46t-55.5 -125h-69q7 69 41 121.5t89 81t123 28.5q88 0 138.5 -43.5t50.5 -118.5t-39 -132t-115 -94l-114 -55q-74 -35 -108 -76.5t-45 -109.5h377l-7 -62h-455
q12 114 57.5 181z" />
    <glyph glyph-name="three" unicode="3" horiz-adv-x="554" 
d="M119 38.5q-57 49.5 -57 135.5q0 8 2 28h68q-1 -7 -1 -21q0 -62 40.5 -97.5t110.5 -35.5q77 0 126 42.5t49 111.5q0 57 -38 89t-108 32h-53l6 59h53q68 0 110 33.5t48 93.5q1 5 1 15q0 50 -35.5 79.5t-96.5 29.5q-70 0 -115.5 -37t-52.5 -100h-67q10 89 75.5 142t165.5 53
q90 0 143 -44t53 -117q0 -69 -40 -115.5t-112 -60.5q57 -4 93.5 -46t36.5 -102q0 -63 -32 -112.5t-88.5 -77t-127.5 -27.5q-100 0 -157 49.5z" />
    <glyph glyph-name="four" unicode="4" horiz-adv-x="568" 
d="M554 230h-115l-24 -231h-67l24 231h-278l47 450h67l-40 -388h211l22 211h67l-22 -211h115z" />
    <glyph glyph-name="five" unicode="5" horiz-adv-x="569" 
d="M178.5 12q-47.5 23 -72 64.5t-22.5 94.5h68q-2 -55 37 -87.5t108 -32.5q55 0 98 25.5t66.5 72.5t23.5 110q0 67 -37 105t-102 38q-64 0 -103.5 -22.5t-66.5 -71.5h-64l39 372h402l-6 -61h-340l-25 -242q28 39 73.5 60.5t104.5 21.5q89 0 139.5 -51.5t50.5 -140.5
q0 -11 -2 -35q-7 -71 -42 -126.5t-90.5 -86t-125.5 -30.5q-64 0 -111.5 23z" />
    <glyph glyph-name="six" unicode="6" horiz-adv-x="564" 
d="M443 440.5q48 -27.5 73 -75t25 -107.5q0 -10 -2 -30q-7 -66 -41.5 -121t-90.5 -87t-127 -32q-65 0 -113 27.5t-73.5 75.5t-25.5 107q0 54 19 102.5t53 85.5l229 294h80l-172 -217q28 5 53 5q65 0 113 -27.5zM385 75q43 28 67 75t24 103q0 69 -40.5 112.5t-111.5 43.5
q-56 0 -99 -27.5t-67 -74.5t-24 -103q0 -69 40.5 -113t111.5 -44q56 0 99 28z" />
    <glyph glyph-name="seven" unicode="7" horiz-adv-x="499" 
d="M462 618h-352l6 62h454l-432 -680h-75z" />
    <glyph glyph-name="eight" unicode="8" horiz-adv-x="567" 
d="M126 36q-58 47 -58 125q0 73 41.5 124.5t110.5 65.5q-50 13 -78.5 51t-28.5 90q0 58 31.5 103.5t87 70.5t125.5 25q93 0 149 -44t56 -117q0 -64 -39.5 -113.5t-102.5 -65.5q55 -12 86 -50.5t31 -95.5q0 -64 -32 -113t-90 -76t-132 -27q-99 0 -157 47zM445.5 418.5
q46.5 38.5 46.5 102.5q0 52 -38 83t-103 31q-75 0 -122.5 -39.5t-47.5 -103.5q0 -51 39 -81.5t104 -30.5q75 0 121.5 38.5zM419 90.5q51 42.5 51 111.5q0 56 -41 89.5t-111 33.5q-79 0 -129.5 -42.5t-50.5 -111.5q0 -56 41 -89.5t110 -33.5q79 0 130 42.5z" />
    <glyph glyph-name="nine" unicode="9" horiz-adv-x="543" 
d="M527.5 379q-18.5 -48 -52.5 -85l-230 -294h-80l173 217q-30 -5 -54 -5q-65 0 -112.5 27.5t-72.5 75t-25 107.5q0 10 2 30q7 66 41 121t90.5 87t127.5 32q66 0 113.5 -28t72.5 -76t25 -108q0 -53 -18.5 -101zM179 314.5q40 -43.5 111 -43.5q56 0 99.5 27.5t67.5 74
t24 102.5q0 69 -40.5 113.5t-111.5 44.5q-56 0 -99 -28t-67 -75t-24 -103q0 -69 40 -112.5z" />
    <glyph glyph-name="colon" unicode=":" horiz-adv-x="283" 
d="M137.5 358q-15.5 16 -15.5 40q0 27 20.5 47t47.5 20q24 0 39.5 -15.5t15.5 -38.5q0 -28 -20 -48.5t-48 -20.5q-24 0 -39.5 16zM101 9.5q-15 15.5 -15 39.5q0 28 20 48t47 20q25 0 40.5 -15.5t15.5 -39.5q0 -28 -20.5 -48t-48.5 -20q-24 0 -39 15.5z" />
    <glyph glyph-name="semicolon" unicode=";" horiz-adv-x="292" 
d="M137.5 358q-15.5 16 -15.5 40q0 27 20.5 47t47.5 20q24 0 39.5 -15.5t15.5 -38.5q0 -28 -20 -48.5t-48 -20.5q-24 0 -39.5 16zM71 -116l3 35q20 -2 30 -2q22 0 38.5 12t23.5 32q11 22 9 49q-12 -15 -38 -15q-23 0 -37 14t-14 37q0 30 19 49.5t49 19.5t51.5 -24.5
t21.5 -67.5q0 -62 -35.5 -101.5t-91.5 -39.5q-20 0 -29 2z" />
    <glyph glyph-name="less" unicode="&#x3c;" horiz-adv-x="501" 
d="M86 295l5 49l409 170l-6 -62l-315 -133l287 -132l-7 -63z" />
    <glyph glyph-name="equal" unicode="=" horiz-adv-x="534" 
d="M100 432h424l-6 -59h-424zM82 254h424l-6 -58h-424z" />
    <glyph glyph-name="greater" unicode="&#x3e;" horiz-adv-x="501" 
d="M75 187l315 132l-287 133l6 62l373 -170l-5 -49l-409 -171z" />
    <glyph glyph-name="question" unicode="?" horiz-adv-x="475" 
d="M205 218q5 51 23 81.5t59 57.5l58 38q78 52 87 134l1 15q0 51 -33.5 82t-95.5 31q-71 0 -117.5 -43.5t-54.5 -119.5h-67q10 103 76.5 163t170.5 60q92 0 141 -45t49 -118q0 -70 -32 -116.5t-86 -82.5l-52 -35q-32 -21 -45.5 -42.5t-17.5 -60.5l-2 -19h-64zM174 9.5
q-15 15.5 -15 38.5q0 29 19.5 49t47.5 20q24 0 40 -16t16 -39q0 -27 -21 -47.5t-48 -20.5q-24 0 -39 15.5z" />
    <glyph glyph-name="at" unicode="@" horiz-adv-x="894" 
d="M232 -151.5q-85 44.5 -129 124.5t-44 185q0 27 3 55q13 123 74 214.5t160.5 141.5t225.5 50q166 0 262 -87.5t96 -259.5q0 -21 -4 -67q-12 -112 -56.5 -178t-120.5 -66q-61 0 -86.5 34t-24.5 106q-24 -42 -67.5 -68.5t-100.5 -26.5q-55 0 -96 24.5t-62.5 66t-21.5 91.5
q0 60 29.5 113t81 84.5t113.5 31.5q56 0 94 -26t53 -69l9 86h55l-30 -282q-2 -24 -2 -33q0 -49 17 -67.5t48 -18.5q43 0 73.5 51t40.5 145q4 46 4 65q0 153 -82 228t-228 75q-110 0 -197 -44t-140 -125t-64 -190q-3 -25 -3 -49q0 -93 38.5 -163t113 -108.5t179.5 -38.5
q123 0 223 61l17 -44q-112 -66 -248 -66q-118 0 -203 44.5zM517.5 80q38.5 24 60.5 64.5t22 85.5q0 59 -37 98t-99 39q-48 0 -86.5 -24t-60 -64.5t-21.5 -86.5q0 -58 36.5 -97t98.5 -39q48 0 86.5 24z" />
    <glyph glyph-name="A" unicode="A" horiz-adv-x="577" 
d="M456 126h-310l-53 -126h-73l312 700h61l164 -700h-73zM444 187l-92 422l-179 -422h271z" />
    <glyph glyph-name="B" unicode="B" horiz-adv-x="580" 
d="M516.5 308.5q34.5 -38.5 34.5 -99.5q0 -14 -1 -21q-10 -87 -72.5 -137.5t-159.5 -50.5h-233l74 700h227q90 0 141.5 -41.5t51.5 -116.5q0 -78 -41.5 -126t-109.5 -61q54 -8 88.5 -46.5zM220 640l-27 -256h169q64 0 106 39.5t42 104.5q0 53 -35.5 82.5t-98.5 29.5h-156z
M439 101q44 40 44 110q0 50 -33 81t-85 31h-178l-28 -262h164q72 0 116 40z" />
    <glyph glyph-name="C" unicode="C" horiz-adv-x="772" 
d="M224.5 26q-73.5 41 -112 113.5t-38.5 163.5q0 23 3 47q11 102 63.5 185t139 131.5t196.5 48.5q135 0 214.5 -65t91.5 -170h-74q-15 80 -75 127t-163 47q-89 0 -159 -40t-112 -109t-51 -155q-2 -28 -2 -41q0 -76 30.5 -135.5t89 -93t140.5 -33.5q103 0 173 46.5t102 127.5
h74q-35 -106 -128 -171t-228 -65q-101 0 -174.5 41z" />
    <glyph glyph-name="D" unicode="D" horiz-adv-x="688" 
d="M159 700h210q104 0 176.5 -42t109.5 -112.5t37 -155.5q0 -14 -2 -40q-10 -92 -60.5 -172t-137 -129t-197.5 -49h-210zM297 62q93 0 163.5 40.5t111.5 106t49 141.5q2 22 2 33q0 69 -30 127.5t-90 93.5t-146 35h-137l-60 -577h137z" />
    <glyph glyph-name="E" unicode="E" horiz-adv-x="547" 
d="M159 700h392l-7 -61h-324l-27 -260h324l-7 -62h-324l-26 -255h324l-7 -62h-392z" />
    <glyph glyph-name="F" unicode="F" horiz-adv-x="534" 
d="M159 700h392l-7 -61h-324l-30 -283h324l-6 -62h-324l-31 -294h-68z" />
    <glyph glyph-name="G" unicode="G" horiz-adv-x="824" 
d="M830 267h-77q-34 -131 -126 -206.5t-231 -75.5q-101 0 -174 41t-110.5 112t-37.5 162q0 24 3 48q11 102 62 185.5t137 132.5t197 49q77 0 138 -26.5t97.5 -73t41.5 -106.5h-73q-12 66 -68 105.5t-142 39.5q-91 0 -160.5 -40t-109.5 -109.5t-49 -156.5q-2 -15 -2 -43
q0 -74 30 -132.5t88 -92t139 -33.5q110 0 180 57.5t99 162.5h-204l7 62h352z" />
    <glyph glyph-name="H" unicode="H" horiz-adv-x="667" 
d="M159 700h68l-34 -321h361l34 321h68l-74 -700h-68l33 317h-361l-33 -317h-68z" />
    <glyph glyph-name="I" unicode="I" horiz-adv-x="238" 
d="M159 700h68l-74 -700h-68z" />
    <glyph glyph-name="J" unicode="J" horiz-adv-x="537" 
d="M102 37.5q-56 52.5 -56 145.5q0 10 2 34h68q-2 -18 -2 -27q0 -68 39.5 -105.5t103.5 -37.5q70 0 116 46.5t54 127.5l51 479h68l-51 -479q-11 -110 -77.5 -173t-167.5 -63q-92 0 -148 52.5z" />
    <glyph glyph-name="K" unicode="K" horiz-adv-x="585" 
d="M256 353l311 -353h-89l-290 335l-35 -335h-68l74 700h68l-36 -335l362 335h88z" />
    <glyph glyph-name="L" unicode="L" horiz-adv-x="510" 
d="M159 700h68l-67 -636h315l-7 -64h-383z" />
    <glyph glyph-name="M" unicode="M" horiz-adv-x="814" 
d="M159 700h66l192 -606l321 606h65l-74 -700h-65l59 558l-289 -558h-54l-171 561l-59 -561h-65z" />
    <glyph glyph-name="N" unicode="N" horiz-adv-x="661" 
d="M159 700h73l291 -588l62 588h65l-74 -700h-73l-291 589l-62 -589h-65z" />
    <glyph glyph-name="O" unicode="O" horiz-adv-x="800" 
d="M224 28q-73 43 -111 116t-38 162q0 29 2 44q10 98 62.5 181.5t139.5 133.5t196 50q101 0 174 -43t111.5 -117t38.5 -163q0 -14 -2 -42q-11 -98 -63.5 -181.5t-139.5 -133.5t-196 -50q-101 0 -174 43zM563.5 88.5q70.5 41.5 112.5 110.5t51 151q2 26 2 38
q0 74 -30.5 134.5t-89 96t-140.5 35.5q-89 0 -159 -41.5t-112 -111t-50 -151.5q-2 -26 -2 -39q0 -73 30.5 -133t89 -95.5t139.5 -35.5q88 0 158.5 41.5z" />
    <glyph glyph-name="P" unicode="P" horiz-adv-x="577" 
d="M511 673.5q47 -26.5 73 -74t26 -108.5q0 -76 -34.5 -137t-93.5 -96t-130 -35h-176l-23 -223h-68l74 700h244q61 0 108 -26.5zM449 311q43 26 68 71.5t25 100.5q0 69 -41.5 112.5t-107.5 43.5h-173l-37 -354h173q50 0 93 26z" />
    <glyph glyph-name="Q" unicode="Q" horiz-adv-x="800" 
d="M746.5 189q-41.5 -75 -111 -127t-157.5 -69l73 -108l-63 -30l-86 130h-4q-101 0 -174 43t-111 116t-38 162q0 29 2 44q10 98 62.5 181.5t139.5 133.5t196 50q101 0 174 -43t111.5 -117t38.5 -163q0 -14 -2 -42q-9 -86 -50.5 -161zM563.5 88.5q70.5 41.5 112.5 110.5
t51 151q2 26 2 38q0 74 -30.5 134.5t-89 96t-140.5 35.5q-89 0 -159 -41.5t-112 -111t-50 -151.5q-2 -26 -2 -39q0 -73 30.5 -133t89 -95.5t139.5 -35.5q88 0 158.5 41.5z" />
    <glyph glyph-name="R" unicode="R" horiz-adv-x="605" 
d="M559 328q-51 -70 -131 -94l123 -234h-78l-117 223h-4h-176l-23 -223h-68l74 700h244q61 0 108 -26.5t73 -74t26 -108.5q0 -93 -51 -163zM183 285h173q50 0 93 26t68 71.5t25 100.5q0 69 -41.5 112.5t-107.5 43.5h-173z" />
    <glyph glyph-name="S" unicode="S" horiz-adv-x="561" 
d="M121 38q-60 53 -60 147q0 10 2 32h68q-1 -8 -1 -23q0 -69 43.5 -109t121.5 -40q81 0 127.5 40t46.5 110q0 44 -27 72.5t-81 44.5l-114 36q-131 36 -131 156q0 17 1 26q5 54 37 96t84 65.5t116 23.5q95 0 149 -48t54 -133q0 -9 -2 -29h-68q1 8 1 23q0 62 -37 95t-105 33
q-73 0 -117.5 -38t-44.5 -100q0 -45 29 -74t89 -46l110 -34q124 -37 124 -158q0 -66 -31 -116t-87 -77.5t-130 -27.5q-107 0 -167 53z" />
    <glyph glyph-name="T" unicode="T" horiz-adv-x="511" 
d="M288 636h-213l7 64h495l-7 -64h-214l-67 -636h-68z" />
    <glyph glyph-name="U" unicode="U" horiz-adv-x="630" 
d="M147 38.5q-60 53.5 -60 152.5q0 11 2 37l50 472h68l-50 -468q-1 -10 -1 -28q0 -76 43 -116.5t121 -40.5q85 0 139 48t63 137l50 468h67l-50 -472q-13 -116 -86.5 -179.5t-189.5 -63.5q-106 0 -166 53.5z" />
    <glyph glyph-name="V" unicode="V" horiz-adv-x="556" 
d="M77 700h73l139 -596l266 596h73l-317 -700h-65z" />
    <glyph glyph-name="W" unicode="W" horiz-adv-x="943" 
d="M79 700h71l131 -591l238 591h53l113 -591l256 591h71l-311 -700h-52l-116 585l-239 -585h-52z" />
    <glyph glyph-name="X" unicode="X" horiz-adv-x="592" 
d="M295 350l-196 350h77l163 -294l226 294h76l-270 -350l196 -350h-76l-164 294l-225 -294h-77z" />
    <glyph glyph-name="Y" unicode="Y" horiz-adv-x="542" 
d="M626 700l-431 -700h-74l170 278l-222 422h79l185 -353l219 353h74z" />
    <glyph glyph-name="Z" unicode="Z" horiz-adv-x="565" 
d="M479 639h-355l7 61h468l-451 -638h388l-7 -62h-504z" />
    <glyph glyph-name="bracketleft" unicode="[" horiz-adv-x="285" 
d="M162 733h192l-6 -54h-132l-86 -819h132l-5 -53h-192z" />
    <glyph glyph-name="backslash" unicode="\" horiz-adv-x="426" 
d="M92 735l56 23l259 -796l-55 -23z" />
    <glyph glyph-name="bracketright" unicode="]" horiz-adv-x="285" 
d="M-12 -193l5 53h132l86 819h-132l6 54h192l-97 -926h-192z" />
    <glyph glyph-name="asciicircum" unicode="^" horiz-adv-x="538" 
d="M318 705h48l154 -402h-73l-113 322l-181 -322h-71z" />
    <glyph glyph-name="underscore" unicode="_" horiz-adv-x="510" 
d="M-18 -168h510l-5 -47h-510z" />
    <glyph glyph-name="grave" unicode="`" horiz-adv-x="600" 
d="M74 634l28 49l252 -122l-27 -51z" />
    <glyph glyph-name="a" unicode="a" horiz-adv-x="591" 
d="M156.5 15q-46.5 27 -70.5 73.5t-24 106.5q0 10 2 32q7 68 41 123t89 86.5t124 31.5q62 0 105.5 -30.5t59.5 -81.5l11 100h65l-48 -456h-65l10 98q-27 -49 -78 -79.5t-111 -30.5q-64 0 -110.5 27zM383 75q44 28 68 74.5t24 100.5q0 69 -41.5 114t-114.5 45
q-55 0 -98.5 -27.5t-68 -74.5t-24.5 -104q0 -69 41 -112.5t112 -43.5q58 0 102 28z" />
    <glyph glyph-name="b" unicode="b" horiz-adv-x="591" 
d="M481.5 442q45.5 -26 70.5 -73.5t25 -109.5q0 -10 -2 -32q-7 -68 -42 -122.5t-90 -85.5t-120 -31q-60 0 -105.5 30t-62.5 80l-10 -98h-65l48 456h1l26 244h64l-37 -344q28 52 80 82t114 30q60 0 105.5 -26zM416.5 73.5q43.5 26.5 69 73.5t25.5 104q0 70 -42 114t-110 44
q-54 0 -98.5 -26.5t-70.5 -73.5t-26 -104q0 -70 43.5 -114t113.5 -44q52 0 95.5 26.5z" />
    <glyph glyph-name="c" unicode="c" horiz-adv-x="516" 
d="M116.5 45q-54.5 56 -54.5 149q0 10 2 34q7 70 40.5 124t88.5 84t123 30q89 0 140 -44.5t52 -120.5h-65q-4 52 -39 79.5t-95 27.5q-54 0 -95 -26t-64 -73.5t-23 -109.5q0 -70 38.5 -110.5t105.5 -40.5q61 0 101.5 26.5t54.5 77.5h65q-16 -75 -76.5 -119t-149.5 -44
q-95 0 -149.5 56z" />
    <glyph glyph-name="d" unicode="d" horiz-adv-x="591" 
d="M585 700l-74 -700h-65l10 98q-27 -49 -78 -79.5t-111 -30.5q-64 0 -110.5 27t-70.5 73.5t-24 106.5q0 10 2 32q7 68 41 123t89 86.5t124 31.5q62 0 105.5 -30.5t59.5 -81.5l11 100h1l26 244h64zM383 75q44 28 68 74.5t24 100.5q0 69 -41.5 114t-114.5 45
q-55 0 -98.5 -27.5t-68 -74.5t-24.5 -104q0 -69 41 -112.5t112 -43.5q58 0 102 28z" />
    <glyph glyph-name="e" unicode="e" horiz-adv-x="515" 
d="M495 213h-368q-1 -8 -1 -23q0 -67 38.5 -105.5t105.5 -38.5q51 0 89.5 22t58.5 61h65q-19 -63 -80 -102t-138 -39q-95 0 -149 55.5t-54 150.5q0 11 2 35q7 71 40.5 125.5t87 84t119.5 29.5q88 0 140 -51t52 -134q0 -18 -1 -27q-3 -26 -7 -43zM440 264q1 6 1 19
q0 60 -36 96t-100 36q-67 0 -114 -41.5t-58 -109.5h307z" />
    <glyph glyph-name="f" unicode="f" horiz-adv-x="341" 
d="M278 628.5q-26 -19.5 -32 -78.5l-10 -94h138l-6 -56h-138l-42 -400h-65l42 400h-100l6 56h100l9 91q10 91 55 125t98 34q42 0 66 -12l-6 -56q-28 10 -51 10q-38 0 -64 -19.5z" />
    <glyph glyph-name="g" unicode="g" horiz-adv-x="591" 
d="M559 455l-48 -451q-6 -62 -30.5 -109.5t-65.5 -76.5q-61 -45 -162 -45q-103 0 -159 46q-27 22 -40 52.5t-10 64.5h67q-2 -47 36 -77.5t111 -30.5q84 0 131.5 43t56.5 128l10 99q-28 -51 -79 -80.5t-110 -29.5q-62 0 -108.5 27t-71.5 74.5t-25 107.5q0 10 2 30
q7 68 42 123t90.5 86.5t121.5 31.5q61 0 105 -29.5t60 -82.5l11 99h65zM380 74.5q44 27.5 69.5 74t25.5 101.5q0 70 -42.5 114.5t-113.5 44.5q-53 0 -97 -27t-69 -74t-25 -104q0 -69 42.5 -113t110.5 -44q55 0 99 27.5z" />
    <glyph glyph-name="h" unicode="h" horiz-adv-x="566" 
d="M483 427.5q39 -40.5 39 -116.5q0 -10 -2 -36l-29 -275h-64l26 249q2 26 2 38q0 62 -28.5 93t-86.5 31q-73 0 -116 -48.5t-52 -130.5l-24 -232h-65l74 700h64l-26 -244h1l-11 -105q22 53 69 85t113 32q77 0 116 -40.5z" />
    <glyph glyph-name="i" unicode="i" horiz-adv-x="225" 
d="M131.5 561.5q-14.5 14.5 -14.5 37.5q0 28 19 48t47 20q24 0 39 -15.5t15 -38.5q0 -28 -19.5 -47t-47.5 -19q-24 0 -38.5 14.5zM128 456h65l-48 -456h-65z" />
    <glyph glyph-name="j" unicode="j" horiz-adv-x="228" 
d="M134.5 561.5q-14.5 14.5 -14.5 37.5q0 28 19 48t47 20q24 0 39 -15.5t15 -38.5q0 -28 -19.5 -47t-47.5 -19q-24 0 -38.5 14.5zM-51 -210l6 60q23 -10 51 -10q29 0 46.5 20t21.5 57l57 539h65l-58 -555q-6 -58 -39.5 -90t-86.5 -32q-41 0 -63 11z" />
    <glyph glyph-name="k" unicode="k" horiz-adv-x="492" 
d="M242 234l220 -234h-87l-207 220l-23 -220h-65l48 456h1l26 244h64l-49 -459l256 215h84z" />
    <glyph glyph-name="l" unicode="l" horiz-adv-x="225" 
d="M154 700h65l-74 -700h-65z" />
    <glyph glyph-name="m" unicode="m" horiz-adv-x="832" 
d="M128 456h65l-11 -103q18 48 58 81.5t100 33.5q59 0 95 -29t41 -86q20 49 65 82t102 33q72 0 109 -37.5t37 -108.5q0 -11 -2 -33l-30 -289h-64l29 275q1 9 1 26q0 57 -27 83.5t-74 26.5q-61 0 -99.5 -46.5t-47.5 -131.5l-24 -233h-65l28 262q2 24 2 32q0 117 -100 117
q-63 0 -100.5 -48t-46.5 -130l-24 -233h-65z" />
    <glyph glyph-name="n" unicode="n" horiz-adv-x="563" 
d="M128 456h65l-11 -105q22 53 69 85t113 32q77 0 116 -40.5t39 -116.5q0 -10 -2 -36l-29 -275h-64l26 249q2 26 2 38q0 62 -28.5 93t-86.5 31q-73 0 -116 -48.5t-52 -130.5l-24 -232h-65z" />
    <glyph glyph-name="o" unicode="o" horiz-adv-x="549" 
d="M161 15.5q-48 27.5 -73.5 75.5t-25.5 107q0 73 33 135t93 98.5t136 36.5q65 0 113 -27.5t73 -75t25 -107.5q0 -10 -2 -30q-7 -66 -41.5 -121t-90.5 -87t-127 -32q-65 0 -113 27.5zM379 75q43 28 67 75t24 103q0 69 -40.5 112.5t-111.5 43.5q-56 0 -99 -27.5t-67 -74.5
t-24 -103q0 -69 40.5 -113t111.5 -44q56 0 99 28z" />
    <glyph glyph-name="p" unicode="p" horiz-adv-x="591" 
d="M481.5 442q45.5 -26 70.5 -73.5t25 -109.5q0 -10 -2 -32q-7 -68 -42 -122.5t-90 -85.5t-120 -31q-60 0 -105.5 30t-62.5 80l-33 -313h-64l23 215h-1l48 456h65l-11 -100q28 52 80 82t114 30q60 0 105.5 -26zM416.5 73.5q43.5 26.5 69 73.5t25.5 104q0 70 -42 114t-110 44
q-54 0 -98.5 -26.5t-70.5 -73.5t-26 -104q0 -70 43.5 -114t113.5 -44q52 0 95.5 26.5z" />
    <glyph glyph-name="q" unicode="q" horiz-adv-x="591" 
d="M559 456l-71 -671h-64l23 215h-1l10 98q-27 -49 -78 -79.5t-111 -30.5q-64 0 -110.5 27t-70.5 73.5t-24 106.5q0 10 2 32q7 68 41 123t89 86.5t124 31.5q62 0 105.5 -30.5t59.5 -81.5l11 100h65zM383 75q44 28 68 74.5t24 100.5q0 69 -41.5 114t-114.5 45
q-55 0 -98.5 -27.5t-68 -74.5t-24.5 -104q0 -69 41 -112.5t112 -43.5q58 0 102 28z" />
    <glyph glyph-name="r" unicode="r" horiz-adv-x="355" 
d="M128 456h65l-13 -120q21 64 65 96.5t96 32.5q20 0 40 -4l-6 -60q-21 3 -43 3q-73 0 -115.5 -61t-50.5 -146l-21 -197h-65z" />
    <glyph glyph-name="s" unicode="s" horiz-adv-x="442" 
d="M99 26q-46 38 -46 95l1 13h65q-4 -39 26 -65.5t87 -26.5q50 0 81.5 23t31.5 63q0 23 -11.5 40t-35.5 23l-124 32q-43 11 -64 37.5t-21 64.5q0 41 23 74t64 51t93 18q74 0 115.5 -32t41.5 -85q0 -10 -1 -16h-63q3 38 -23.5 59.5t-77.5 21.5q-46 0 -77 -21.5t-31 -60.5
q0 -44 57 -60l116 -31q43 -11 64 -39.5t21 -64.5l-1 -13q-7 -64 -56.5 -101t-128.5 -37q-80 0 -126 38z" />
    <glyph glyph-name="t" unicode="t" horiz-adv-x="346" 
d="M293.5 55q17.5 2 28.5 5l-6 -58q-26 -8 -75 -8q-51 0 -83.5 23.5t-32.5 96.5q0 9 2 35l26 251h-88l6 56h88l16 151h64l-16 -151h126l-6 -56h-126l-25 -239q-2 -22 -2 -31q0 -46 18 -61.5t53 -15.5q15 0 32.5 2z" />
    <glyph glyph-name="u" unicode="u" horiz-adv-x="563" 
d="M135 29q-43 41 -43 119q0 11 2 33l29 275h65l-28 -261q-2 -20 -2 -28q0 -58 28 -90t89 -32q50 0 86 24.5t55.5 63.5t23.5 81l26 242h65l-48 -456h-65l11 103q-23 -51 -70 -83t-107 -32q-74 0 -117 41z" />
    <glyph glyph-name="v" unicode="v" horiz-adv-x="473" 
d="M53 456h70l123 -370l201 370h69l-252 -456h-54z" />
    <glyph glyph-name="w" unicode="w" horiz-adv-x="726" 
d="M58 456h71l86 -365l161 365h70l84 -365l164 365h70l-216 -456h-56l-89 376l-169 -376h-55z" />
    <glyph glyph-name="x" unicode="x" horiz-adv-x="465" 
d="M219 229l-149 227h79l112 -179l151 179h80l-198 -227l151 -229h-79l-115 182l-152 -182h-79z" />
    <glyph glyph-name="y" unicode="y" horiz-adv-x="567" 
d="M535 456l-50 -471q-10 -111 -81 -166q-58 -46 -149 -46q-97 0 -148 46q-40 38 -40 101l1 16h65q-2 -49 27.5 -78.5t99.5 -29.5q145 0 162 161l12 112q-26 -50 -73 -81t-109 -31q-159 0 -159 163q0 11 2 39l28 265h64l-27 -253q-2 -26 -2 -36q0 -58 28 -88.5t92 -30.5
q49 0 85 25t57 65t26 85l25 233h64z" />
    <glyph glyph-name="z" unicode="z" horiz-adv-x="437" 
d="M350 400h-270l6 56h382l-332 -400h283l-6 -56h-393z" />
    <glyph glyph-name="braceleft" unicode="{" horiz-adv-x="310" 
d="M145.5 -162.5q-35.5 31.5 -35.5 88.5q0 13 1 19l22 204q3 31 -10 52t-33.5 31.5t-38.5 10.5l5 55q18 0 40.5 10t40.5 31t21 52l22 204q4 45 26.5 76t54.5 47t65 16h53l-5 -53h-45q-38 0 -62 -27t-29 -70l-21 -200q-5 -51 -35 -78t-66 -36q31 -8 55 -32t24 -67l-1 -14
l-22 -201q-1 -6 -1 -16q0 -37 18.5 -59t52.5 -22h45l-5 -53h-53q-48 0 -83.5 31.5z" />
    <glyph glyph-name="bar" unicode="|" horiz-adv-x="222" 
d="M162 733h52l-97 -926h-52z" />
    <glyph glyph-name="braceright" unicode="}" horiz-adv-x="310" 
d="M-12 -194l5 53h45q38 0 61.5 27t28.5 70l22 201q5 51 34.5 77.5t65.5 35.5q-31 8 -54.5 31.5t-23.5 67.5q0 10 1 15l21 200q1 6 1 17q0 37 -18 58.5t-52 21.5h-45l5 53h53q48 0 83.5 -32t35.5 -90q0 -11 -1 -17l-22 -204q-3 -31 10 -52t33.5 -31t38.5 -10l-5 -55
q-18 0 -40.5 -10.5t-40.5 -31.5t-21 -52l-22 -204q-5 -45 -27.5 -76.5t-54 -47t-64.5 -15.5h-53z" />
    <glyph glyph-name="asciitilde" unicode="~" horiz-adv-x="539" 
d="M356 227.5q-24 8.5 -62 26.5q-32 16 -59 24.5t-54 8.5q-25 0 -53.5 -14.5t-52.5 -37.5l6 60q25 26 53.5 38t54.5 12q42 0 115 -32l19 -8q31 -14 50.5 -21t34.5 -7q51 0 116 54l-6 -59q-26 -25 -56.5 -39t-59.5 -14q-22 0 -46 8.5z" />
    <glyph glyph-name="uni00A0" unicode="&#xa0;" horiz-adv-x="270" 
 />
    <glyph glyph-name="exclamdown" unicode="&#xa1;" horiz-adv-x="254" 
d="M218.5 475q15.5 -16 15.5 -39q0 -28 -20.5 -48t-47.5 -20q-24 0 -39.5 15.5t-15.5 39.5q0 28 20 48t48 20q24 0 39.5 -16zM189 287l-53 -502h-64l53 502h64z" />
    <glyph glyph-name="cent" unicode="&#xa2;" horiz-adv-x="516" 
d="M384.5 186.5q40.5 26.5 54.5 77.5h65q-15 -69 -68.5 -112.5t-132.5 -49.5l-11 -102h-51l11 102q-83 8 -130.5 63t-47.5 141q0 10 2 34q11 100 71.5 164t154.5 73l10 103h51l-10 -103q78 -7 122 -50.5t44 -113.5h-65q-3 52 -37.5 79.5t-95.5 27.5q-54 0 -95 -26t-64 -73.5
t-23 -109.5q0 -70 38.5 -110.5t105.5 -40.5q61 0 101.5 26.5z" />
    <glyph glyph-name="sterling" unicode="&#xa3;" horiz-adv-x="514" 
d="M171.5 133.5q-20.5 -45.5 -48.5 -71.5h357l-7 -62h-433l5 48q34 29 55.5 72t28.5 110l12 115h-67l6 51h67l8 80q11 107 71 161.5t154 54.5q84 0 131 -43.5t47 -120.5q0 -17 -1 -26h-68q1 7 1 21q0 54 -29.5 83.5t-87.5 29.5q-69 0 -105.5 -40.5t-45.5 -125.5l-7 -74h185
l-6 -51h-185l-11 -103q-6 -63 -26.5 -108.5z" />
    <glyph glyph-name="currency" unicode="&#xa4;" horiz-adv-x="582" 
d="M52 157l78 71q-33 52 -33 114q0 47 16.5 91t46.5 79l-63 71l46 42l62 -71q66 48 149 48t140 -47l78 69l36 -41l-77 -70q35 -51 35 -116q0 -47 -17 -91t-48 -79l63 -69l-46 -42l-62 70q-66 -47 -150 -47t-138 48l-79 -71zM409.5 224q43.5 27 67.5 71.5t24 95.5
q0 65 -41.5 109t-111.5 44q-53 0 -95.5 -27t-66.5 -72t-24 -96q0 -42 18.5 -76.5t52.5 -55t79 -20.5q54 0 97.5 27z" />
    <glyph glyph-name="yen" unicode="&#xa5;" horiz-adv-x="538" 
d="M335 273h155l-5 -46h-157l-9 -86h157l-5 -48h-157l-10 -93h-69l10 93h-157l5 48h157l9 86h-157l5 46h155l-176 407h76l141 -352l215 352h76z" />
    <glyph glyph-name="brokenbar" unicode="&#xa6;" horiz-adv-x="222" 
d="M162 733h52l-43 -411h-52zM110 236h52l-45 -429h-52z" />
    <glyph glyph-name="section" unicode="&#xa7;" horiz-adv-x="541" 
d="M482 156.5q-31 -39.5 -88 -62.5q78 -47 78 -131q0 -90 -62.5 -139t-165.5 -49q-97 0 -147.5 42.5t-50.5 114.5q0 15 1 23h69q-1 -5 -1 -16q0 -49 33.5 -78t101.5 -29q69 0 110 31.5t41 89.5q0 37 -21 62t-51.5 40.5t-82.5 34.5q-55 20 -88 36.5t-55.5 45.5t-22.5 72
q0 54 30.5 93t87.5 61q-77 47 -77 130q0 57 29 100t80.5 66t117.5 23q98 0 148 -43t50 -116q0 -15 -1 -23h-71q1 6 1 18q0 49 -33 78t-99 29q-69 0 -109.5 -32t-40.5 -92q0 -37 20.5 -62t51 -39.5t82.5 -33.5q55 -19 88 -35.5t55.5 -44.5t22.5 -71q0 -54 -31 -93.5z
M416.5 169q29.5 29 29.5 71q0 30 -18.5 50t-46.5 33t-75 29l-49 18q-51 -16 -80 -45.5t-29 -69.5q0 -30 18.5 -50.5t46 -33.5t76.5 -31q10 -3 47 -17q51 17 80.5 46z" />
    <glyph glyph-name="dieresis" unicode="&#xa8;" horiz-adv-x="600" 
d="M147.5 561.5q-14.5 14.5 -14.5 36.5q0 26 19 45t45 19q22 0 36.5 -14.5t14.5 -36.5q0 -26 -19 -45t-45 -19q-22 0 -36.5 14.5zM344.5 561.5q-14.5 14.5 -14.5 36.5q0 26 19 45t45 19q22 0 36.5 -14.5t14.5 -36.5q0 -26 -19 -45t-45 -19q-22 0 -36.5 14.5z" />
    <glyph glyph-name="copyright" unicode="&#xa9;" horiz-adv-x="799" 
d="M224.5 24.5q-73.5 41.5 -112 114t-38.5 164.5q0 23 3 47q11 102 63.5 186t139 132.5t195.5 48.5q100 0 173 -41.5t111.5 -114.5t38.5 -165q0 -31 -2 -46q-11 -103 -63.5 -186.5t-139 -132t-195.5 -48.5q-100 0 -173.5 41.5zM568.5 73.5q73.5 42.5 118.5 115.5t55 161
q2 26 2 40q0 79 -32.5 143t-94.5 100.5t-147 36.5q-92 0 -166 -42.5t-119 -115.5t-54 -162q-2 -14 -2 -41q0 -79 32.5 -142t94.5 -99.5t147 -36.5q92 0 165.5 42.5zM316.5 163.5q-42.5 24.5 -64.5 67t-22 93.5q0 62 28.5 116.5t81.5 87.5t122 33q76 0 120 -37.5t48 -98.5
h-48q-5 42 -37.5 68t-86.5 26t-95 -27t-63.5 -70.5t-22.5 -93.5q0 -63 38.5 -105t106.5 -42q54 0 92 26t52 68h48q-16 -60 -68 -98t-128 -38q-59 0 -101.5 24.5z" />
    <glyph glyph-name="ordfeminine" unicode="&#xaa;" horiz-adv-x="366" 
d="M113 428q-33 34 -33 87q0 43 20 79t54.5 57t78.5 21q38 0 64 -17t36 -46l6 56h54l-28 -264h-54l6 55q-16 -28 -46.5 -45t-68.5 -17q-56 0 -89 34zM297.5 469.5q30.5 30.5 30.5 72.5q0 37 -23.5 61t-64.5 24q-45 0 -75 -31t-30 -74q0 -36 23 -59.5t62 -23.5
q47 0 77.5 30.5z" />
    <glyph glyph-name="guillemotleft" unicode="&#xab;" horiz-adv-x="481" 
d="M35 261l225 189l34 -39l-179 -150l148 -150l-42 -38zM248 261l225 189l34 -39l-179 -150l148 -150l-42 -38z" />
    <glyph glyph-name="logicalnot" unicode="&#xac;" horiz-adv-x="504" 
d="M422 354h-330l6 58h394l-21 -204h-64z" />
    <glyph glyph-name="uni00AD" unicode="&#xad;" horiz-adv-x="412" 
d="M85 289h302l-6 -58h-302z" />
    <glyph glyph-name="registered" unicode="&#xae;" horiz-adv-x="590" 
d="M193 225.5q-52 29.5 -79.5 81.5t-27.5 118q0 10 2 32q8 72 45 131.5t99 94t139 34.5q71 0 123 -29.5t79 -81t27 -116.5q0 -11 -2 -33q-8 -73 -45 -132.5t-98 -94t-138 -34.5q-72 0 -124 29.5zM445 265q55 35 86 94t31 127q0 56 -23 101t-67 71t-104 26q-70 0 -125.5 -35
t-86.5 -94t-31 -127q0 -56 23 -101t67.5 -71t104.5 -26q70 0 125 35zM269 602h104q39 0 62 -23.5t23 -58.5t-21 -63t-55 -37l54 -100h-39l-50 96h-63l-10 -96h-34zM355 446q30 0 49 21t19 50q0 24 -14.5 39.5t-40.5 15.5h-67l-13 -126h67z" />
    <glyph glyph-name="macron" unicode="&#xaf;" horiz-adv-x="600" 
d="M141 608h317l-6 -53h-317z" />
    <glyph glyph-name="degree" unicode="&#xb0;" horiz-adv-x="361" 
d="M124 429.5q-38 37.5 -38 95.5q0 45 22.5 83.5t61 61t84.5 22.5q60 0 97.5 -37.5t37.5 -95.5q0 -45 -22.5 -83.5t-61 -61t-83.5 -22.5q-60 0 -98 37.5zM305 475.5q31 32.5 31 78.5q0 38 -24 62.5t-64 24.5q-47 0 -78 -32.5t-31 -78.5q0 -38 24.5 -62.5t64.5 -24.5
q46 0 77 32.5z" />
    <glyph glyph-name="plusminus" unicode="&#xb1;" horiz-adv-x="504" 
d="M261 389h-165l6 58h165l12 119h64l-12 -119h165l-6 -58h-165l-12 -117h-64zM77 212h394l-6 -58h-394z" />
    <glyph glyph-name="uni00B2" unicode="&#xb2;" horiz-adv-x="374" 
d="M116.5 509q27.5 40 88.5 67l70 32q67 30 67 89q0 27 -18.5 43t-50.5 16q-41 0 -67 -23.5t-30 -65.5h-57q7 61 50 98t109 37q57 0 90 -26.5t33 -70.5l-1 -13q-9 -80 -93 -117l-68 -32q-40 -18 -59 -39.5t-26 -55.5h220l-5 -48h-288q8 69 35.5 109z" />
    <glyph glyph-name="uni00B3" unicode="&#xb3;" horiz-adv-x="381" 
d="M131.5 422q-35.5 29 -35.5 80q0 10 1 16h57q-4 -37 18.5 -58.5t63.5 -21.5q43 0 69 22.5t26 57.5q0 30 -21 47t-60 17h-37l5 44h37q39 0 62 17.5t27 49.5q3 29 -17 47t-56 18q-38 0 -63 -19.5t-29 -51.5h-57q5 51 47 83t107 32q58 0 92.5 -25.5t34.5 -68.5
q0 -40 -24.5 -67t-69.5 -36q35 -4 57.5 -27.5t22.5 -57.5q0 -57 -44 -92t-115 -35q-63 0 -98.5 29z" />
    <glyph glyph-name="acute" unicode="&#xb4;" horiz-adv-x="600" 
d="M98 561l278 122l18 -49l-279 -124z" />
    <glyph glyph-name="uni00B5" unicode="&#xb5;" horiz-adv-x="568" 
d="M536 456l-48 -456h-65l11 103q-23 -51 -70 -83t-107 -32q-69 0 -110 34l-25 -237h-65l71 671h65l-28 -261q-2 -20 -2 -28q0 -58 28 -90t89 -32q50 0 86 24.5t55.5 63.5t23.5 81l26 242h65z" />
    <glyph glyph-name="paragraph" unicode="&#xb6;" horiz-adv-x="655" 
d="M301 329q-89 0 -143 42t-54 122q0 18 1 27q12 116 92.5 156.5t176.5 40.5h306l-5 -55h-53l-86 -810h-61l85 809h-163l-85 -809h-62z" />
    <glyph glyph-name="periodcentered" unicode="&#xb7;" horiz-adv-x="283" 
d="M128 266.5q-15 15.5 -15 39.5q0 28 20 48t47 20q25 0 40.5 -15.5t15.5 -39.5q0 -28 -20.5 -48t-48.5 -20q-24 0 -39 15.5z" />
    <glyph glyph-name="cedilla" unicode="&#xb8;" horiz-adv-x="600" 
d="M61.5 -196q-20.5 19 -19.5 51h38q-1 -17 10.5 -27t30.5 -10q24 0 39 16.5t15 46.5q0 19 -10.5 30t-31.5 11q-30 0 -47 -24h-33l11 102h39l-7 -67q7 8 21.5 13.5t30.5 5.5q29 0 48 -18.5t19 -50.5q0 -43 -26.5 -70.5t-71.5 -27.5q-35 0 -55.5 19z" />
    <glyph glyph-name="uni00B9" unicode="&#xb9;" horiz-adv-x="267" 
d="M197 682h-90l4 43q56 0 77.5 15.5t25.5 53.5h49l-41 -394h-55z" />
    <glyph glyph-name="ordmasculine" unicode="&#xba;" horiz-adv-x="348" 
d="M117 428.5q-36 34.5 -36 88.5q0 42 20.5 77.5t58 56.5t85.5 21q62 0 98.5 -34.5t36.5 -88.5q0 -42 -21 -77.5t-59 -56.5t-85 -21q-62 0 -98 34.5zM296 469.5q30 30.5 30 74.5q0 36 -23 59.5t-63 23.5q-46 0 -76.5 -30.5t-30.5 -73.5q0 -37 23.5 -60.5t63.5 -23.5
q46 0 76 30.5z" />
    <glyph glyph-name="guillemotright" unicode="&#xbb;" horiz-adv-x="481" 
d="M29 111l178 150l-147 150l42 39l185 -189l-224 -188zM242 111l178 150l-147 150l42 39l185 -189l-224 -188z" />
    <glyph glyph-name="onequarter" unicode="&#xbc;" horiz-adv-x="788" 
d="M664 668l-545 -683l-41 29l544 682zM185 568h-90l4 43q56 0 77.5 15.5t25.5 53.5h49l-41 -394h-55zM766 127h-64l-13 -128h-56l13 128h-171l28 267h55l-23 -218h116l13 117h56l-13 -117h64z" />
    <glyph glyph-name="onehalf" unicode="&#xbd;" horiz-adv-x="767" 
d="M78 14l544 682l42 -28l-545 -683zM185 568h-90l4 43q56 0 77.5 15.5t25.5 53.5h49l-41 -394h-55zM467.5 109q27.5 40 87.5 67l71 32q67 30 67 91q0 26 -18.5 41.5t-50.5 15.5q-41 0 -67 -23.5t-30 -65.5h-57q7 61 50 98t109 37q57 0 90 -26.5t33 -70.5l-1 -13
q-9 -80 -93 -117l-68 -32q-40 -18 -59 -39.5t-26 -55.5h220l-5 -48h-288q8 69 35.5 109z" />
    <glyph glyph-name="threequarters" unicode="&#xbe;" horiz-adv-x="885" 
d="M761 668l-545 -683l-41 29l544 682zM333 314q-44 -35 -115 -35q-63 0 -98.5 29t-35.5 80q0 10 1 16h57q-4 -37 18.5 -58.5t63.5 -21.5q43 0 69 22.5t26 57.5q0 30 -21 47t-60 17h-37l5 44h37q39 0 62 17.5t27 49.5q3 29 -17 47t-56 18q-38 0 -63 -19.5t-29 -51.5h-57
q5 51 47 83t107 32q58 0 92.5 -25.5t34.5 -68.5q0 -40 -24.5 -67t-69.5 -36q35 -4 57.5 -27.5t22.5 -57.5q0 -57 -44 -92zM863 127h-64l-13 -128h-56l13 128h-171l28 267h55l-23 -218h116l13 117h56l-13 -117h64z" />
    <glyph glyph-name="questiondown" unicode="&#xbf;" horiz-adv-x="475" 
d="M353 487.5q15 -15.5 15 -38.5q0 -29 -19.5 -49t-47.5 -20q-24 0 -40 16t-16 39q0 27 21 47.5t48 20.5q24 0 39 -15.5zM322 279q-5 -51 -23 -81.5t-58 -57.5l-58 -38q-88 -56 -88 -151q0 -50 33.5 -80.5t94.5 -30.5q71 0 117.5 43.5t54.5 119.5h67q-10 -103 -76.5 -163
t-170.5 -60q-92 0 -141 45t-49 118q0 15 1 23q7 60 38 102t79 74l53 35q31 21 44.5 42.5t17.5 60.5l2 19h64z" />
    <glyph glyph-name="Agrave" unicode="&#xc0;" horiz-adv-x="577" 
d="M465 731l-216 115l29 45l216 -114zM456 126h-310l-53 -126h-73l312 700h61l164 -700h-73zM444 187l-92 422l-179 -422h271z" />
    <glyph glyph-name="Aacute" unicode="&#xc1;" horiz-adv-x="577" 
d="M266 731l-19 46l240 114l19 -45zM456 126h-310l-53 -126h-73l312 700h61l164 -700h-73zM444 187l-92 422l-179 -422h271z" />
    <glyph glyph-name="Acircumflex" unicode="&#xc2;" horiz-adv-x="577" 
d="M270 737l-31 33l141 113l118 -113l-39 -33l-85 86zM456 126h-310l-53 -126h-73l312 700h61l164 -700h-73zM444 187l-92 422l-179 -422h271z" />
    <glyph glyph-name="Atilde" unicode="&#xc3;" horiz-adv-x="577" 
d="M257 801.5q-18 -9.5 -41 -39.5l-27 27q51 73 111 73q20 0 36.5 -7.5t44.5 -24.5q22 -15 37.5 -22t30.5 -7q44 0 83 50l26 -29q-47 -72 -114 -72q-23 0 -42 9t-42 25q-22 14 -35.5 20.5t-28.5 6.5q-21 0 -39 -9.5zM456 126h-310l-53 -126h-73l312 700h61l164 -700h-73z
M444 187l-92 422l-179 -422h271z" />
    <glyph glyph-name="Adieresis" unicode="&#xc4;" horiz-adv-x="577" 
d="M215.5 771q-14.5 14 -14.5 36q0 26 19 45.5t44 19.5q23 0 37.5 -15t14.5 -37q0 -26 -19 -44.5t-45 -18.5q-22 0 -36.5 14zM449.5 771q-14.5 14 -14.5 36q0 26 19 45.5t44 19.5q23 0 37.5 -15t14.5 -37q0 -26 -19 -44.5t-45 -18.5q-22 0 -36.5 14zM456 126h-310l-53 -126
h-73l312 700h61l164 -700h-73zM444 187l-92 422l-179 -422h271z" />
    <glyph glyph-name="Aring" unicode="&#xc5;" horiz-adv-x="577" 
d="M456 126h-310l-53 -126h-73l299 671q-31 12 -49.5 38.5t-18.5 59.5q0 35 18.5 65t48.5 47.5t65 17.5q48 0 79.5 -30.5t31.5 -75.5q0 -41 -27 -75.5t-68 -47.5l158 -670h-73zM315 725.5q19 -19.5 48 -19.5q35 0 60 25t25 60q0 29 -19 47.5t-50 18.5q-33 0 -58 -25t-25 -58
q0 -29 19 -48.5zM444 187l-92 422l-179 -422h271z" />
    <glyph glyph-name="AE" unicode="&#xc6;" horiz-adv-x="819" 
d="M532 639l-27 -260h284l-7 -62h-284l-26 -255h284l-7 -62h-352l13 128h-245l-76 -128h-74l427 700h381l-7 -61h-284zM417 187l46 443l-263 -443h217z" />
    <glyph glyph-name="Ccedilla" unicode="&#xc7;" horiz-adv-x="772" 
d="M579 93.5q70 46.5 102 127.5h74q-34 -102 -121.5 -166.5t-215.5 -69.5l-5 -52q7 8 21.5 13.5t30.5 5.5q29 0 48 -18.5t19 -50.5q0 -43 -26.5 -70.5t-71.5 -27.5q-35 0 -55.5 19t-19.5 51h38q-1 -17 10.5 -27t30.5 -10q24 0 39 16.5t15 46.5q0 19 -10.5 30t-31.5 11
q-30 0 -47 -24h-33l9 87q-95 4 -164 46.5t-105 113t-36 158.5q0 23 3 47q11 102 63.5 185t139 131.5t196.5 48.5q135 0 214.5 -65t91.5 -170h-74q-15 80 -75 127t-163 47q-89 0 -159 -40t-112 -109t-51 -155q-2 -28 -2 -41q0 -76 30.5 -135.5t89 -93t140.5 -33.5
q103 0 173 46.5z" />
    <glyph glyph-name="Egrave" unicode="&#xc8;" horiz-adv-x="547" 
d="M248 846l29 45l216 -114l-29 -46zM159 700h392l-7 -61h-324l-27 -260h324l-7 -62h-324l-26 -255h324l-7 -62h-392z" />
    <glyph glyph-name="Eacute" unicode="&#xc9;" horiz-adv-x="547" 
d="M246 777l240 114l19 -45l-240 -115zM159 700h392l-7 -61h-324l-27 -260h324l-7 -62h-324l-26 -255h324l-7 -62h-392z" />
    <glyph glyph-name="Ecircumflex" unicode="&#xca;" horiz-adv-x="547" 
d="M496 770l-39 -33l-85 86l-104 -86l-31 33l141 113zM159 700h392l-7 -61h-324l-27 -260h324l-7 -62h-324l-26 -255h324l-7 -62h-392z" />
    <glyph glyph-name="Edieresis" unicode="&#xcb;" horiz-adv-x="547" 
d="M213.5 771q-14.5 14 -14.5 36q0 26 19 45.5t44 19.5q23 0 37.5 -15t14.5 -37q0 -26 -19 -44.5t-45 -18.5q-22 0 -36.5 14zM447.5 771q-14.5 14 -14.5 36q0 26 19 45.5t44 19.5q23 0 37.5 -15t14.5 -37q0 -26 -19 -44.5t-45 -18.5q-22 0 -36.5 14zM159 700h392l-7 -61
h-324l-27 -260h324l-7 -62h-324l-26 -255h324l-7 -62h-392z" />
    <glyph glyph-name="Igrave" unicode="&#xcc;" horiz-adv-x="238" 
d="M120 830l35 45l133 -85l-34 -45zM159 700h68l-74 -700h-68z" />
    <glyph glyph-name="Iacute" unicode="&#xcd;" horiz-adv-x="238" 
d="M112 788l160 92l26 -44l-161 -92zM159 700h68l-74 -700h-68z" />
    <glyph glyph-name="Icircumflex" unicode="&#xce;" horiz-adv-x="238" 
d="M204 814l-80 -66l-29 35l115 91l96 -91l-35 -35zM159 700h68l-74 -700h-68z" />
    <glyph glyph-name="Idieresis" unicode="&#xcf;" horiz-adv-x="238" 
d="M101 772.5q-14 13.5 -14 34.5q0 26 18 43.5t42 17.5q22 0 35.5 -13.5t13.5 -34.5q0 -26 -17.5 -43.5t-42.5 -17.5q-21 0 -35 13.5zM227.5 772q-13.5 13 -13.5 35q0 26 17.5 43.5t42.5 17.5q21 0 34.5 -13.5t13.5 -34.5q0 -26 -17.5 -43.5t-41.5 -17.5q-22 0 -35.5 13z
M159 700h68l-74 -700h-68z" />
    <glyph glyph-name="Eth" unicode="&#xd0;" horiz-adv-x="688" 
d="M545.5 658q72.5 -42 109.5 -112.5t37 -155.5q0 -14 -2 -40q-10 -92 -60.5 -172t-137 -129t-197.5 -49h-210l34 324h-80l6 58h80l34 318h210q104 0 176.5 -42zM460.5 102.5q70.5 40.5 111.5 106t49 141.5q2 22 2 33q0 69 -30 127.5t-90 93.5t-146 35h-137l-27 -257h143
l-6 -58h-143l-27 -262h137q93 0 163.5 40.5z" />
    <glyph glyph-name="Ntilde" unicode="&#xd1;" horiz-adv-x="661" 
d="M444 759q-19 9 -42 25q-22 14 -35.5 20.5t-28.5 6.5q-21 0 -39 -9.5t-41 -39.5l-27 27q51 73 111 73q20 0 36.5 -7.5t44.5 -24.5q22 -15 37.5 -22t30.5 -7q44 0 83 50l26 -29q-47 -72 -114 -72q-23 0 -42 9zM159 700h73l291 -588l62 588h65l-74 -700h-73l-291 589
l-62 -589h-65z" />
    <glyph glyph-name="Ograve" unicode="&#xd2;" horiz-adv-x="800" 
d="M360 846l29 45l216 -114l-29 -46zM224 28q-73 43 -111 116t-38 162q0 29 2 44q10 98 62.5 181.5t139.5 133.5t196 50q101 0 174 -43t111.5 -117t38.5 -163q0 -14 -2 -42q-11 -98 -63.5 -181.5t-139.5 -133.5t-196 -50q-101 0 -174 43zM563.5 88.5q70.5 41.5 112.5 110.5
t51 151q2 26 2 38q0 74 -30.5 134.5t-89 96t-140.5 35.5q-89 0 -159 -41.5t-112 -111t-50 -151.5q-2 -26 -2 -39q0 -73 30.5 -133t89 -95.5t139.5 -35.5q88 0 158.5 41.5z" />
    <glyph glyph-name="Oacute" unicode="&#xd3;" horiz-adv-x="800" 
d="M358 777l240 114l19 -45l-240 -115zM224 28q-73 43 -111 116t-38 162q0 29 2 44q10 98 62.5 181.5t139.5 133.5t196 50q101 0 174 -43t111.5 -117t38.5 -163q0 -14 -2 -42q-11 -98 -63.5 -181.5t-139.5 -133.5t-196 -50q-101 0 -174 43zM563.5 88.5
q70.5 41.5 112.5 110.5t51 151q2 26 2 38q0 74 -30.5 134.5t-89 96t-140.5 35.5q-89 0 -159 -41.5t-112 -111t-50 -151.5q-2 -26 -2 -39q0 -73 30.5 -133t89 -95.5t139.5 -35.5q88 0 158.5 41.5z" />
    <glyph glyph-name="Ocircumflex" unicode="&#xd4;" horiz-adv-x="800" 
d="M609 770l-39 -33l-85 86l-104 -86l-31 33l141 113zM224 28q-73 43 -111 116t-38 162q0 29 2 44q10 98 62.5 181.5t139.5 133.5t196 50q101 0 174 -43t111.5 -117t38.5 -163q0 -14 -2 -42q-11 -98 -63.5 -181.5t-139.5 -133.5t-196 -50q-101 0 -174 43zM563.5 88.5
q70.5 41.5 112.5 110.5t51 151q2 26 2 38q0 74 -30.5 134.5t-89 96t-140.5 35.5q-89 0 -159 -41.5t-112 -111t-50 -151.5q-2 -26 -2 -39q0 -73 30.5 -133t89 -95.5t139.5 -35.5q88 0 158.5 41.5z" />
    <glyph glyph-name="Otilde" unicode="&#xd5;" horiz-adv-x="800" 
d="M513 759q-19 9 -42 25q-22 14 -35.5 20.5t-28.5 6.5q-21 0 -39 -9.5t-41 -39.5l-27 27q51 73 111 73q20 0 36.5 -7.5t44.5 -24.5q22 -15 37.5 -22t30.5 -7q44 0 83 50l26 -29q-47 -72 -114 -72q-23 0 -42 9zM224 28q-73 43 -111 116t-38 162q0 29 2 44q10 98 62.5 181.5
t139.5 133.5t196 50q101 0 174 -43t111.5 -117t38.5 -163q0 -14 -2 -42q-11 -98 -63.5 -181.5t-139.5 -133.5t-196 -50q-101 0 -174 43zM563.5 88.5q70.5 41.5 112.5 110.5t51 151q2 26 2 38q0 74 -30.5 134.5t-89 96t-140.5 35.5q-89 0 -159 -41.5t-112 -111t-50 -151.5
q-2 -26 -2 -39q0 -73 30.5 -133t89 -95.5t139.5 -35.5q88 0 158.5 41.5z" />
    <glyph glyph-name="Odieresis" unicode="&#xd6;" horiz-adv-x="800" 
d="M326.5 771q-14.5 14 -14.5 36q0 26 19 45.5t44 19.5q23 0 37.5 -15t14.5 -37q0 -26 -19 -44.5t-45 -18.5q-22 0 -36.5 14zM560.5 771q-14.5 14 -14.5 36q0 26 19 45.5t44 19.5q23 0 37.5 -15t14.5 -37q0 -26 -19 -44.5t-45 -18.5q-22 0 -36.5 14zM224 28q-73 43 -111 116
t-38 162q0 29 2 44q10 98 62.5 181.5t139.5 133.5t196 50q101 0 174 -43t111.5 -117t38.5 -163q0 -14 -2 -42q-11 -98 -63.5 -181.5t-139.5 -133.5t-196 -50q-101 0 -174 43zM563.5 88.5q70.5 41.5 112.5 110.5t51 151q2 26 2 38q0 74 -30.5 134.5t-89 96t-140.5 35.5
q-89 0 -159 -41.5t-112 -111t-50 -151.5q-2 -26 -2 -39q0 -73 30.5 -133t89 -95.5t139.5 -35.5q88 0 158.5 41.5z" />
    <glyph glyph-name="multiply" unicode="&#xd7;" horiz-adv-x="478" 
d="M313 315l127 -143l-45 -41l-127 142l-157 -141l-38 40l158 143l-128 142l45 42l128 -143l157 143l38 -41z" />
    <glyph glyph-name="Oslash" unicode="&#xd8;" horiz-adv-x="800" 
d="M757.5 562q41.5 -75 41.5 -168q0 -29 -2 -44q-11 -98 -63.5 -181.5t-139.5 -133.5t-196 -50q-64 0 -119 19l-42 -79l-46 20l42 78q-76 40 -117 115t-41 168q0 29 2 44q10 98 62.5 181.5t139.5 133.5t196 50q66 0 117 -18l41 76l45 -21l-40 -74q78 -41 119.5 -116z
M146 310q0 -73 31 -133.5t88 -94.5l297 558q-44 14 -93 14q-89 0 -159 -41.5t-112 -111t-50 -151.5q-2 -14 -2 -40zM563.5 88.5q70.5 41.5 112.5 110.5t51 151q2 26 2 38q0 76 -31.5 137t-90.5 95l-296 -558q40 -15 94 -15q88 0 158.5 41.5z" />
    <glyph glyph-name="Ugrave" unicode="&#xd9;" horiz-adv-x="630" 
d="M275 846l29 45l216 -114l-29 -46zM147 38.5q-60 53.5 -60 152.5q0 11 2 37l50 472h68l-50 -468q-1 -10 -1 -28q0 -76 43 -116.5t121 -40.5q85 0 139 48t63 137l50 468h67l-50 -472q-13 -116 -86.5 -179.5t-189.5 -63.5q-106 0 -166 53.5z" />
    <glyph glyph-name="Uacute" unicode="&#xda;" horiz-adv-x="630" 
d="M273 777l240 114l19 -45l-240 -115zM147 38.5q-60 53.5 -60 152.5q0 11 2 37l50 472h68l-50 -468q-1 -10 -1 -28q0 -76 43 -116.5t121 -40.5q85 0 139 48t63 137l50 468h67l-50 -472q-13 -116 -86.5 -179.5t-189.5 -63.5q-106 0 -166 53.5z" />
    <glyph glyph-name="Ucircumflex" unicode="&#xdb;" horiz-adv-x="630" 
d="M524 770l-39 -33l-85 86l-104 -86l-31 33l141 113zM147 38.5q-60 53.5 -60 152.5q0 11 2 37l50 472h68l-50 -468q-1 -10 -1 -28q0 -76 43 -116.5t121 -40.5q85 0 139 48t63 137l50 468h67l-50 -472q-13 -116 -86.5 -179.5t-189.5 -63.5q-106 0 -166 53.5z" />
    <glyph glyph-name="Udieresis" unicode="&#xdc;" horiz-adv-x="630" 
d="M241.5 771q-14.5 14 -14.5 36q0 26 19 45.5t44 19.5q23 0 37.5 -15t14.5 -37q0 -26 -19 -44.5t-45 -18.5q-22 0 -36.5 14zM475.5 771q-14.5 14 -14.5 36q0 26 19 45.5t44 19.5q23 0 37.5 -15t14.5 -37q0 -26 -19 -44.5t-45 -18.5q-22 0 -36.5 14zM147 38.5
q-60 53.5 -60 152.5q0 11 2 37l50 472h68l-50 -468q-1 -10 -1 -28q0 -76 43 -116.5t121 -40.5q85 0 139 48t63 137l50 468h67l-50 -472q-13 -116 -86.5 -179.5t-189.5 -63.5q-106 0 -166 53.5z" />
    <glyph glyph-name="Yacute" unicode="&#xdd;" horiz-adv-x="542" 
d="M261 731l-19 46l240 114l19 -45zM626 700l-431 -700h-74l170 278l-222 422h79l185 -353l219 353h74z" />
    <glyph glyph-name="Thorn" unicode="&#xde;" horiz-adv-x="578" 
d="M502 555q47 -27 71.5 -73.5t24.5 -104.5q0 -68 -32.5 -127.5t-90.5 -95t-132 -35.5h-177l-13 -119h-68l74 700h68l-13 -118h177q64 0 111 -27zM440.5 206.5q42.5 26.5 66.5 70.5t24 94q0 64 -40.5 107t-109.5 43h-173l-36 -341h173q53 0 95.5 26.5z" />
    <glyph glyph-name="germandbls" unicode="&#xdf;" horiz-adv-x="565" 
d="M206 0l6 58q38 -12 84 -12q72 0 119.5 38t54.5 104l1 15q0 55 -38 93t-111 38h-57l6 59h50q79 0 123.5 42t44.5 107q0 52 -34.5 83.5t-96.5 31.5q-69 0 -112.5 -44t-50.5 -111l-53 -502h-64l53 502q6 61 36 109.5t81 76t116 27.5q92 0 141.5 -44t49.5 -118t-45.5 -126.5
t-116.5 -61.5q65 -6 103.5 -53t38.5 -111q0 -13 -1 -20q-9 -91 -76 -142.5t-163 -51.5q-52 0 -89 13z" />
    <glyph glyph-name="agrave" unicode="&#xe0;" horiz-adv-x="591" 
d="M195 632l29 49l252 -122l-28 -51zM156.5 15q-46.5 27 -70.5 73.5t-24 106.5q0 10 2 32q7 68 41 123t89 86.5t124 31.5q62 0 105.5 -30.5t59.5 -81.5l11 100h65l-48 -456h-65l10 98q-27 -49 -78 -79.5t-111 -30.5q-64 0 -110.5 27zM383 75q44 28 68 74.5t24 100.5
q0 69 -41.5 114t-114.5 45q-55 0 -98.5 -27.5t-68 -74.5t-24.5 -104q0 -69 41 -112.5t112 -43.5q58 0 102 28z" />
    <glyph glyph-name="aacute" unicode="&#xe1;" horiz-adv-x="591" 
d="M188 561l278 122l18 -49l-279 -124zM156.5 15q-46.5 27 -70.5 73.5t-24 106.5q0 10 2 32q7 68 41 123t89 86.5t124 31.5q62 0 105.5 -30.5t59.5 -81.5l11 100h65l-48 -456h-65l10 98q-27 -49 -78 -79.5t-111 -30.5q-64 0 -110.5 27zM383 75q44 28 68 74.5t24 100.5
q0 69 -41.5 114t-114.5 45q-55 0 -98.5 -27.5t-68 -74.5t-24.5 -104q0 -69 41 -112.5t112 -43.5q58 0 102 28z" />
    <glyph glyph-name="acircumflex" unicode="&#xe2;" horiz-adv-x="591" 
d="M506 542l-40 -39l-123 119l-145 -119l-32 39l184 146zM156.5 15q-46.5 27 -70.5 73.5t-24 106.5q0 10 2 32q7 68 41 123t89 86.5t124 31.5q62 0 105.5 -30.5t59.5 -81.5l11 100h65l-48 -456h-65l10 98q-27 -49 -78 -79.5t-111 -30.5q-64 0 -110.5 27zM383 75
q44 28 68 74.5t24 100.5q0 69 -41.5 114t-114.5 45q-55 0 -98.5 -27.5t-68 -74.5t-24.5 -104q0 -69 41 -112.5t112 -43.5q58 0 102 28z" />
    <glyph glyph-name="atilde" unicode="&#xe3;" horiz-adv-x="591" 
d="M375.5 549q-16.5 8 -40.5 23q-20 14 -34 20.5t-29 6.5q-19 0 -38 -9.5t-41 -37.5l-23 35q47 66 106 66q17 0 34 -7.5t39 -22.5q21 -13 36 -20t29 -7q40 0 75 45l24 -34q-45 -66 -102 -66q-19 0 -35.5 8zM156.5 15q-46.5 27 -70.5 73.5t-24 106.5q0 10 2 32q7 68 41 123
t89 86.5t124 31.5q62 0 105.5 -30.5t59.5 -81.5l11 100h65l-48 -456h-65l10 98q-27 -49 -78 -79.5t-111 -30.5q-64 0 -110.5 27zM383 75q44 28 68 74.5t24 100.5q0 69 -41.5 114t-114.5 45q-55 0 -98.5 -27.5t-68 -74.5t-24.5 -104q0 -69 41 -112.5t112 -43.5q58 0 102 28z
" />
    <glyph glyph-name="adieresis" unicode="&#xe4;" horiz-adv-x="591" 
d="M200.5 561.5q-14.5 14.5 -14.5 36.5q0 26 19 45t45 19q22 0 36.5 -14.5t14.5 -36.5q0 -26 -19 -45t-45 -19q-22 0 -36.5 14.5zM397.5 561.5q-14.5 14.5 -14.5 36.5q0 26 19 45t45 19q22 0 36.5 -14.5t14.5 -36.5q0 -26 -19 -45t-45 -19q-22 0 -36.5 14.5zM156.5 15
q-46.5 27 -70.5 73.5t-24 106.5q0 10 2 32q7 68 41 123t89 86.5t124 31.5q62 0 105.5 -30.5t59.5 -81.5l11 100h65l-48 -456h-65l10 98q-27 -49 -78 -79.5t-111 -30.5q-64 0 -110.5 27zM383 75q44 28 68 74.5t24 100.5q0 69 -41.5 114t-114.5 45q-55 0 -98.5 -27.5
t-68 -74.5t-24.5 -104q0 -69 41 -112.5t112 -43.5q58 0 102 28z" />
    <glyph glyph-name="aring" unicode="&#xe5;" horiz-adv-x="591" 
d="M259.5 523.5q-28.5 27.5 -28.5 69.5q0 34 17 61t45 42.5t60 15.5q43 0 70.5 -26.5t27.5 -68.5q0 -52 -35.5 -86.5t-85.5 -34.5q-42 0 -70.5 27.5zM388.5 556q22.5 23 22.5 58q0 28 -17.5 45t-44.5 17q-31 0 -54 -22.5t-23 -57.5q0 -28 17.5 -45.5t44.5 -17.5
q32 0 54.5 23zM156.5 15q-46.5 27 -70.5 73.5t-24 106.5q0 10 2 32q7 68 41 123t89 86.5t124 31.5q62 0 105.5 -30.5t59.5 -81.5l11 100h65l-48 -456h-65l10 98q-27 -49 -78 -79.5t-111 -30.5q-64 0 -110.5 27zM383 75q44 28 68 74.5t24 100.5q0 69 -41.5 114t-114.5 45
q-55 0 -98.5 -27.5t-68 -74.5t-24.5 -104q0 -69 41 -112.5t112 -43.5q58 0 102 28z" />
    <glyph glyph-name="ae" unicode="&#xe6;" horiz-adv-x="879" 
d="M859 212h-369q-1 -8 -1 -23q0 -67 39 -105.5t108 -38.5q50 0 88 23t58 64h65q-20 -65 -80 -105t-137 -40q-66 0 -114.5 30.5t-69.5 84.5q-70 -114 -223 -114q-75 0 -120.5 32t-45.5 85q0 83 65 122q31 20 74 27.5t115 7.5h125l4 39q1 5 1 15q0 45 -32.5 71.5t-97.5 26.5
q-63 0 -103.5 -28.5t-49.5 -80.5h-64q12 75 72.5 119t150.5 44q71 0 114 -23.5t59 -66.5q34 43 82 66t104 23q57 0 100 -23.5t67 -66t24 -96.5q0 -17 -1 -26q-1 -10 -7 -43zM803 263q1 7 1 20q0 60 -36 96t-97 36q-70 0 -118 -41.5t-57 -110.5h307zM429 201q1 4 0.5 6.5
t-0.5 4.5h-152q-78 0 -116 -26t-38 -72q0 -36 32 -54.5t89 -18.5q71 0 124 39t60 108z" />
    <glyph glyph-name="ccedilla" unicode="&#xe7;" horiz-adv-x="516" 
d="M372.5 74.5q40.5 26.5 54.5 77.5h65q-15 -71 -71 -115t-138 -48l-6 -56q7 8 21.5 13.5t30.5 5.5q29 0 48 -18.5t19 -50.5q0 -43 -26.5 -70.5t-71.5 -27.5q-35 0 -55.5 19t-19.5 51h38q-1 -17 10.5 -27t30.5 -10q24 0 39 16.5t15 46.5q0 19 -10.5 30t-31.5 11
q-30 0 -47 -24h-33l10 92q-85 7 -133.5 62t-48.5 143q0 11 2 33q7 70 40.5 124t88.5 84t123 30q89 0 140 -44.5t52 -120.5h-65q-4 52 -39 79.5t-95 27.5q-54 0 -95 -26t-64 -73.5t-23 -109.5q0 -70 38.5 -110.5t105.5 -40.5q61 0 101.5 26.5z" />
    <glyph glyph-name="egrave" unicode="&#xe8;" horiz-adv-x="515" 
d="M432 508l-253 124l29 49l252 -122zM495 213h-368q-1 -8 -1 -23q0 -67 38.5 -105.5t105.5 -38.5q51 0 89.5 22t58.5 61h65q-19 -63 -80 -102t-138 -39q-95 0 -149 55.5t-54 150.5q0 11 2 35q7 71 40.5 125.5t87 84t119.5 29.5q88 0 140 -51t52 -134q0 -18 -1 -27
q-3 -26 -7 -43zM440 264q1 6 1 19q0 60 -36 96t-100 36q-67 0 -114 -41.5t-58 -109.5h307z" />
    <glyph glyph-name="eacute" unicode="&#xe9;" horiz-adv-x="515" 
d="M190 510l-17 51l278 122l18 -49zM495 213h-368q-1 -8 -1 -23q0 -67 38.5 -105.5t105.5 -38.5q51 0 89.5 22t58.5 61h65q-19 -63 -80 -102t-138 -39q-95 0 -149 55.5t-54 150.5q0 11 2 35q7 71 40.5 125.5t87 84t119.5 29.5q88 0 140 -51t52 -134q0 -18 -1 -27
q-3 -26 -7 -43zM440 264q1 6 1 19q0 60 -36 96t-100 36q-67 0 -114 -41.5t-58 -109.5h307z" />
    <glyph glyph-name="ecircumflex" unicode="&#xea;" horiz-adv-x="515" 
d="M183 503l-32 39l184 146l156 -146l-40 -39l-123 119zM495 213h-368q-1 -8 -1 -23q0 -67 38.5 -105.5t105.5 -38.5q51 0 89.5 22t58.5 61h65q-19 -63 -80 -102t-138 -39q-95 0 -149 55.5t-54 150.5q0 11 2 35q7 71 40.5 125.5t87 84t119.5 29.5q88 0 140 -51t52 -134
q0 -18 -1 -27q-3 -26 -7 -43zM440 264q1 6 1 19q0 60 -36 96t-100 36q-67 0 -114 -41.5t-58 -109.5h307z" />
    <glyph glyph-name="edieresis" unicode="&#xeb;" horiz-adv-x="515" 
d="M184.5 561.5q-14.5 14.5 -14.5 36.5q0 26 19 45t45 19q22 0 36.5 -14.5t14.5 -36.5q0 -26 -19 -45t-45 -19q-22 0 -36.5 14.5zM381.5 561.5q-14.5 14.5 -14.5 36.5q0 26 19 45t45 19q22 0 36.5 -14.5t14.5 -36.5q0 -26 -19 -45t-45 -19q-22 0 -36.5 14.5zM495 213h-368
q-1 -8 -1 -23q0 -67 38.5 -105.5t105.5 -38.5q51 0 89.5 22t58.5 61h65q-19 -63 -80 -102t-138 -39q-95 0 -149 55.5t-54 150.5q0 11 2 35q7 71 40.5 125.5t87 84t119.5 29.5q88 0 140 -51t52 -134q0 -18 -1 -27q-3 -26 -7 -43zM440 264q1 6 1 19q0 60 -36 96t-100 36
q-67 0 -114 -41.5t-58 -109.5h307z" />
    <glyph glyph-name="igrave" unicode="&#xec;" horiz-adv-x="225" 
d="M87 612l35 46l140 -92l-34 -46zM128 456h65l-48 -456h-65z" />
    <glyph glyph-name="iacute" unicode="&#xed;" horiz-adv-x="225" 
d="M82 566l160 92l25 -46l-159 -92zM128 456h65l-48 -456h-65z" />
    <glyph glyph-name="icircumflex" unicode="&#xee;" horiz-adv-x="225" 
d="M59 560l123 108l102 -108l-41 -38l-68 76l-83 -76zM128 456h65l-48 -456h-65z" />
    <glyph glyph-name="idieresis" unicode="&#xef;" horiz-adv-x="225" 
d="M75 565q-13 13 -13 32q0 23 17 40t40 17q20 0 33 -13t13 -33q0 -23 -17 -39.5t-40 -16.5q-20 0 -33 13zM201 564.5q-13 12.5 -13 31.5q0 24 16.5 41t39.5 17q20 0 33 -13t13 -33q0 -23 -17 -39.5t-40 -16.5q-19 0 -32 12.5zM128 456h65l-48 -456h-65z" />
    <glyph glyph-name="eth" unicode="&#xf0;" horiz-adv-x="549" 
d="M535 258q0 -10 -2 -30q-7 -66 -41.5 -121t-90.5 -87t-127 -32q-65 0 -113 27.5t-73.5 75.5t-25.5 107q0 73 33 135t93 98.5t136 36.5q25 0 52 -5l-53 93l-99 -51l-16 38l95 49l-61 108h81l42 -77l94 48l17 -36l-91 -47l117 -209q33 -53 33 -121zM379 75q43 28 67 75
t24 103q0 69 -40.5 112.5t-111.5 43.5q-56 0 -99 -27.5t-67 -74.5t-24 -103q0 -69 40.5 -113t111.5 -44q56 0 99 28z" />
    <glyph glyph-name="ntilde" unicode="&#xf1;" horiz-adv-x="563" 
d="M377.5 549q-16.5 8 -40.5 23q-20 14 -34 20.5t-29 6.5q-19 0 -38 -9.5t-41 -37.5l-23 35q47 66 106 66q17 0 34 -7.5t39 -22.5q21 -13 36 -20t29 -7q40 0 75 45l24 -34q-45 -66 -102 -66q-19 0 -35.5 8zM128 456h65l-11 -105q22 53 69 85t113 32q77 0 116 -40.5
t39 -116.5q0 -10 -2 -36l-29 -275h-64l26 249q2 26 2 38q0 62 -28.5 93t-86.5 31q-73 0 -116 -48.5t-52 -130.5l-24 -232h-65z" />
    <glyph glyph-name="ograve" unicode="&#xf2;" horiz-adv-x="549" 
d="M191 632l29 49l252 -122l-28 -51zM161 15.5q-48 27.5 -73.5 75.5t-25.5 107q0 73 33 135t93 98.5t136 36.5q65 0 113 -27.5t73 -75t25 -107.5q0 -10 -2 -30q-7 -66 -41.5 -121t-90.5 -87t-127 -32q-65 0 -113 27.5zM379 75q43 28 67 75t24 103q0 69 -40.5 112.5
t-111.5 43.5q-56 0 -99 -27.5t-67 -74.5t-24 -103q0 -69 40.5 -113t111.5 -44q56 0 99 28z" />
    <glyph glyph-name="oacute" unicode="&#xf3;" horiz-adv-x="549" 
d="M185 561l278 122l18 -49l-279 -124zM161 15.5q-48 27.5 -73.5 75.5t-25.5 107q0 73 33 135t93 98.5t136 36.5q65 0 113 -27.5t73 -75t25 -107.5q0 -10 -2 -30q-7 -66 -41.5 -121t-90.5 -87t-127 -32q-65 0 -113 27.5zM379 75q43 28 67 75t24 103q0 69 -40.5 112.5
t-111.5 43.5q-56 0 -99 -27.5t-67 -74.5t-24 -103q0 -69 40.5 -113t111.5 -44q56 0 99 28z" />
    <glyph glyph-name="ocircumflex" unicode="&#xf4;" horiz-adv-x="549" 
d="M503 542l-40 -39l-123 119l-145 -119l-32 39l184 146zM161 15.5q-48 27.5 -73.5 75.5t-25.5 107q0 73 33 135t93 98.5t136 36.5q65 0 113 -27.5t73 -75t25 -107.5q0 -10 -2 -30q-7 -66 -41.5 -121t-90.5 -87t-127 -32q-65 0 -113 27.5zM379 75q43 28 67 75t24 103
q0 69 -40.5 112.5t-111.5 43.5q-56 0 -99 -27.5t-67 -74.5t-24 -103q0 -69 40.5 -113t111.5 -44q56 0 99 28z" />
    <glyph glyph-name="otilde" unicode="&#xf5;" horiz-adv-x="549" 
d="M371.5 549q-16.5 8 -40.5 23q-20 14 -34 20.5t-29 6.5q-19 0 -38 -9.5t-41 -37.5l-23 35q47 66 106 66q17 0 34 -7.5t39 -22.5q21 -13 36 -20t29 -7q40 0 75 45l24 -34q-45 -66 -102 -66q-19 0 -35.5 8zM161 15.5q-48 27.5 -73.5 75.5t-25.5 107q0 73 33 135t93 98.5
t136 36.5q65 0 113 -27.5t73 -75t25 -107.5q0 -10 -2 -30q-7 -66 -41.5 -121t-90.5 -87t-127 -32q-65 0 -113 27.5zM379 75q43 28 67 75t24 103q0 69 -40.5 112.5t-111.5 43.5q-56 0 -99 -27.5t-67 -74.5t-24 -103q0 -69 40.5 -113t111.5 -44q56 0 99 28z" />
    <glyph glyph-name="odieresis" unicode="&#xf6;" horiz-adv-x="549" 
d="M196.5 561.5q-14.5 14.5 -14.5 36.5q0 26 19 45t45 19q22 0 36.5 -14.5t14.5 -36.5q0 -26 -19 -45t-45 -19q-22 0 -36.5 14.5zM393.5 561.5q-14.5 14.5 -14.5 36.5q0 26 19 45t45 19q22 0 36.5 -14.5t14.5 -36.5q0 -26 -19 -45t-45 -19q-22 0 -36.5 14.5zM161 15.5
q-48 27.5 -73.5 75.5t-25.5 107q0 73 33 135t93 98.5t136 36.5q65 0 113 -27.5t73 -75t25 -107.5q0 -10 -2 -30q-7 -66 -41.5 -121t-90.5 -87t-127 -32q-65 0 -113 27.5zM379 75q43 28 67 75t24 103q0 69 -40.5 112.5t-111.5 43.5q-56 0 -99 -27.5t-67 -74.5t-24 -103
q0 -69 40.5 -113t111.5 -44q56 0 99 28z" />
    <glyph glyph-name="divide" unicode="&#xf7;" horiz-adv-x="504" 
d="M256 417q-15 15 -15 38q0 27 20 46.5t46 19.5q23 0 38 -15t15 -38q0 -27 -19.5 -46.5t-46.5 -19.5q-23 0 -38 15zM91 342h394l-6 -59h-394zM226 124q-15 15 -15 37q0 27 19.5 47t45.5 20q24 0 39 -15.5t15 -38.5q0 -27 -20 -46t-47 -19q-22 0 -37 15z" />
    <glyph glyph-name="oslash" unicode="&#xf8;" horiz-adv-x="549" 
d="M510 363.5q24 -47.5 24 -106.5q0 -73 -33 -134.5t-92 -98t-135 -36.5q-37 0 -69 9l-35 -65l-37 18l33 63q-50 26 -77 75t-27 110q0 73 33 135t93 98.5t136 36.5q44 0 80 -12l28 53l39 -18l-29 -53q44 -27 68 -74.5zM145.5 123.5q17.5 -35.5 50.5 -54.5l178 331
q-24 9 -56 9q-56 0 -99 -27.5t-67 -74.5t-24 -103q0 -45 17.5 -80.5zM379 75q43 28 67 75t24 103q0 41 -15 74t-44 54l-176 -328q19 -6 45 -6q56 0 99 28z" />
    <glyph glyph-name="ugrave" unicode="&#xf9;" horiz-adv-x="563" 
d="M200 632l29 49l252 -122l-28 -51zM135 29q-43 41 -43 119q0 11 2 33l29 275h65l-28 -261q-2 -20 -2 -28q0 -58 28 -90t89 -32q50 0 86 24.5t55.5 63.5t23.5 81l26 242h65l-48 -456h-65l11 103q-23 -51 -70 -83t-107 -32q-74 0 -117 41z" />
    <glyph glyph-name="uacute" unicode="&#xfa;" horiz-adv-x="563" 
d="M193 561l278 122l18 -49l-279 -124zM135 29q-43 41 -43 119q0 11 2 33l29 275h65l-28 -261q-2 -20 -2 -28q0 -58 28 -90t89 -32q50 0 86 24.5t55.5 63.5t23.5 81l26 242h65l-48 -456h-65l11 103q-23 -51 -70 -83t-107 -32q-74 0 -117 41z" />
    <glyph glyph-name="ucircumflex" unicode="&#xfb;" horiz-adv-x="563" 
d="M511 542l-40 -39l-123 119l-145 -119l-32 39l184 146zM135 29q-43 41 -43 119q0 11 2 33l29 275h65l-28 -261q-2 -20 -2 -28q0 -58 28 -90t89 -32q50 0 86 24.5t55.5 63.5t23.5 81l26 242h65l-48 -456h-65l11 103q-23 -51 -70 -83t-107 -32q-74 0 -117 41z" />
    <glyph glyph-name="udieresis" unicode="&#xfc;" horiz-adv-x="563" 
d="M205.5 561.5q-14.5 14.5 -14.5 36.5q0 26 19 45t45 19q22 0 36.5 -14.5t14.5 -36.5q0 -26 -19 -45t-45 -19q-22 0 -36.5 14.5zM402.5 561.5q-14.5 14.5 -14.5 36.5q0 26 19 45t45 19q22 0 36.5 -14.5t14.5 -36.5q0 -26 -19 -45t-45 -19q-22 0 -36.5 14.5zM135 29
q-43 41 -43 119q0 11 2 33l29 275h65l-28 -261q-2 -20 -2 -28q0 -58 28 -90t89 -32q50 0 86 24.5t55.5 63.5t23.5 81l26 242h65l-48 -456h-65l11 103q-23 -51 -70 -83t-107 -32q-74 0 -117 41z" />
    <glyph glyph-name="yacute" unicode="&#xfd;" horiz-adv-x="567" 
d="M189 561l278 122l18 -49l-279 -124zM535 456l-50 -471q-10 -111 -81 -166q-58 -46 -149 -46q-97 0 -148 46q-40 38 -40 101l1 16h65q-2 -49 27.5 -78.5t99.5 -29.5q145 0 162 161l12 112q-26 -50 -73 -81t-109 -31q-159 0 -159 163q0 11 2 39l28 265h64l-27 -253
q-2 -26 -2 -36q0 -58 28 -88.5t92 -30.5q49 0 85 25t57 65t26 85l25 233h64z" />
    <glyph glyph-name="thorn" unicode="&#xfe;" horiz-adv-x="591" 
d="M481.5 442q45.5 -26 70.5 -73.5t25 -109.5q0 -10 -2 -32q-7 -68 -42 -122.5t-90 -85.5t-120 -31q-60 0 -105.5 30t-62.5 80l-33 -313h-64l23 215h-1l48 456h1l26 244h64l-37 -344q28 52 80 82t114 30q60 0 105.5 -26zM416.5 73.5q43.5 26.5 69 73.5t25.5 104
q0 70 -42 114t-110 44q-54 0 -98.5 -26.5t-70.5 -73.5t-26 -104q0 -70 43.5 -114t113.5 -44q52 0 95.5 26.5z" />
    <glyph glyph-name="ydieresis" unicode="&#xff;" horiz-adv-x="567" 
d="M201.5 561.5q-14.5 14.5 -14.5 36.5q0 26 19 45t45 19q22 0 36.5 -14.5t14.5 -36.5q0 -26 -19 -45t-45 -19q-22 0 -36.5 14.5zM398.5 561.5q-14.5 14.5 -14.5 36.5q0 26 19 45t45 19q22 0 36.5 -14.5t14.5 -36.5q0 -26 -19 -45t-45 -19q-22 0 -36.5 14.5zM535 456
l-50 -471q-10 -111 -81 -166q-58 -46 -149 -46q-97 0 -148 46q-40 38 -40 101l1 16h65q-2 -49 27.5 -78.5t99.5 -29.5q145 0 162 161l12 112q-26 -50 -73 -81t-109 -31q-159 0 -159 163q0 11 2 39l28 265h64l-27 -253q-2 -26 -2 -36q0 -58 28 -88.5t92 -30.5q49 0 85 25
t57 65t26 85l25 233h64z" />
    <glyph glyph-name="Amacron" unicode="&#x100;" horiz-adv-x="577" 
d="M548 772h-355l6 53h355zM456 126h-310l-53 -126h-73l312 700h61l164 -700h-73zM444 187l-92 422l-179 -422h271z" />
    <glyph glyph-name="amacron" unicode="&#x101;" horiz-adv-x="591" 
d="M184 608h317l-6 -53h-317zM156.5 15q-46.5 27 -70.5 73.5t-24 106.5q0 10 2 32q7 68 41 123t89 86.5t124 31.5q62 0 105.5 -30.5t59.5 -81.5l11 100h65l-48 -456h-65l10 98q-27 -49 -78 -79.5t-111 -30.5q-64 0 -110.5 27zM383 75q44 28 68 74.5t24 100.5q0 69 -41.5 114
t-114.5 45q-55 0 -98.5 -27.5t-68 -74.5t-24.5 -104q0 -69 41 -112.5t112 -43.5q58 0 102 28z" />
    <glyph glyph-name="Abreve" unicode="&#x102;" horiz-adv-x="577" 
d="M259 772q-42 36 -41 93h55q1 -39 29 -59.5t70 -20.5t74.5 20.5t41.5 59.5h54q-11 -57 -61 -93t-115 -36t-107 36zM456 126h-310l-53 -126h-73l312 700h61l164 -700h-73zM444 187l-92 422l-179 -422h271z" />
    <glyph glyph-name="abreve" unicode="&#x103;" horiz-adv-x="591" 
d="M220.5 547.5q-41.5 38.5 -39.5 106.5h56q-1 -46 27.5 -71t73.5 -25t78.5 25t42.5 71h56q-13 -68 -63 -106.5t-120 -38.5t-111.5 38.5zM156.5 15q-46.5 27 -70.5 73.5t-24 106.5q0 10 2 32q7 68 41 123t89 86.5t124 31.5q62 0 105.5 -30.5t59.5 -81.5l11 100h65l-48 -456
h-65l10 98q-27 -49 -78 -79.5t-111 -30.5q-64 0 -110.5 27zM383 75q44 28 68 74.5t24 100.5q0 69 -41.5 114t-114.5 45q-55 0 -98.5 -27.5t-68 -74.5t-24.5 -104q0 -69 41 -112.5t112 -43.5q58 0 102 28z" />
    <glyph glyph-name="Aogonek" unicode="&#x104;" horiz-adv-x="577" 
d="M573 -148l-6 -49q-20 -7 -37.5 -11t-41.5 -4q-46 0 -72 23t-26 59q0 37 26 71t77 59h-9l-28 126h-310l-53 -126h-73l312 700h61l164 -700q-53 -16 -79 -45.5t-26 -62.5q0 -24 15 -39t43 -15q30 0 63 14zM444 187l-92 422l-179 -422h271z" />
    <glyph glyph-name="aogonek" unicode="&#x105;" horiz-adv-x="591" 
d="M532 -148l-6 -49q-20 -7 -37.5 -11t-41.5 -4q-46 0 -72 23t-26 59q0 37 26 71t77 59h-6l10 98q-27 -49 -78 -79.5t-111 -30.5q-64 0 -110.5 27t-70.5 73.5t-24 106.5q0 10 2 32q7 68 41 123t89 86.5t124 31.5q62 0 105.5 -30.5t59.5 -81.5l11 100h65l-48 -456h5
q-53 -16 -79 -45t-26 -63q0 -24 15 -39t43 -15q30 0 63 14zM383 75q44 28 68 74.5t24 100.5q0 69 -41.5 114t-114.5 45q-55 0 -98.5 -27.5t-68 -74.5t-24.5 -104q0 -69 41 -112.5t112 -43.5q58 0 102 28z" />
    <glyph glyph-name="Cacute" unicode="&#x106;" horiz-adv-x="772" 
d="M359 777l240 114l19 -45l-240 -115zM224.5 26q-73.5 41 -112 113.5t-38.5 163.5q0 23 3 47q11 102 63.5 185t139 131.5t196.5 48.5q135 0 214.5 -65t91.5 -170h-74q-15 80 -75 127t-163 47q-89 0 -159 -40t-112 -109t-51 -155q-2 -28 -2 -41q0 -76 30.5 -135.5t89 -93
t140.5 -33.5q103 0 173 46.5t102 127.5h74q-35 -106 -128 -171t-228 -65q-101 0 -174.5 41z" />
    <glyph glyph-name="cacute" unicode="&#x107;" horiz-adv-x="516" 
d="M175 561l278 122l18 -49l-279 -124zM116.5 45q-54.5 56 -54.5 149q0 10 2 34q7 70 40.5 124t88.5 84t123 30q89 0 140 -44.5t52 -120.5h-65q-4 52 -39 79.5t-95 27.5q-54 0 -95 -26t-64 -73.5t-23 -109.5q0 -70 38.5 -110.5t105.5 -40.5q61 0 101.5 26.5t54.5 77.5h65
q-16 -75 -76.5 -119t-149.5 -44q-95 0 -149.5 56z" />
    <glyph glyph-name="Ccircumflex" unicode="&#x108;" horiz-adv-x="772" 
d="M609 770l-39 -33l-85 86l-104 -86l-31 33l141 113zM224.5 26q-73.5 41 -112 113.5t-38.5 163.5q0 23 3 47q11 102 63.5 185t139 131.5t196.5 48.5q135 0 214.5 -65t91.5 -170h-74q-15 80 -75 127t-163 47q-89 0 -159 -40t-112 -109t-51 -155q-2 -28 -2 -41
q0 -76 30.5 -135.5t89 -93t140.5 -33.5q103 0 173 46.5t102 127.5h74q-35 -106 -128 -171t-228 -65q-101 0 -174.5 41z" />
    <glyph glyph-name="ccircumflex" unicode="&#x109;" horiz-adv-x="516" 
d="M493 542l-40 -39l-123 119l-145 -119l-32 39l184 146zM116.5 45q-54.5 56 -54.5 149q0 10 2 34q7 70 40.5 124t88.5 84t123 30q89 0 140 -44.5t52 -120.5h-65q-4 52 -39 79.5t-95 27.5q-54 0 -95 -26t-64 -73.5t-23 -109.5q0 -70 38.5 -110.5t105.5 -40.5
q61 0 101.5 26.5t54.5 77.5h65q-16 -75 -76.5 -119t-149.5 -44q-95 0 -149.5 56z" />
    <glyph glyph-name="Cdotaccent" unicode="&#x10a;" horiz-adv-x="772" 
d="M442 769.5q-14 14.5 -14 36.5q0 27 18.5 45.5t45.5 18.5q23 0 37.5 -14t14.5 -36q0 -27 -18.5 -46t-45.5 -19q-24 0 -38 14.5zM224.5 26q-73.5 41 -112 113.5t-38.5 163.5q0 23 3 47q11 102 63.5 185t139 131.5t196.5 48.5q135 0 214.5 -65t91.5 -170h-74q-15 80 -75 127
t-163 47q-89 0 -159 -40t-112 -109t-51 -155q-2 -28 -2 -41q0 -76 30.5 -135.5t89 -93t140.5 -33.5q103 0 173 46.5t102 127.5h74q-35 -106 -128 -171t-228 -65q-101 0 -174.5 41z" />
    <glyph glyph-name="cdotaccent" unicode="&#x10b;" horiz-adv-x="516" 
d="M283.5 561.5q-14.5 14.5 -14.5 37.5q0 28 19 48t47 20q24 0 39 -15.5t15 -38.5q0 -28 -19.5 -47t-47.5 -19q-24 0 -38.5 14.5zM116.5 45q-54.5 56 -54.5 149q0 10 2 34q7 70 40.5 124t88.5 84t123 30q89 0 140 -44.5t52 -120.5h-65q-4 52 -39 79.5t-95 27.5
q-54 0 -95 -26t-64 -73.5t-23 -109.5q0 -70 38.5 -110.5t105.5 -40.5q61 0 101.5 26.5t54.5 77.5h65q-16 -75 -76.5 -119t-149.5 -44q-95 0 -149.5 56z" />
    <glyph glyph-name="Ccaron" unicode="&#x10c;" horiz-adv-x="772" 
d="M360 850l39 33l86 -86l103 86l31 -33l-141 -113zM224.5 26q-73.5 41 -112 113.5t-38.5 163.5q0 23 3 47q11 102 63.5 185t139 131.5t196.5 48.5q135 0 214.5 -65t91.5 -170h-74q-15 80 -75 127t-163 47q-89 0 -159 -40t-112 -109t-51 -155q-2 -28 -2 -41
q0 -76 30.5 -135.5t89 -93t140.5 -33.5q103 0 173 46.5t102 127.5h74q-35 -106 -128 -171t-228 -65q-101 0 -174.5 41z" />
    <glyph glyph-name="ccaron" unicode="&#x10d;" horiz-adv-x="516" 
d="M164 654l40 39l120 -119l148 119l32 -39l-187 -146zM116.5 45q-54.5 56 -54.5 149q0 10 2 34q7 70 40.5 124t88.5 84t123 30q89 0 140 -44.5t52 -120.5h-65q-4 52 -39 79.5t-95 27.5q-54 0 -95 -26t-64 -73.5t-23 -109.5q0 -70 38.5 -110.5t105.5 -40.5q61 0 101.5 26.5
t54.5 77.5h65q-16 -75 -76.5 -119t-149.5 -44q-95 0 -149.5 56z" />
    <glyph glyph-name="Dcaron" unicode="&#x10e;" horiz-adv-x="688" 
d="M282 850l39 33l86 -86l103 86l31 -33l-141 -113zM159 700h210q104 0 176.5 -42t109.5 -112.5t37 -155.5q0 -14 -2 -40q-10 -92 -60.5 -172t-137 -129t-197.5 -49h-210zM297 62q93 0 163.5 40.5t111.5 106t49 141.5q2 22 2 33q0 69 -30 127.5t-90 93.5t-146 35h-137
l-60 -577h137z" />
    <glyph glyph-name="dcaron" unicode="&#x10f;" horiz-adv-x="708" 
d="M747.5 690q18.5 -22 18.5 -60q0 -58 -30.5 -92t-78.5 -34q-12 0 -17 1l4 33q5 -1 15 -1q21 0 36.5 11t21.5 30q5 13 5 27q0 7 -2 17q-14 -16 -39 -16q-19 0 -31.5 13t-12.5 33q0 26 17.5 43t44.5 17q30 0 48.5 -22zM521 700h64l-74 -700h-65l10 98q-27 -49 -78 -79.5
t-111 -30.5q-64 0 -110.5 27t-70.5 73.5t-24 106.5q0 10 2 32q7 68 41 123t89 86.5t124 31.5q62 0 105.5 -30.5t59.5 -81.5l11 100h1zM383 75q44 28 68 74.5t24 100.5q0 69 -41.5 114t-114.5 45q-55 0 -98.5 -27.5t-68 -74.5t-24.5 -104q0 -69 41 -112.5t112 -43.5
q58 0 102 28z" />
    <glyph glyph-name="Dcroat" unicode="&#x110;" horiz-adv-x="688" 
d="M545.5 658q72.5 -42 109.5 -112.5t37 -155.5q0 -14 -2 -40q-10 -92 -60.5 -172t-137 -129t-197.5 -49h-210l34 324h-80l6 58h80l34 318h210q104 0 176.5 -42zM460.5 102.5q70.5 40.5 111.5 106t49 141.5q2 22 2 33q0 69 -30 127.5t-90 93.5t-146 35h-137l-27 -257h143
l-6 -58h-143l-27 -262h137q93 0 163.5 40.5z" />
    <glyph glyph-name="dcroat" unicode="&#x111;" horiz-adv-x="586" 
d="M626 542h-58l-57 -542h-65l10 98q-27 -49 -78 -79.5t-111 -30.5q-64 0 -110.5 27t-70.5 73.5t-24 106.5q0 10 2 32q7 68 41 123t89 86.5t124 31.5q62 0 105.5 -30.5t59.5 -81.5l11 100h1l9 86h-177l5 46h177l12 112h64l-12 -112h58zM383 75q44 28 68 74.5t24 100.5
q0 69 -41.5 114t-114.5 45q-55 0 -98.5 -27.5t-68 -74.5t-24.5 -104q0 -69 41 -112.5t112 -43.5q58 0 102 28z" />
    <glyph glyph-name="Emacron" unicode="&#x112;" horiz-adv-x="547" 
d="M198 825h355l-6 -53h-355zM159 700h392l-7 -61h-324l-27 -260h324l-7 -62h-324l-26 -255h324l-7 -62h-392z" />
    <glyph glyph-name="emacron" unicode="&#x113;" horiz-adv-x="515" 
d="M479 555h-317l6 53h317zM495 213h-368q-1 -8 -1 -23q0 -67 38.5 -105.5t105.5 -38.5q51 0 89.5 22t58.5 61h65q-19 -63 -80 -102t-138 -39q-95 0 -149 55.5t-54 150.5q0 11 2 35q7 71 40.5 125.5t87 84t119.5 29.5q88 0 140 -51t52 -134q0 -18 -1 -27q-3 -26 -7 -43z
M440 264q1 6 1 19q0 60 -36 96t-100 36q-67 0 -114 -41.5t-58 -109.5h307z" />
    <glyph glyph-name="Ebreve" unicode="&#x114;" horiz-adv-x="547" 
d="M258 772q-42 36 -41 93h55q1 -39 29 -59.5t70 -20.5t74.5 20.5t41.5 59.5h54q-11 -57 -61 -93t-115 -36t-107 36zM159 700h392l-7 -61h-324l-27 -260h324l-7 -62h-324l-26 -255h324l-7 -62h-392z" />
    <glyph glyph-name="ebreve" unicode="&#x115;" horiz-adv-x="515" 
d="M204.5 547.5q-41.5 38.5 -39.5 106.5h56q-1 -46 27.5 -71t73.5 -25t78.5 25t42.5 71h56q-13 -68 -63 -106.5t-120 -38.5t-111.5 38.5zM495 213h-368q-1 -8 -1 -23q0 -67 38.5 -105.5t105.5 -38.5q51 0 89.5 22t58.5 61h65q-19 -63 -80 -102t-138 -39q-95 0 -149 55.5
t-54 150.5q0 11 2 35q7 71 40.5 125.5t87 84t119.5 29.5q88 0 140 -51t52 -134q0 -18 -1 -27q-3 -26 -7 -43zM440 264q1 6 1 19q0 60 -36 96t-100 36q-67 0 -114 -41.5t-58 -109.5h307z" />
    <glyph glyph-name="Edotaccent" unicode="&#x116;" horiz-adv-x="547" 
d="M329 769.5q-14 14.5 -14 36.5q0 27 18.5 45.5t45.5 18.5q23 0 37.5 -14t14.5 -36q0 -27 -18.5 -46t-45.5 -19q-24 0 -38 14.5zM159 700h392l-7 -61h-324l-27 -260h324l-7 -62h-324l-26 -255h324l-7 -62h-392z" />
    <glyph glyph-name="edotaccent" unicode="&#x117;" horiz-adv-x="515" 
d="M281.5 561.5q-14.5 14.5 -14.5 37.5q0 28 19 48t47 20q24 0 39 -15.5t15 -38.5q0 -28 -19.5 -47t-47.5 -19q-24 0 -38.5 14.5zM495 213h-368q-1 -8 -1 -23q0 -67 38.5 -105.5t105.5 -38.5q51 0 89.5 22t58.5 61h65q-19 -63 -80 -102t-138 -39q-95 0 -149 55.5t-54 150.5
q0 11 2 35q7 71 40.5 125.5t87 84t119.5 29.5q88 0 140 -51t52 -134q0 -18 -1 -27q-3 -26 -7 -43zM440 264q1 6 1 19q0 60 -36 96t-100 36q-67 0 -114 -41.5t-58 -109.5h307z" />
    <glyph glyph-name="Eogonek" unicode="&#x118;" horiz-adv-x="547" 
d="M493 -148l-6 -49q-20 -7 -37.5 -11t-41.5 -4q-46 0 -72 23t-26 59q0 37 26 71t77 59h-328l74 700h392l-7 -61h-324l-27 -260h324l-7 -62h-324l-26 -255h324l-7 -62q-53 -16 -79 -45.5t-26 -62.5q0 -24 15 -39t43 -15q30 0 63 14z" />
    <glyph glyph-name="eogonek" unicode="&#x119;" horiz-adv-x="515" 
d="M495 213h-368q-1 -8 -1 -23q0 -67 38.5 -105.5t105.5 -38.5q51 0 89.5 22t58.5 61h65q-14 -45 -51 -79t-87 -50q-53 -16 -79 -45.5t-26 -62.5q0 -24 15 -39t43 -15q30 0 63 14l-6 -49q-20 -7 -37.5 -11t-41.5 -4q-46 0 -72 23t-26 59q0 69 81 118q-93 2 -145 57.5
t-52 148.5q0 11 2 35q7 71 40.5 125.5t87 84t119.5 29.5q88 0 140 -51t52 -134q0 -18 -1 -27q-3 -26 -7 -43zM440 264q1 6 1 19q0 60 -36 96t-100 36q-67 0 -114 -41.5t-58 -109.5h307z" />
    <glyph glyph-name="Ecaron" unicode="&#x11a;" horiz-adv-x="547" 
d="M247 850l39 33l86 -86l103 86l31 -33l-141 -113zM159 700h392l-7 -61h-324l-27 -260h324l-7 -62h-324l-26 -255h324l-7 -62h-392z" />
    <glyph glyph-name="ecaron" unicode="&#x11b;" horiz-adv-x="515" 
d="M315 508l-153 146l40 39l120 -119l148 119l32 -39zM495 213h-368q-1 -8 -1 -23q0 -67 38.5 -105.5t105.5 -38.5q51 0 89.5 22t58.5 61h65q-19 -63 -80 -102t-138 -39q-95 0 -149 55.5t-54 150.5q0 11 2 35q7 71 40.5 125.5t87 84t119.5 29.5q88 0 140 -51t52 -134
q0 -18 -1 -27q-3 -26 -7 -43zM440 264q1 6 1 19q0 60 -36 96t-100 36q-67 0 -114 -41.5t-58 -109.5h307z" />
    <glyph glyph-name="Gcircumflex" unicode="&#x11c;" horiz-adv-x="824" 
d="M381 737l-31 33l141 113l118 -113l-39 -33l-85 86zM830 267h-77q-34 -131 -126 -206.5t-231 -75.5q-101 0 -174 41t-110.5 112t-37.5 162q0 24 3 48q11 102 62 185.5t137 132.5t197 49q77 0 138 -26.5t97.5 -73t41.5 -106.5h-73q-12 66 -68 105.5t-142 39.5
q-91 0 -160.5 -40t-109.5 -109.5t-49 -156.5q-2 -15 -2 -43q0 -74 30 -132.5t88 -92t139 -33.5q110 0 180 57.5t99 162.5h-204l7 62h352z" />
    <glyph glyph-name="gcircumflex" unicode="&#x11d;" horiz-adv-x="591" 
d="M199 503l-32 39l184 146l156 -146l-40 -39l-123 119zM559 455l-48 -451q-6 -62 -30.5 -109.5t-65.5 -76.5q-61 -45 -162 -45q-103 0 -159 46q-27 22 -40 52.5t-10 64.5h67q-2 -47 36 -77.5t111 -30.5q84 0 131.5 43t56.5 128l10 99q-28 -51 -79 -80.5t-110 -29.5
q-62 0 -108.5 27t-71.5 74.5t-25 107.5q0 10 2 30q7 68 42 123t90.5 86.5t121.5 31.5q61 0 105 -29.5t60 -82.5l11 99h65zM380 74.5q44 27.5 69.5 74t25.5 101.5q0 70 -42.5 114.5t-113.5 44.5q-53 0 -97 -27t-69 -74t-25 -104q0 -69 42.5 -113t110.5 -44q55 0 99 27.5z" />
    <glyph glyph-name="Gbreve" unicode="&#x11e;" horiz-adv-x="824" 
d="M370 772q-42 36 -41 93h55q1 -39 29 -59.5t70 -20.5t74.5 20.5t41.5 59.5h54q-11 -57 -61 -93t-115 -36t-107 36zM830 267h-77q-34 -131 -126 -206.5t-231 -75.5q-101 0 -174 41t-110.5 112t-37.5 162q0 24 3 48q11 102 62 185.5t137 132.5t197 49q77 0 138 -26.5
t97.5 -73t41.5 -106.5h-73q-12 66 -68 105.5t-142 39.5q-91 0 -160.5 -40t-109.5 -109.5t-49 -156.5q-2 -15 -2 -43q0 -74 30 -132.5t88 -92t139 -33.5q110 0 180 57.5t99 162.5h-204l7 62h352z" />
    <glyph glyph-name="gbreve" unicode="&#x11f;" horiz-adv-x="591" 
d="M221.5 547.5q-41.5 38.5 -39.5 106.5h56q-1 -46 27.5 -71t73.5 -25t78.5 25t42.5 71h56q-13 -68 -63 -106.5t-120 -38.5t-111.5 38.5zM559 455l-48 -451q-6 -62 -30.5 -109.5t-65.5 -76.5q-61 -45 -162 -45q-103 0 -159 46q-27 22 -40 52.5t-10 64.5h67q-2 -47 36 -77.5
t111 -30.5q84 0 131.5 43t56.5 128l10 99q-28 -51 -79 -80.5t-110 -29.5q-62 0 -108.5 27t-71.5 74.5t-25 107.5q0 10 2 30q7 68 42 123t90.5 86.5t121.5 31.5q61 0 105 -29.5t60 -82.5l11 99h65zM380 74.5q44 27.5 69.5 74t25.5 101.5q0 70 -42.5 114.5t-113.5 44.5
q-53 0 -97 -27t-69 -74t-25 -104q0 -69 42.5 -113t110.5 -44q55 0 99 27.5z" />
    <glyph glyph-name="Gdotaccent" unicode="&#x120;" horiz-adv-x="824" 
d="M441 769.5q-14 14.5 -14 36.5q0 27 18.5 45.5t45.5 18.5q23 0 37.5 -14t14.5 -36q0 -27 -18.5 -46t-45.5 -19q-24 0 -38 14.5zM830 267h-77q-34 -131 -126 -206.5t-231 -75.5q-101 0 -174 41t-110.5 112t-37.5 162q0 24 3 48q11 102 62 185.5t137 132.5t197 49
q77 0 138 -26.5t97.5 -73t41.5 -106.5h-73q-12 66 -68 105.5t-142 39.5q-91 0 -160.5 -40t-109.5 -109.5t-49 -156.5q-2 -15 -2 -43q0 -74 30 -132.5t88 -92t139 -33.5q110 0 180 57.5t99 162.5h-204l7 62h352z" />
    <glyph glyph-name="gdotaccent" unicode="&#x121;" horiz-adv-x="591" 
d="M298.5 561.5q-14.5 14.5 -14.5 37.5q0 28 19 48t47 20q24 0 39 -15.5t15 -38.5q0 -28 -19.5 -47t-47.5 -19q-24 0 -38.5 14.5zM559 455l-48 -451q-6 -62 -30.5 -109.5t-65.5 -76.5q-61 -45 -162 -45q-103 0 -159 46q-27 22 -40 52.5t-10 64.5h67q-2 -47 36 -77.5
t111 -30.5q84 0 131.5 43t56.5 128l10 99q-28 -51 -79 -80.5t-110 -29.5q-62 0 -108.5 27t-71.5 74.5t-25 107.5q0 10 2 30q7 68 42 123t90.5 86.5t121.5 31.5q61 0 105 -29.5t60 -82.5l11 99h65zM380 74.5q44 27.5 69.5 74t25.5 101.5q0 70 -42.5 114.5t-113.5 44.5
q-53 0 -97 -27t-69 -74t-25 -104q0 -69 42.5 -113t110.5 -44q55 0 99 27.5z" />
    <glyph glyph-name="Gcommaaccent" unicode="&#x122;" horiz-adv-x="824" 
d="M830 267h-77q-34 -131 -126 -206.5t-231 -75.5q-101 0 -174 41t-110.5 112t-37.5 162q0 24 3 48q11 102 62 185.5t137 132.5t197 49q77 0 138 -26.5t97.5 -73t41.5 -106.5h-73q-12 66 -68 105.5t-142 39.5q-91 0 -160.5 -40t-109.5 -109.5t-49 -156.5q-2 -15 -2 -43
q0 -74 30 -132.5t88 -92t139 -33.5q110 0 180 57.5t99 162.5h-204l7 62h352zM435 -46.5q15 -16.5 15 -44.5l-1 -12q-5 -49 -33.5 -74.5t-76.5 -26.5l2 27q25 0 41 10t22 29q8 11 8 30q-4 -6 -11.5 -10t-15.5 -4q-20 0 -31.5 11t-11.5 28q0 22 15.5 37.5t37.5 15.5
q25 0 40 -16.5z" />
    <glyph glyph-name="gcommaaccent" unicode="&#x123;" horiz-adv-x="591" 
d="M289 537.5q-15 18.5 -15 47.5q0 49 30.5 77.5t83.5 29.5l-3 -28q-25 0 -41.5 -9t-22.5 -25q-9 -15 -9 -31q9 14 29 14q18 0 29.5 -12t11.5 -30q0 -21 -15.5 -36.5t-38.5 -15.5q-24 0 -39 18.5zM559 455l-48 -451q-6 -62 -30.5 -109.5t-65.5 -76.5q-61 -45 -162 -45
q-103 0 -159 46q-27 22 -40 52.5t-10 64.5h67q-2 -47 36 -77.5t111 -30.5q84 0 131.5 43t56.5 128l10 99q-28 -51 -79 -80.5t-110 -29.5q-62 0 -108.5 27t-71.5 74.5t-25 107.5q0 10 2 30q7 68 42 123t90.5 86.5t121.5 31.5q61 0 105 -29.5t60 -82.5l11 99h65zM380 74.5
q44 27.5 69.5 74t25.5 101.5q0 70 -42.5 114.5t-113.5 44.5q-53 0 -97 -27t-69 -74t-25 -104q0 -69 42.5 -113t110.5 -44q55 0 99 27.5z" />
    <glyph glyph-name="Hcircumflex" unicode="&#x124;" horiz-adv-x="667" 
d="M542 770l-39 -33l-85 86l-104 -86l-31 33l141 113zM159 700h68l-34 -321h361l34 321h68l-74 -700h-68l33 317h-361l-33 -317h-68z" />
    <glyph glyph-name="hcircumflex" unicode="&#x125;" horiz-adv-x="566" 
d="M200 814l-80 -66l-29 35l115 91l96 -91l-35 -35zM483 427.5q39 -40.5 39 -116.5q0 -10 -2 -36l-29 -275h-64l26 249q2 26 2 38q0 62 -28.5 93t-86.5 31q-73 0 -116 -48.5t-52 -130.5l-24 -232h-65l74 700h64l-26 -244h1l-11 -105q22 53 69 85t113 32q77 0 116 -40.5z" />
    <glyph glyph-name="Hbar" unicode="&#x126;" horiz-adv-x="667" 
d="M671 511h-35l-54 -511h-68l33 317h-361l-33 -317h-68l54 511h-35l5 46h35l15 143h68l-15 -143h361l15 143h68l-15 -143h35zM568 511h-361l-14 -132h361z" />
    <glyph glyph-name="hbar" unicode="&#x127;" horiz-adv-x="566" 
d="M483 427.5q39 -40.5 39 -116.5q0 -10 -2 -36l-29 -275h-64l26 249q2 26 2 38q0 62 -28.5 93t-86.5 31q-73 0 -116 -48.5t-52 -130.5l-24 -232h-65l57 542h-60l5 46h60l12 112h64l-12 -112h175l-5 -46h-175l-9 -86h1l-11 -105q22 53 69 85t113 32q77 0 116 -40.5z" />
    <glyph glyph-name="Itilde" unicode="&#x128;" horiz-adv-x="238" 
d="M215 769.5q-9 5.5 -21 16.5q-7 8 -13.5 12.5t-14.5 4.5q-11 0 -20.5 -7t-20.5 -26l-18 29q24 50 65 50q15 0 25 -6t19 -16q10 -9 15.5 -12.5t13.5 -3.5q24 0 38 30l19 -28q-23 -49 -64 -49q-14 0 -23 5.5zM159 700h68l-74 -700h-68z" />
    <glyph glyph-name="itilde" unicode="&#x129;" horiz-adv-x="225" 
d="M182 538.5q-9 6.5 -19 19.5q-10 11 -15.5 15.5t-14.5 4.5q-12 0 -21 -6.5t-21 -28.5l-16 33q15 32 33 45t34 13q15 0 25.5 -7t22.5 -20q9 -10 15 -14.5t14 -4.5q11 0 19 6t18 24l16 -32q-21 -54 -67 -54q-14 0 -23 6.5zM128 456h65l-48 -456h-65z" />
    <glyph glyph-name="Imacron" unicode="&#x12a;" horiz-adv-x="238" 
d="M119 820h174l-5 -48h-174zM159 700h68l-74 -700h-68z" />
    <glyph glyph-name="imacron" unicode="&#x12b;" horiz-adv-x="225" 
d="M83 608h188l-6 -53h-188zM128 456h65l-48 -456h-65z" />
    <glyph glyph-name="Ibreve" unicode="&#x12c;" horiz-adv-x="238" 
d="M128.5 765q-27.5 24 -27.5 77q0 12 1 18h52q-2 -34 11.5 -52t36.5 -18t40.5 18t22.5 52h52q-7 -63 -40.5 -91t-79.5 -28q-41 0 -68.5 24zM159 700h68l-74 -700h-68z" />
    <glyph glyph-name="ibreve" unicode="&#x12d;" horiz-adv-x="225" 
d="M101 542.5q-25 24.5 -25 76.5q0 14 1 21h47q-5 -78 48 -78q52 0 64 78h47q-8 -64 -39 -93t-77 -29q-41 0 -66 24.5zM128 456h65l-48 -456h-65z" />
    <glyph glyph-name="Iogonek" unicode="&#x12e;" horiz-adv-x="238" 
d="M169 -148l-6 -49q-20 -7 -37.5 -11t-41.5 -4q-47 0 -73 23.5t-26 59.5t26.5 70t77.5 59h-4l74 700h68l-74 -700q-53 -16 -79 -45.5t-26 -62.5q0 -24 15 -39t43 -15q30 0 63 14z" />
    <glyph glyph-name="iogonek" unicode="&#x12f;" horiz-adv-x="225" 
d="M131.5 561.5q-14.5 14.5 -14.5 37.5q0 28 19 48t47 20q24 0 39 -15.5t15 -38.5q0 -28 -19.5 -47t-47.5 -19q-24 0 -38.5 14.5zM161 -148l-6 -49q-20 -7 -37.5 -11t-41.5 -4q-47 0 -73 23.5t-26 59.5t26.5 70t77.5 59h-1l48 456h65l-48 -456q-53 -16 -79 -45.5t-26 -62.5
q0 -24 15 -39t43 -15q30 0 63 14z" />
    <glyph glyph-name="Idotaccent" unicode="&#x130;" horiz-adv-x="238" 
d="M160 769.5q-14 14.5 -14 36.5q0 27 18.5 45.5t45.5 18.5q23 0 37.5 -14t14.5 -36q0 -27 -18.5 -46t-45.5 -19q-24 0 -38 14.5zM159 700h68l-74 -700h-68z" />
    <glyph glyph-name="dotlessi" unicode="&#x131;" horiz-adv-x="225" 
d="M128 456h65l-48 -456h-65z" />
    <glyph glyph-name="IJ" unicode="&#x132;" horiz-adv-x="774" 
d="M159 700h68l-74 -700h-68zM340 37.5q-56 52.5 -56 145.5q0 10 2 34h68q-2 -18 -2 -27q0 -68 39.5 -105.5t103.5 -37.5q70 0 116 46.5t54 127.5l51 479h68l-51 -479q-11 -110 -77.5 -173t-167.5 -63q-92 0 -148 52.5z" />
    <glyph glyph-name="ij" unicode="&#x133;" horiz-adv-x="452" 
d="M131.5 561.5q-14.5 14.5 -14.5 37.5q0 28 19 48t47 20q24 0 39 -15.5t15 -38.5q0 -28 -19.5 -47t-47.5 -19q-24 0 -38.5 14.5zM359.5 561.5q-14.5 14.5 -14.5 37.5q0 28 19 48t47 20q24 0 39 -15.5t15 -38.5q0 -28 -19.5 -47t-47.5 -19q-24 0 -38.5 14.5zM128 456h65
l-48 -456h-65zM174 -210l6 60q23 -10 51 -10q29 0 46.5 20t21.5 57l57 539h65l-58 -555q-6 -58 -39.5 -90t-86.5 -32q-41 0 -63 11z" />
    <glyph glyph-name="Jcircumflex" unicode="&#x134;" horiz-adv-x="537" 
d="M523 814l-80 -66l-29 35l115 91l96 -91l-35 -35zM102 37.5q-56 52.5 -56 145.5q0 10 2 34h68q-2 -18 -2 -27q0 -68 39.5 -105.5t103.5 -37.5q70 0 116 46.5t54 127.5l51 479h68l-51 -479q-11 -110 -77.5 -173t-167.5 -63q-92 0 -148 52.5z" />
    <glyph glyph-name="jcircumflex" unicode="&#x135;" horiz-adv-x="228" 
d="M62 560l123 108l102 -108l-41 -38l-68 76l-83 -76zM-51 -210l6 60q23 -10 51 -10q29 0 46.5 20t21.5 57l57 539h65l-58 -555q-6 -58 -39.5 -90t-86.5 -32q-41 0 -63 11z" />
    <glyph glyph-name="Kcommaaccent" unicode="&#x136;" horiz-adv-x="585" 
d="M256 353l311 -353h-89l-290 335l-35 -335h-68l74 700h68l-36 -335l362 335h88zM322 -46.5q15 -16.5 15 -44.5l-1 -12q-5 -49 -33.5 -74.5t-76.5 -26.5l2 27q25 0 41 10t22 29q8 11 8 30q-4 -6 -11.5 -10t-15.5 -4q-20 0 -31.5 11t-11.5 28q0 22 15.5 37.5t37.5 15.5
q25 0 40 -16.5z" />
    <glyph glyph-name="kcommaaccent" unicode="&#x137;" horiz-adv-x="492" 
d="M242 234l220 -234h-87l-207 220l-23 -220h-65l48 456h1l26 244h64l-49 -459l256 215h84zM292 -46.5q15 -16.5 15 -44.5l-1 -12q-5 -49 -33.5 -74.5t-76.5 -26.5l2 27q25 0 41 10t22 29q8 11 8 30q-4 -6 -11.5 -10t-15.5 -4q-20 0 -31.5 11t-11.5 28q0 22 15.5 37.5
t37.5 15.5q25 0 40 -16.5z" />
    <glyph glyph-name="kgreenlandic" unicode="&#x138;" horiz-adv-x="492" 
d="M242 234l220 -234h-87l-207 220l-23 -220h-65l48 456h65l-23 -215l256 215h84z" />
    <glyph glyph-name="Lacute" unicode="&#x139;" horiz-adv-x="510" 
d="M137 788l160 92l26 -44l-161 -92zM159 700h68l-67 -636h315l-7 -64h-383z" />
    <glyph glyph-name="lacute" unicode="&#x13a;" horiz-adv-x="225" 
d="M105 788l160 92l26 -44l-161 -92zM154 700h65l-74 -700h-65z" />
    <glyph glyph-name="Lcommaaccent" unicode="&#x13b;" horiz-adv-x="510" 
d="M159 700h68l-67 -636h315l-7 -64h-383zM228 -177q25 0 41 10t22 29q8 11 8 30q-4 -6 -11.5 -10t-15.5 -4q-20 0 -31.5 11t-11.5 28q0 22 15.5 37.5t37.5 15.5q25 0 40 -16.5t15 -44.5l-1 -12q-5 -49 -33.5 -74.5t-76.5 -26.5z" />
    <glyph glyph-name="lcommaaccent" unicode="&#x13c;" horiz-adv-x="225" 
d="M154 700h65l-74 -700h-65zM54 -177q25 0 41 10t22 29q8 11 8 30q-4 -6 -11.5 -10t-15.5 -4q-20 0 -31.5 11t-11.5 28q0 22 15.5 37.5t37.5 15.5q25 0 40 -16.5t15 -44.5l-1 -12q-5 -49 -33.5 -74.5t-76.5 -26.5z" />
    <glyph glyph-name="Lcaron" unicode="&#x13d;" horiz-adv-x="510" 
d="M367 505l4 33q5 -1 15 -1q21 0 36.5 11t21.5 30q5 13 5 27q0 7 -2 17q-14 -16 -39 -16q-19 0 -31.5 13t-12.5 33q0 26 17.5 43t44.5 17q30 0 48.5 -22t18.5 -60q0 -58 -30.5 -92t-78.5 -34q-12 0 -17 1zM159 700h68l-67 -636h315l-7 -64h-383z" />
    <glyph glyph-name="lcaron" unicode="&#x13e;" horiz-adv-x="355" 
d="M287 505l4 33q5 -1 15 -1q21 0 36.5 11t21.5 30q5 13 5 27q0 7 -2 17q-14 -16 -39 -16q-19 0 -31.5 13t-12.5 33q0 26 17.5 43t44.5 17q30 0 48.5 -22t18.5 -60q0 -58 -30.5 -92t-78.5 -34q-12 0 -17 1zM154 700h65l-74 -700h-65z" />
    <glyph glyph-name="Ldot" unicode="&#x13f;" horiz-adv-x="510" 
d="M159 700h68l-67 -636h315l-7 -64h-383zM358 339.5q-15 15.5 -15 39.5q0 28 20 48t47 20q25 0 40.5 -15.5t15.5 -39.5q0 -28 -20.5 -48t-48.5 -20q-24 0 -39 15.5z" />
    <glyph glyph-name="ldot" unicode="&#x140;" horiz-adv-x="338" 
d="M154 700h65l-74 -700h-65zM260 304.5q-15 15.5 -15 39.5q0 28 20 48t47 20q25 0 40.5 -15.5t15.5 -39.5q0 -28 -20.5 -48t-48.5 -20q-24 0 -39 15.5z" />
    <glyph glyph-name="Lslash" unicode="&#x141;" horiz-adv-x="497" 
d="M475 64l-7 -64h-383l30 282l-68 -31l6 57l68 31l38 361h68l-35 -329l166 76l-6 -57l-166 -76l-26 -250h315z" />
    <glyph glyph-name="lslash" unicode="&#x142;" horiz-adv-x="225" 
d="M260 396l-81 -41l-37 -355h-65l34 319l-74 -38l5 53l74 38l35 328h65l-31 -293l80 41z" />
    <glyph glyph-name="Nacute" unicode="&#x143;" horiz-adv-x="661" 
d="M289 777l240 114l19 -45l-240 -115zM159 700h73l291 -588l62 588h65l-74 -700h-73l-291 589l-62 -589h-65z" />
    <glyph glyph-name="nacute" unicode="&#x144;" horiz-adv-x="563" 
d="M190 561l278 122l18 -49l-279 -124zM128 456h65l-11 -105q22 53 69 85t113 32q77 0 116 -40.5t39 -116.5q0 -10 -2 -36l-29 -275h-64l26 249q2 26 2 38q0 62 -28.5 93t-86.5 31q-73 0 -116 -48.5t-52 -130.5l-24 -232h-65z" />
    <glyph glyph-name="Ncommaaccent" unicode="&#x145;" horiz-adv-x="661" 
d="M159 700h73l291 -588l62 588h65l-74 -700h-73l-291 589l-62 -589h-65zM272 -177q25 0 41 10t22 29q8 11 8 30q-4 -6 -11.5 -10t-15.5 -4q-20 0 -31.5 11t-11.5 28q0 22 15.5 37.5t37.5 15.5q25 0 40 -16.5t15 -44.5l-1 -12q-5 -49 -33.5 -74.5t-76.5 -26.5z" />
    <glyph glyph-name="ncommaaccent" unicode="&#x146;" horiz-adv-x="563" 
d="M128 456h65l-11 -105q22 53 69 85t113 32q77 0 116 -40.5t39 -116.5q0 -10 -2 -36l-29 -275h-64l26 249q2 26 2 38q0 62 -28.5 93t-86.5 31q-73 0 -116 -48.5t-52 -130.5l-24 -232h-65zM221 -177q25 0 41 10t22 29q8 11 8 30q-4 -6 -11.5 -10t-15.5 -4q-20 0 -31.5 11
t-11.5 28q0 22 15.5 37.5t37.5 15.5q25 0 40 -16.5t15 -44.5l-1 -12q-5 -49 -33.5 -74.5t-76.5 -26.5z" />
    <glyph glyph-name="Ncaron" unicode="&#x147;" horiz-adv-x="661" 
d="M290 850l39 33l86 -86l103 86l31 -33l-141 -113zM159 700h73l291 -588l62 588h65l-74 -700h-73l-291 589l-62 -589h-65z" />
    <glyph glyph-name="ncaron" unicode="&#x148;" horiz-adv-x="563" 
d="M180 654l40 39l120 -119l148 119l32 -39l-187 -146zM128 456h65l-11 -105q22 53 69 85t113 32q77 0 116 -40.5t39 -116.5q0 -10 -2 -36l-29 -275h-64l26 249q2 26 2 38q0 62 -28.5 93t-86.5 31q-73 0 -116 -48.5t-52 -130.5l-24 -232h-65z" />
    <glyph glyph-name="napostrophe" unicode="&#x149;" horiz-adv-x="581" 
d="M90 505l4 33q5 -1 15 -1q21 0 36.5 11t21.5 30q5 13 5 27q0 7 -2 17q-14 -16 -39 -16q-19 0 -31.5 13t-12.5 33q0 26 17.5 43t44.5 17q30 0 48.5 -22t18.5 -60q0 -58 -30.5 -92t-78.5 -34q-12 0 -17 1zM146 456h65l-11 -105q22 53 69 85t113 32q77 0 116 -40.5t39 -116.5
q0 -10 -2 -36l-29 -275h-64l26 249q2 26 2 38q0 62 -28.5 93t-86.5 31q-73 0 -116 -48.5t-52 -130.5l-24 -232h-65z" />
    <glyph glyph-name="Eng" unicode="&#x14a;" horiz-adv-x="661" 
d="M650 700l-83 -789q-7 -63 -44 -97.5t-97 -34.5q-41 0 -64 11l7 63q21 -10 54 -10q69 0 79 87l7 70h-6l-291 589l-62 -589h-65l74 700h73l291 -588l62 588h65z" />
    <glyph glyph-name="eng" unicode="&#x14b;" horiz-adv-x="563" 
d="M494 46l-15 -145q-6 -58 -39.5 -90t-86.5 -32q-41 0 -63 11l6 60q24 -10 51 -10q29 0 46.5 20t21.5 57l35 332q2 26 2 38q0 62 -28.5 93t-86.5 31q-73 0 -116 -48.5t-52 -130.5l-24 -232h-65l48 456h65l-11 -105q22 53 69 85t113 32q77 0 116 -40.5t39 -116.5
q0 -10 -2 -36l-24 -229h1z" />
    <glyph glyph-name="Omacron" unicode="&#x14c;" horiz-adv-x="800" 
d="M310 825h355l-6 -53h-355zM224 28q-73 43 -111 116t-38 162q0 29 2 44q10 98 62.5 181.5t139.5 133.5t196 50q101 0 174 -43t111.5 -117t38.5 -163q0 -14 -2 -42q-11 -98 -63.5 -181.5t-139.5 -133.5t-196 -50q-101 0 -174 43zM563.5 88.5q70.5 41.5 112.5 110.5t51 151
q2 26 2 38q0 74 -30.5 134.5t-89 96t-140.5 35.5q-89 0 -159 -41.5t-112 -111t-50 -151.5q-2 -26 -2 -39q0 -73 30.5 -133t89 -95.5t139.5 -35.5q88 0 158.5 41.5z" />
    <glyph glyph-name="omacron" unicode="&#x14d;" horiz-adv-x="549" 
d="M180 608h317l-6 -53h-317zM161 15.5q-48 27.5 -73.5 75.5t-25.5 107q0 73 33 135t93 98.5t136 36.5q65 0 113 -27.5t73 -75t25 -107.5q0 -10 -2 -30q-7 -66 -41.5 -121t-90.5 -87t-127 -32q-65 0 -113 27.5zM379 75q43 28 67 75t24 103q0 69 -40.5 112.5t-111.5 43.5
q-56 0 -99 -27.5t-67 -74.5t-24 -103q0 -69 40.5 -113t111.5 -44q56 0 99 28z" />
    <glyph glyph-name="Obreve" unicode="&#x14e;" horiz-adv-x="800" 
d="M370 772q-42 36 -41 93h55q1 -39 29 -59.5t70 -20.5t74.5 20.5t41.5 59.5h54q-11 -57 -61 -93t-115 -36t-107 36zM224 28q-73 43 -111 116t-38 162q0 29 2 44q10 98 62.5 181.5t139.5 133.5t196 50q101 0 174 -43t111.5 -117t38.5 -163q0 -14 -2 -42
q-11 -98 -63.5 -181.5t-139.5 -133.5t-196 -50q-101 0 -174 43zM563.5 88.5q70.5 41.5 112.5 110.5t51 151q2 26 2 38q0 74 -30.5 134.5t-89 96t-140.5 35.5q-89 0 -159 -41.5t-112 -111t-50 -151.5q-2 -26 -2 -39q0 -73 30.5 -133t89 -95.5t139.5 -35.5q88 0 158.5 41.5z
" />
    <glyph glyph-name="obreve" unicode="&#x14f;" horiz-adv-x="549" 
d="M216.5 547.5q-41.5 38.5 -39.5 106.5h56q-1 -46 27.5 -71t73.5 -25t78.5 25t42.5 71h56q-13 -68 -63 -106.5t-120 -38.5t-111.5 38.5zM161 15.5q-48 27.5 -73.5 75.5t-25.5 107q0 73 33 135t93 98.5t136 36.5q65 0 113 -27.5t73 -75t25 -107.5q0 -10 -2 -30
q-7 -66 -41.5 -121t-90.5 -87t-127 -32q-65 0 -113 27.5zM379 75q43 28 67 75t24 103q0 69 -40.5 112.5t-111.5 43.5q-56 0 -99 -27.5t-67 -74.5t-24 -103q0 -69 40.5 -113t111.5 -44q56 0 99 28z" />
    <glyph glyph-name="Ohungarumlaut" unicode="&#x150;" horiz-adv-x="800" 
d="M348 753l143 132l55 -24l-162 -125zM532 753l143 132l55 -25l-162 -125zM224 28q-73 43 -111 116t-38 162q0 29 2 44q10 98 62.5 181.5t139.5 133.5t196 50q101 0 174 -43t111.5 -117t38.5 -163q0 -14 -2 -42q-11 -98 -63.5 -181.5t-139.5 -133.5t-196 -50
q-101 0 -174 43zM563.5 88.5q70.5 41.5 112.5 110.5t51 151q2 26 2 38q0 74 -30.5 134.5t-89 96t-140.5 35.5q-89 0 -159 -41.5t-112 -111t-50 -151.5q-2 -26 -2 -39q0 -73 30.5 -133t89 -95.5t139.5 -35.5q88 0 158.5 41.5z" />
    <glyph glyph-name="ohungarumlaut" unicode="&#x151;" horiz-adv-x="549" 
d="M193 521l142 166l54 -28l-163 -156zM378 521l142 166l54 -28l-163 -157zM161 15.5q-48 27.5 -73.5 75.5t-25.5 107q0 73 33 135t93 98.5t136 36.5q65 0 113 -27.5t73 -75t25 -107.5q0 -10 -2 -30q-7 -66 -41.5 -121t-90.5 -87t-127 -32q-65 0 -113 27.5zM379 75
q43 28 67 75t24 103q0 69 -40.5 112.5t-111.5 43.5q-56 0 -99 -27.5t-67 -74.5t-24 -103q0 -69 40.5 -113t111.5 -44q56 0 99 28z" />
    <glyph glyph-name="OE" unicode="&#x152;" horiz-adv-x="865" 
d="M572 639l-27 -260h290l-7 -62h-290l-26 -255h290l-7 -62h-425q-92 0 -159 41t-101.5 110.5t-34.5 154.5q0 29 2 44q10 94 58.5 174t128.5 128t180 48h425l-7 -61h-290zM445 62l60 577h-68q-79 0 -142 -39.5t-101 -105.5t-46 -144q-2 -26 -2 -38q0 -69 27 -126t79 -90.5
t125 -33.5h68z" />
    <glyph glyph-name="oe" unicode="&#x153;" horiz-adv-x="920" 
d="M900 213h-368q-1 -8 -1 -23q0 -67 38.5 -105.5t105.5 -38.5q51 0 89.5 22t58.5 61h65q-19 -63 -80 -102t-138 -39q-67 0 -114.5 28.5t-70.5 80.5q-35 -50 -89.5 -79.5t-121.5 -29.5q-65 0 -113 27.5t-73.5 75.5t-25.5 107q0 73 33 135t93 98.5t136 36.5q67 0 116 -29
t73 -80q33 52 86 80.5t117 28.5q88 0 140 -51t52 -134q0 -18 -1 -27q-3 -26 -7 -43zM845 264q1 6 1 19q0 60 -36 96t-100 36q-67 0 -114 -41.5t-58 -109.5h307zM379 75q43 28 67 75t24 103q0 69 -40.5 112.5t-111.5 43.5q-56 0 -99 -27.5t-67 -74.5t-24 -103
q0 -69 40.5 -113t111.5 -44q56 0 99 28z" />
    <glyph glyph-name="Racute" unicode="&#x154;" horiz-adv-x="605" 
d="M277 731l-19 46l240 114l19 -45zM559 328q-51 -70 -131 -94l123 -234h-78l-117 223h-4h-176l-23 -223h-68l74 700h244q61 0 108 -26.5t73 -74t26 -108.5q0 -93 -51 -163zM183 285h173q50 0 93 26t68 71.5t25 100.5q0 69 -41.5 112.5t-107.5 43.5h-173z" />
    <glyph glyph-name="racute" unicode="&#x155;" horiz-adv-x="355" 
d="M79 560l278 122l18 -49l-280 -124zM128 456h65l-13 -120q21 64 65 96.5t96 32.5q20 0 40 -4l-6 -60q-21 3 -43 3q-73 0 -115.5 -61t-50.5 -146l-21 -197h-65z" />
    <glyph glyph-name="Rcommaaccent" unicode="&#x156;" horiz-adv-x="605" 
d="M559 328q-51 -70 -131 -94l123 -234h-78l-117 223h-4h-176l-23 -223h-68l74 700h244q61 0 108 -26.5t73 -74t26 -108.5q0 -93 -51 -163zM183 285h173q50 0 93 26t68 71.5t25 100.5q0 69 -41.5 112.5t-107.5 43.5h-173zM335 -46.5q15 -16.5 15 -44.5l-1 -12
q-5 -49 -33.5 -74.5t-76.5 -26.5l2 27q25 0 41 10t22 29q8 11 8 30q-4 -6 -11.5 -10t-15.5 -4q-20 0 -31.5 11t-11.5 28q0 22 15.5 37.5t37.5 15.5q25 0 40 -16.5z" />
    <glyph glyph-name="rcommaaccent" unicode="&#x157;" horiz-adv-x="355" 
d="M128 456h65l-13 -120q21 64 65 96.5t96 32.5q20 0 40 -4l-6 -60q-21 3 -43 3q-73 0 -115.5 -61t-50.5 -146l-21 -197h-65zM58 -177q25 0 41 10t22 29q8 11 8 30q-4 -6 -11.5 -10t-15.5 -4q-20 0 -31.5 11t-11.5 28q0 22 15.5 37.5t37.5 15.5q25 0 40 -16.5t15 -44.5
l-1 -12q-5 -49 -33.5 -74.5t-76.5 -26.5z" />
    <glyph glyph-name="Rcaron" unicode="&#x158;" horiz-adv-x="605" 
d="M377 737l-118 113l39 33l86 -86l103 86l31 -33zM559 328q-51 -70 -131 -94l123 -234h-78l-117 223h-4h-176l-23 -223h-68l74 700h244q61 0 108 -26.5t73 -74t26 -108.5q0 -93 -51 -163zM183 285h173q50 0 93 26t68 71.5t25 100.5q0 69 -41.5 112.5t-107.5 43.5h-173z" />
    <glyph glyph-name="rcaron" unicode="&#x159;" horiz-adv-x="355" 
d="M68 653l41 39l120 -119l148 119l32 -39l-187 -146zM128 456h65l-13 -120q21 64 65 96.5t96 32.5q20 0 40 -4l-6 -60q-21 3 -43 3q-73 0 -115.5 -61t-50.5 -146l-21 -197h-65z" />
    <glyph glyph-name="Sacute" unicode="&#x15a;" horiz-adv-x="561" 
d="M239 777l240 114l19 -45l-240 -115zM121 38q-60 53 -60 147q0 10 2 32h68q-1 -8 -1 -23q0 -69 43.5 -109t121.5 -40q81 0 127.5 40t46.5 110q0 44 -27 72.5t-81 44.5l-114 36q-131 36 -131 156q0 17 1 26q5 54 37 96t84 65.5t116 23.5q95 0 149 -48t54 -133q0 -9 -2 -29
h-68q1 8 1 23q0 62 -37 95t-105 33q-73 0 -117.5 -38t-44.5 -100q0 -45 29 -74t89 -46l110 -34q124 -37 124 -158q0 -66 -31 -116t-87 -77.5t-130 -27.5q-107 0 -167 53z" />
    <glyph glyph-name="sacute" unicode="&#x15b;" horiz-adv-x="442" 
d="M128 561l278 122l18 -49l-279 -124zM99 26q-46 38 -46 95l1 13h65q-4 -39 26 -65.5t87 -26.5q50 0 81.5 23t31.5 63q0 23 -11.5 40t-35.5 23l-124 32q-43 11 -64 37.5t-21 64.5q0 41 23 74t64 51t93 18q74 0 115.5 -32t41.5 -85q0 -10 -1 -16h-63q3 38 -23.5 59.5
t-77.5 21.5q-46 0 -77 -21.5t-31 -60.5q0 -44 57 -60l116 -31q43 -11 64 -39.5t21 -64.5l-1 -13q-7 -64 -56.5 -101t-128.5 -37q-80 0 -126 38z" />
    <glyph glyph-name="Scircumflex" unicode="&#x15c;" horiz-adv-x="561" 
d="M489 770l-39 -33l-85 86l-104 -86l-31 33l141 113zM121 38q-60 53 -60 147q0 10 2 32h68q-1 -8 -1 -23q0 -69 43.5 -109t121.5 -40q81 0 127.5 40t46.5 110q0 44 -27 72.5t-81 44.5l-114 36q-131 36 -131 156q0 17 1 26q5 54 37 96t84 65.5t116 23.5q95 0 149 -48
t54 -133q0 -9 -2 -29h-68q1 8 1 23q0 62 -37 95t-105 33q-73 0 -117.5 -38t-44.5 -100q0 -45 29 -74t89 -46l110 -34q124 -37 124 -158q0 -66 -31 -116t-87 -77.5t-130 -27.5q-107 0 -167 53z" />
    <glyph glyph-name="scircumflex" unicode="&#x15d;" horiz-adv-x="442" 
d="M446 542l-40 -39l-123 119l-145 -119l-32 39l184 146zM99 26q-46 38 -46 95l1 13h65q-4 -39 26 -65.5t87 -26.5q50 0 81.5 23t31.5 63q0 23 -11.5 40t-35.5 23l-124 32q-43 11 -64 37.5t-21 64.5q0 41 23 74t64 51t93 18q74 0 115.5 -32t41.5 -85q0 -10 -1 -16h-63
q3 38 -23.5 59.5t-77.5 21.5q-46 0 -77 -21.5t-31 -60.5q0 -44 57 -60l116 -31q43 -11 64 -39.5t21 -64.5l-1 -13q-7 -64 -56.5 -101t-128.5 -37q-80 0 -126 38z" />
    <glyph glyph-name="Scedilla" unicode="&#x15e;" horiz-adv-x="561" 
d="M507.5 94q-28.5 -49 -81 -77.5t-122.5 -31.5l-5 -52q7 8 21.5 13.5t30.5 5.5q29 0 48 -18.5t19 -50.5q0 -43 -26.5 -70.5t-71.5 -27.5q-35 0 -55.5 19t-19.5 51h38q-1 -17 10.5 -27t30.5 -10q24 0 39 16.5t15 46.5q0 19 -10.5 30t-31.5 11q-30 0 -47 -24h-33l10 88
q-97 5 -151 57.5t-54 140.5q0 11 2 33h68q-1 -8 -1 -23q0 -69 43.5 -109t121.5 -40q81 0 127.5 40t46.5 110q0 44 -27 72.5t-81 44.5l-114 36q-131 36 -131 156q0 17 1 26q5 54 37 96t84 65.5t116 23.5q95 0 149 -48t54 -133q0 -9 -2 -29h-68q1 8 1 23q0 62 -37 95t-105 33
q-73 0 -117.5 -38t-44.5 -100q0 -45 29 -74t89 -46l110 -34q124 -37 124 -158q0 -63 -28.5 -112z" />
    <glyph glyph-name="scedilla" unicode="&#x15f;" horiz-adv-x="442" 
d="M330 -66.5q19 -18.5 19 -50.5q0 -43 -26.5 -70.5t-71.5 -27.5q-35 0 -55.5 19t-19.5 51h38q-1 -17 10.5 -27t30.5 -10q24 0 39 16.5t15 46.5q0 19 -10.5 30t-31.5 11q-30 0 -47 -24h-33l10 91q-68 7 -106 44t-38 88l1 13h65q-4 -39 26 -65.5t87 -26.5q50 0 81.5 23
t31.5 63q0 23 -11.5 40t-35.5 23l-124 32q-43 11 -64 37.5t-21 64.5q0 41 23 74t64 51t93 18q74 0 115.5 -32t41.5 -85q0 -10 -1 -16h-63q3 38 -23.5 59.5t-77.5 21.5q-46 0 -77 -21.5t-31 -60.5q0 -44 57 -60l116 -31q43 -11 64 -39.5t21 -64.5q0 -67 -48 -107.5
t-127 -43.5l-6 -55q7 8 21.5 13.5t30.5 5.5q29 0 48 -18.5z" />
    <glyph glyph-name="Scaron" unicode="&#x160;" horiz-adv-x="561" 
d="M240 850l39 33l86 -86l103 86l31 -33l-141 -113zM121 38q-60 53 -60 147q0 10 2 32h68q-1 -8 -1 -23q0 -69 43.5 -109t121.5 -40q81 0 127.5 40t46.5 110q0 44 -27 72.5t-81 44.5l-114 36q-131 36 -131 156q0 17 1 26q5 54 37 96t84 65.5t116 23.5q95 0 149 -48t54 -133
q0 -9 -2 -29h-68q1 8 1 23q0 62 -37 95t-105 33q-73 0 -117.5 -38t-44.5 -100q0 -45 29 -74t89 -46l110 -34q124 -37 124 -158q0 -66 -31 -116t-87 -77.5t-130 -27.5q-107 0 -167 53z" />
    <glyph glyph-name="scaron" unicode="&#x161;" horiz-adv-x="442" 
d="M117 654l40 39l120 -119l148 119l32 -39l-187 -146zM99 26q-46 38 -46 95l1 13h65q-4 -39 26 -65.5t87 -26.5q50 0 81.5 23t31.5 63q0 23 -11.5 40t-35.5 23l-124 32q-43 11 -64 37.5t-21 64.5q0 41 23 74t64 51t93 18q74 0 115.5 -32t41.5 -85q0 -10 -1 -16h-63
q3 38 -23.5 59.5t-77.5 21.5q-46 0 -77 -21.5t-31 -60.5q0 -44 57 -60l116 -31q43 -11 64 -39.5t21 -64.5l-1 -13q-7 -64 -56.5 -101t-128.5 -37q-80 0 -126 38z" />
    <glyph glyph-name="uni0162" unicode="&#x162;" horiz-adv-x="511" 
d="M275 0l-7 -67q7 8 21.5 13.5t30.5 5.5q29 0 48 -18.5t19 -50.5q0 -43 -26.5 -70.5t-71.5 -27.5q-35 0 -55.5 19t-19.5 51h38q-1 -17 10.5 -27t30.5 -10q24 0 39 16.5t15 46.5q0 19 -10.5 30t-31.5 11q-30 0 -47 -24h-33l11 102h-15l67 636h-213l7 64h495l-7 -64h-214
l-67 -636h-14z" />
    <glyph glyph-name="uni0163" unicode="&#x163;" horiz-adv-x="346" 
d="M341 -66.5q19 -18.5 19 -50.5q0 -43 -26.5 -70.5t-71.5 -27.5q-35 0 -55.5 19t-19.5 51h38q-1 -17 10.5 -27t30.5 -10q24 0 39 16.5t15 46.5q0 19 -10.5 30t-31.5 11q-30 0 -47 -24h-33l11 98q-38 5 -61 31.5t-23 86.5q0 9 2 35l26 251h-88l6 56h88l16 151h64l-16 -151
h126l-6 -56h-126l-25 -239q-2 -22 -2 -31q0 -46 18 -61.5t53 -15.5q15 0 32.5 2t28.5 5l-6 -58q-24 -8 -69 -8l-6 -61q7 8 21.5 13.5t30.5 5.5q29 0 48 -18.5z" />
    <glyph glyph-name="Tcaron" unicode="&#x164;" horiz-adv-x="511" 
d="M215 850l39 33l86 -86l103 86l31 -33l-141 -113zM288 636h-213l7 64h495l-7 -64h-214l-67 -636h-68z" />
    <glyph glyph-name="tcaron" unicode="&#x165;" horiz-adv-x="368" 
d="M402 690q17 -21 17 -58q0 -55 -29 -87t-75 -32q-12 0 -16 1l3 32q5 -1 15 -1q20 0 35 10.5t19 28.5q5 13 5 28q0 9 -1 14q-13 -16 -38 -16q-18 0 -29.5 12.5t-11.5 31.5q0 24 17 40.5t42 16.5q30 0 47 -21zM190 130q0 -46 18 -61.5t53 -15.5q15 0 32.5 2t28.5 5l-6 -58
q-26 -8 -75 -8q-51 0 -83.5 23.5t-32.5 96.5q0 9 2 35l26 251h-88l6 56h88l16 151h64l-16 -151h126l-6 -56h-126l-25 -239q-2 -22 -2 -31z" />
    <glyph glyph-name="Tbar" unicode="&#x166;" horiz-adv-x="511" 
d="M356 636l-17 -165h148l-6 -51h-148l-44 -420h-68l44 420h-147l6 51h147l17 165h-213l7 64h495l-7 -64h-214z" />
    <glyph glyph-name="tbar" unicode="&#x167;" horiz-adv-x="349" 
d="M296.5 55q17.5 2 28.5 5l-6 -58q-26 -8 -75 -8q-51 0 -83.5 23.5t-32.5 96.5q0 9 2 35l7 72h-91l5 46h91l14 133h-88l6 56h88l16 151h64l-16 -151h126l-6 -56h-126l-14 -133h127l-5 -46h-127l-6 -60q-2 -22 -2 -31q0 -46 18 -61.5t53 -15.5q15 0 32.5 2z" />
    <glyph glyph-name="Utilde" unicode="&#x168;" horiz-adv-x="630" 
d="M428 759q-19 9 -42 25q-22 14 -35.5 20.5t-28.5 6.5q-21 0 -39 -9.5t-41 -39.5l-27 27q51 73 111 73q20 0 36.5 -7.5t44.5 -24.5q22 -15 37.5 -22t30.5 -7q44 0 83 50l26 -29q-47 -72 -114 -72q-23 0 -42 9zM147 38.5q-60 53.5 -60 152.5q0 11 2 37l50 472h68l-50 -468
q-1 -10 -1 -28q0 -76 43 -116.5t121 -40.5q85 0 139 48t63 137l50 468h67l-50 -472q-13 -116 -86.5 -179.5t-189.5 -63.5q-106 0 -166 53.5z" />
    <glyph glyph-name="utilde" unicode="&#x169;" horiz-adv-x="563" 
d="M380.5 549q-16.5 8 -40.5 23q-20 14 -34 20.5t-29 6.5q-19 0 -38 -9.5t-41 -37.5l-23 35q47 66 106 66q17 0 34 -7.5t39 -22.5q21 -13 36 -20t29 -7q40 0 75 45l24 -34q-45 -66 -102 -66q-19 0 -35.5 8zM135 29q-43 41 -43 119q0 11 2 33l29 275h65l-28 -261
q-2 -20 -2 -28q0 -58 28 -90t89 -32q50 0 86 24.5t55.5 63.5t23.5 81l26 242h65l-48 -456h-65l11 103q-23 -51 -70 -83t-107 -32q-74 0 -117 41z" />
    <glyph glyph-name="Umacron" unicode="&#x16a;" horiz-adv-x="630" 
d="M225 825h355l-6 -53h-355zM147 38.5q-60 53.5 -60 152.5q0 11 2 37l50 472h68l-50 -468q-1 -10 -1 -28q0 -76 43 -116.5t121 -40.5q85 0 139 48t63 137l50 468h67l-50 -472q-13 -116 -86.5 -179.5t-189.5 -63.5q-106 0 -166 53.5z" />
    <glyph glyph-name="umacron" unicode="&#x16b;" horiz-adv-x="563" 
d="M189 608h317l-6 -53h-317zM135 29q-43 41 -43 119q0 11 2 33l29 275h65l-28 -261q-2 -20 -2 -28q0 -58 28 -90t89 -32q50 0 86 24.5t55.5 63.5t23.5 81l26 242h65l-48 -456h-65l11 103q-23 -51 -70 -83t-107 -32q-74 0 -117 41z" />
    <glyph glyph-name="Ubreve" unicode="&#x16c;" horiz-adv-x="630" 
d="M285 772q-42 36 -41 93h55q1 -39 29 -59.5t70 -20.5t74.5 20.5t41.5 59.5h54q-11 -57 -61 -93t-115 -36t-107 36zM147 38.5q-60 53.5 -60 152.5q0 11 2 37l50 472h68l-50 -468q-1 -10 -1 -28q0 -76 43 -116.5t121 -40.5q85 0 139 48t63 137l50 468h67l-50 -472
q-13 -116 -86.5 -179.5t-189.5 -63.5q-106 0 -166 53.5z" />
    <glyph glyph-name="ubreve" unicode="&#x16d;" horiz-adv-x="563" 
d="M225.5 547.5q-41.5 38.5 -39.5 106.5h56q-1 -46 27.5 -71t73.5 -25t78.5 25t42.5 71h56q-13 -68 -63 -106.5t-120 -38.5t-111.5 38.5zM135 29q-43 41 -43 119q0 11 2 33l29 275h65l-28 -261q-2 -20 -2 -28q0 -58 28 -90t89 -32q50 0 86 24.5t55.5 63.5t23.5 81l26 242h65
l-48 -456h-65l11 103q-23 -51 -70 -83t-107 -32q-74 0 -117 41z" />
    <glyph glyph-name="Uring" unicode="&#x16e;" horiz-adv-x="630" 
d="M307 695q-31 30 -31 75q0 34 18.5 64t49.5 48t66 18q47 0 78 -30t31 -75q0 -34 -18.5 -64t-49.5 -48t-66 -18q-47 0 -78 30zM449 732q25 25 25 59q0 29 -19.5 48t-49.5 19q-33 0 -58 -24.5t-25 -59.5q0 -29 19 -48t48 -19q35 0 60 25zM147 38.5q-60 53.5 -60 152.5
q0 11 2 37l50 472h68l-50 -468q-1 -10 -1 -28q0 -76 43 -116.5t121 -40.5q85 0 139 48t63 137l50 468h67l-50 -472q-13 -116 -86.5 -179.5t-189.5 -63.5q-106 0 -166 53.5z" />
    <glyph glyph-name="uring" unicode="&#x16f;" horiz-adv-x="563" 
d="M264.5 523.5q-28.5 27.5 -28.5 69.5q0 34 17 61t45 42.5t60 15.5q43 0 70.5 -26.5t27.5 -68.5q0 -52 -35.5 -86.5t-85.5 -34.5q-42 0 -70.5 27.5zM393.5 556q22.5 23 22.5 58q0 28 -17.5 45t-44.5 17q-31 0 -54 -22.5t-23 -57.5q0 -28 17.5 -45.5t44.5 -17.5
q32 0 54.5 23zM135 29q-43 41 -43 119q0 11 2 33l29 275h65l-28 -261q-2 -20 -2 -28q0 -58 28 -90t89 -32q50 0 86 24.5t55.5 63.5t23.5 81l26 242h65l-48 -456h-65l11 103q-23 -51 -70 -83t-107 -32q-74 0 -117 41z" />
    <glyph glyph-name="Uhungarumlaut" unicode="&#x170;" horiz-adv-x="630" 
d="M263 753l143 132l55 -24l-162 -125zM447 753l143 132l55 -25l-162 -125zM147 38.5q-60 53.5 -60 152.5q0 11 2 37l50 472h68l-50 -468q-1 -10 -1 -28q0 -76 43 -116.5t121 -40.5q85 0 139 48t63 137l50 468h67l-50 -472q-13 -116 -86.5 -179.5t-189.5 -63.5
q-106 0 -166 53.5z" />
    <glyph glyph-name="uhungarumlaut" unicode="&#x171;" horiz-adv-x="563" 
d="M201 521l142 166l54 -28l-163 -156zM386 521l142 166l54 -28l-163 -157zM135 29q-43 41 -43 119q0 11 2 33l29 275h65l-28 -261q-2 -20 -2 -28q0 -58 28 -90t89 -32q50 0 86 24.5t55.5 63.5t23.5 81l26 242h65l-48 -456h-65l11 103q-23 -51 -70 -83t-107 -32
q-74 0 -117 41z" />
    <glyph glyph-name="Uogonek" unicode="&#x172;" horiz-adv-x="630" 
d="M639 700l-50 -472q-10 -92 -60 -152t-130 -81q-46 -16 -68 -44t-22 -59q0 -24 15 -39t43 -15q30 0 63 14l-6 -49q-20 -7 -37.5 -11t-41.5 -4q-46 0 -72 23t-26 59q0 32 19 62t56 53h-9q-106 0 -166 53.5t-60 152.5q0 11 2 37l50 472h68l-50 -468q-1 -10 -1 -28
q0 -76 43 -116.5t121 -40.5q85 0 139 48t63 137l50 468h67z" />
    <glyph glyph-name="uogonek" unicode="&#x173;" horiz-adv-x="563" 
d="M499 -148l-6 -49q-20 -7 -37.5 -11t-41.5 -4q-46 0 -72 23t-26 59q0 37 26 71t77 59h-1l11 103q-23 -51 -70 -83t-107 -32q-74 0 -117 41t-43 119q0 11 2 33l29 275h65l-28 -261q-2 -20 -2 -28q0 -58 28 -90t89 -32q50 0 86 24.5t55.5 63.5t23.5 81l26 242h65l-48 -456
q-53 -16 -79 -45.5t-26 -62.5q0 -24 15 -39t43 -15q30 0 63 14z" />
    <glyph glyph-name="Wcircumflex" unicode="&#x174;" horiz-adv-x="943" 
d="M681 770l-39 -33l-85 86l-104 -86l-31 33l141 113zM79 700h71l131 -591l238 591h53l113 -591l256 591h71l-311 -700h-52l-116 585l-239 -585h-52z" />
    <glyph glyph-name="wcircumflex" unicode="&#x175;" horiz-adv-x="726" 
d="M591 542l-40 -39l-123 119l-145 -119l-32 39l184 146zM58 456h71l86 -365l161 365h70l84 -365l164 365h70l-216 -456h-56l-89 376l-169 -376h-55z" />
    <glyph glyph-name="Ycircumflex" unicode="&#x176;" horiz-adv-x="542" 
d="M265 737l-31 33l141 113l118 -113l-39 -33l-85 86zM626 700l-431 -700h-74l170 278l-222 422h79l185 -353l219 353h74z" />
    <glyph glyph-name="ycircumflex" unicode="&#x177;" horiz-adv-x="567" 
d="M507 542l-40 -39l-123 119l-145 -119l-32 39l184 146zM535 456l-50 -471q-10 -111 -81 -166q-58 -46 -149 -46q-97 0 -148 46q-40 38 -40 101l1 16h65q-2 -49 27.5 -78.5t99.5 -29.5q145 0 162 161l12 112q-26 -50 -73 -81t-109 -31q-159 0 -159 163q0 11 2 39l28 265h64
l-27 -253q-2 -26 -2 -36q0 -58 28 -88.5t92 -30.5q49 0 85 25t57 65t26 85l25 233h64z" />
    <glyph glyph-name="Ydieresis" unicode="&#x178;" horiz-adv-x="542" 
d="M210.5 771q-14.5 14 -14.5 36q0 26 19 45.5t44 19.5q23 0 37.5 -15t14.5 -37q0 -26 -19 -44.5t-45 -18.5q-22 0 -36.5 14zM444.5 771q-14.5 14 -14.5 36q0 26 19 45.5t44 19.5q23 0 37.5 -15t14.5 -37q0 -26 -19 -44.5t-45 -18.5q-22 0 -36.5 14zM626 700l-431 -700h-74
l170 278l-222 422h79l185 -353l219 353h74z" />
    <glyph glyph-name="Zacute" unicode="&#x179;" horiz-adv-x="565" 
d="M246 777l240 114l19 -45l-240 -115zM479 639h-355l7 61h468l-451 -638h388l-7 -62h-504z" />
    <glyph glyph-name="zacute" unicode="&#x17a;" horiz-adv-x="437" 
d="M126 561l278 122l18 -49l-279 -124zM350 400h-270l6 56h382l-332 -400h283l-6 -56h-393z" />
    <glyph glyph-name="Zdotaccent" unicode="&#x17b;" horiz-adv-x="565" 
d="M329 769.5q-14 14.5 -14 36.5q0 27 18.5 45.5t45.5 18.5q23 0 37.5 -14t14.5 -36q0 -27 -18.5 -46t-45.5 -19q-24 0 -38 14.5zM479 639h-355l7 61h468l-451 -638h388l-7 -62h-504z" />
    <glyph glyph-name="zdotaccent" unicode="&#x17c;" horiz-adv-x="437" 
d="M235.5 561.5q-14.5 14.5 -14.5 37.5q0 28 19 48t47 20q24 0 39 -15.5t15 -38.5q0 -28 -19.5 -47t-47.5 -19q-24 0 -38.5 14.5zM350 400h-270l6 56h382l-332 -400h283l-6 -56h-393z" />
    <glyph glyph-name="Zcaron" unicode="&#x17d;" horiz-adv-x="565" 
d="M247 850l39 33l86 -86l103 86l31 -33l-141 -113zM479 639h-355l7 61h468l-451 -638h388l-7 -62h-504z" />
    <glyph glyph-name="zcaron" unicode="&#x17e;" horiz-adv-x="437" 
d="M116 654l40 39l120 -119l148 119l32 -39l-187 -146zM350 400h-270l6 56h382l-332 -400h283l-6 -56h-393z" />
    <glyph glyph-name="florin" unicode="&#x192;" horiz-adv-x="429" 
d="M372 609.5q-28 -22.5 -45 -83.5l-23 -83h138l-16 -56h-138l-128 -450q-44 -160 -175 -160q-41 0 -70 12l16 56q11 -5 22.5 -7t29.5 -2q41 0 69 21.5t43 78.5l128 451h-101l16 56h101l23 84q26 89 72.5 126.5t110.5 37.5q39 0 63 -12l-15 -56q-19 9 -52 9q-41 0 -69 -22.5
z" />
    <glyph glyph-name="AEacute" unicode="&#x1fc;" horiz-adv-x="819" 
d="M547 731l-19 46l240 114l19 -45zM532 639l-27 -260h284l-7 -62h-284l-26 -255h284l-7 -62h-352l13 128h-245l-76 -128h-74l427 700h381l-7 -61h-284zM417 187l46 443l-263 -443h217z" />
    <glyph glyph-name="aeacute" unicode="&#x1fd;" horiz-adv-x="879" 
d="M373 510l-17 51l278 122l18 -49zM859 212h-369q-1 -8 -1 -23q0 -67 39 -105.5t108 -38.5q50 0 88 23t58 64h65q-20 -65 -80 -105t-137 -40q-66 0 -114.5 30.5t-69.5 84.5q-70 -114 -223 -114q-75 0 -120.5 32t-45.5 85q0 83 65 122q31 20 74 27.5t115 7.5h125l4 39
q1 5 1 15q0 45 -32.5 71.5t-97.5 26.5q-63 0 -103.5 -28.5t-49.5 -80.5h-64q12 75 72.5 119t150.5 44q71 0 114 -23.5t59 -66.5q34 43 82 66t104 23q57 0 100 -23.5t67 -66t24 -96.5q0 -17 -1 -26q-1 -10 -7 -43zM803 263q1 7 1 20q0 60 -36 96t-97 36q-70 0 -118 -41.5
t-57 -110.5h307zM429 201q1 4 0.5 6.5t-0.5 4.5h-152q-78 0 -116 -26t-38 -72q0 -36 32 -54.5t89 -18.5q71 0 124 39t60 108z" />
    <glyph glyph-name="Oslashacute" unicode="&#x1fe;" horiz-adv-x="800" 
d="M380 731l-19 46l240 114l19 -45zM757.5 562q41.5 -75 41.5 -168q0 -29 -2 -44q-11 -98 -63.5 -181.5t-139.5 -133.5t-196 -50q-64 0 -119 19l-42 -79l-46 20l42 78q-76 40 -117 115t-41 168q0 29 2 44q10 98 62.5 181.5t139.5 133.5t196 50q66 0 117 -18l41 76l45 -21
l-40 -74q78 -41 119.5 -116zM146 310q0 -73 31 -133.5t88 -94.5l297 558q-44 14 -93 14q-89 0 -159 -41.5t-112 -111t-50 -151.5q-2 -14 -2 -40zM563.5 88.5q70.5 41.5 112.5 110.5t51 151q2 26 2 38q0 76 -31.5 137t-90.5 95l-296 -558q40 -15 94 -15q88 0 158.5 41.5z" />
    <glyph glyph-name="oslashacute" unicode="&#x1ff;" horiz-adv-x="549" 
d="M198 497l-16 51l277 122l18 -49zM510 363.5q24 -47.5 24 -106.5q0 -73 -33 -134.5t-92 -98t-135 -36.5q-37 0 -69 9l-35 -65l-37 18l33 63q-50 26 -77 75t-27 110q0 73 33 135t93 98.5t136 36.5q44 0 80 -12l28 53l39 -18l-29 -53q44 -27 68 -74.5zM145.5 123.5
q17.5 -35.5 50.5 -54.5l178 331q-24 9 -56 9q-56 0 -99 -27.5t-67 -74.5t-24 -103q0 -45 17.5 -80.5zM379 75q43 28 67 75t24 103q0 41 -15 74t-44 54l-176 -328q19 -6 45 -6q56 0 99 28z" />
    <glyph glyph-name="Scommaaccent" unicode="&#x218;" horiz-adv-x="561" 
d="M121 38q-60 53 -60 147q0 10 2 32h68q-1 -8 -1 -23q0 -69 43.5 -109t121.5 -40q81 0 127.5 40t46.5 110q0 44 -27 72.5t-81 44.5l-114 36q-131 36 -131 156q0 17 1 26q5 54 37 96t84 65.5t116 23.5q95 0 149 -48t54 -133q0 -9 -2 -29h-68q1 8 1 23q0 62 -37 95t-105 33
q-73 0 -117.5 -38t-44.5 -100q0 -45 29 -74t89 -46l110 -34q124 -37 124 -158q0 -66 -31 -116t-87 -77.5t-130 -27.5q-107 0 -167 53zM227 -177q25 0 41 10t22 29q8 11 8 30q-4 -6 -11.5 -10t-15.5 -4q-20 0 -31.5 11t-11.5 28q0 22 15.5 37.5t37.5 15.5q25 0 40 -16.5
t15 -44.5l-1 -12q-5 -49 -33.5 -74.5t-76.5 -26.5z" />
    <glyph glyph-name="scommaaccent" unicode="&#x219;" horiz-adv-x="442" 
d="M99 26q-46 38 -46 95l1 13h65q-4 -39 26 -65.5t87 -26.5q50 0 81.5 23t31.5 63q0 23 -11.5 40t-35.5 23l-124 32q-43 11 -64 37.5t-21 64.5q0 41 23 74t64 51t93 18q74 0 115.5 -32t41.5 -85q0 -10 -1 -16h-63q3 38 -23.5 59.5t-77.5 21.5q-46 0 -77 -21.5t-31 -60.5
q0 -44 57 -60l116 -31q43 -11 64 -39.5t21 -64.5l-1 -13q-7 -64 -56.5 -101t-128.5 -37q-80 0 -126 38zM159 -177q25 0 41 10t22 29q8 11 8 30q-4 -6 -11.5 -10t-15.5 -4q-20 0 -31.5 11t-11.5 28q0 22 15.5 37.5t37.5 15.5q25 0 40 -16.5t15 -44.5l-1 -12
q-5 -49 -33.5 -74.5t-76.5 -26.5z" />
    <glyph glyph-name="uni021A" unicode="&#x21a;" horiz-adv-x="511" 
d="M288 636h-213l7 64h495l-7 -64h-214l-67 -636h-68zM196 -177q25 0 41 10t22 29q8 11 8 30q-4 -6 -11.5 -10t-15.5 -4q-20 0 -31.5 11t-11.5 28q0 22 15.5 37.5t37.5 15.5q25 0 40 -16.5t15 -44.5l-1 -12q-5 -49 -33.5 -74.5t-76.5 -26.5z" />
    <glyph glyph-name="uni021B" unicode="&#x21b;" horiz-adv-x="346" 
d="M293.5 55q17.5 2 28.5 5l-6 -58q-26 -8 -75 -8q-51 0 -83.5 23.5t-32.5 96.5q0 9 2 35l26 251h-88l6 56h88l16 151h64l-16 -151h126l-6 -56h-126l-25 -239q-2 -22 -2 -31q0 -46 18 -61.5t53 -15.5q15 0 32.5 2zM264 -46.5q15 -16.5 15 -44.5l-1 -12q-5 -49 -33.5 -74.5
t-76.5 -26.5l2 27q25 0 41 10t22 29q8 11 8 30q-4 -6 -11.5 -10t-15.5 -4q-20 0 -31.5 11t-11.5 28q0 22 15.5 37.5t37.5 15.5q25 0 40 -16.5z" />
    <glyph glyph-name="uni0237" unicode="&#x237;" horiz-adv-x="228" 
d="M-51 -210l6 60q23 -10 51 -10q29 0 46.5 20t21.5 57l57 539h65l-58 -555q-6 -58 -39.5 -90t-86.5 -32q-41 0 -63 11z" />
    <glyph glyph-name="uni0243" unicode="&#x243;" horiz-adv-x="580" 
d="M489 58.5q-52 -47.5 -134 -56.5l-10 -101h-51l10 99h-72l-10 -99h-51l10 99h-96l72 681h96l10 99h51l-10 -99h72l10 99h51l-11 -102q72 -9 111.5 -48.5t39.5 -102.5q0 -15 -1 -22q-7 -68 -47 -109t-102 -51q54 -7 88.5 -44.5t34.5 -97.5q0 -14 -1 -21q-8 -76 -60 -123.5z
M218 622l-26 -248h169q64 0 105.5 38.5t41.5 102.5q0 51 -35.5 79t-98.5 28h-156zM432.5 94.5q42.5 34.5 49.5 94.5q1 5 1 15q0 50 -33.5 80t-85.5 30h-178l-27 -254h164q67 0 109.5 34.5z" />
    <glyph glyph-name="uni02BC" unicode="&#x2bc;" horiz-adv-x="269" 
d="M256.5 718q20.5 -23 20.5 -64q0 -10 -1 -16q-6 -54 -38.5 -87t-82.5 -33q-20 0 -27 2l3 34q10 -2 26 -2q21 0 37.5 11.5t24.5 31.5q10 24 8 46q-13 -14 -36 -14q-21 0 -35 13.5t-14 34.5q0 28 18.5 47t46.5 19q29 0 49.5 -23z" />
    <glyph glyph-name="circumflex" unicode="&#x2c6;" horiz-adv-x="600" 
d="M425 542l-40 -39l-123 119l-145 -119l-32 39l184 146z" />
    <glyph glyph-name="caron" unicode="&#x2c7;" horiz-adv-x="600" 
d="M97 654l40 39l120 -119l148 119l32 -39l-187 -146z" />
    <glyph glyph-name="breve" unicode="&#x2d8;" horiz-adv-x="600" 
d="M178.5 547.5q-41.5 38.5 -39.5 106.5h56q-1 -46 27.5 -71t73.5 -25t78.5 25t42.5 71h56q-13 -68 -63 -106.5t-120 -38.5t-111.5 38.5z" />
    <glyph glyph-name="dotaccent" unicode="&#x2d9;" horiz-adv-x="600" 
d="M319.5 561.5q-14.5 14.5 -14.5 37.5q0 28 19 48t47 20q24 0 39 -15.5t15 -38.5q0 -28 -19.5 -47t-47.5 -19q-24 0 -38.5 14.5z" />
    <glyph glyph-name="ring" unicode="&#x2da;" horiz-adv-x="600" 
d="M141.5 509.5q-28.5 26.5 -28.5 68.5q0 52 36 86.5t85 34.5q43 0 71 -26.5t28 -68.5q0 -52 -35.5 -86.5t-85.5 -34.5q-42 0 -70.5 26.5zM270.5 543q22.5 23 22.5 58q0 28 -17.5 45t-44.5 17q-31 0 -54 -22.5t-23 -57.5q0 -28 17.5 -45.5t44.5 -17.5q32 0 54.5 23z" />
    <glyph glyph-name="ogonek" unicode="&#x2db;" horiz-adv-x="600" 
d="M44 -189q-26 23 -26 59q0 37 26 71t77 59h64q-53 -16 -79 -45.5t-26 -62.5q0 -24 15 -39t43 -15q30 0 63 14l-6 -49q-20 -7 -37.5 -11t-41.5 -4q-46 0 -72 23z" />
    <glyph glyph-name="tilde" unicode="&#x2dc;" horiz-adv-x="600" 
d="M311.5 549q-16.5 8 -40.5 23q-20 14 -34 20.5t-29 6.5q-19 0 -38 -9.5t-41 -37.5l-23 35q47 66 106 66q17 0 34 -7.5t39 -22.5q21 -13 36 -20t29 -7q40 0 75 45l24 -34q-45 -66 -102 -66q-19 0 -35.5 8z" />
    <glyph glyph-name="hungarumlaut" unicode="&#x2dd;" horiz-adv-x="600" 
d="M109 521l142 166l54 -28l-163 -156zM294 521l142 166l54 -28l-163 -157z" />
    <glyph glyph-name="gravecomb" unicode="&#x300;" horiz-adv-x="0" 
d="M-260 634l28 49l252 -122l-27 -51z" />
    <glyph glyph-name="acutecomb" unicode="&#x301;" horiz-adv-x="0" 
d="M-236 561l278 122l18 -49l-279 -124z" />
    <glyph glyph-name="uni0302" unicode="&#x302;" horiz-adv-x="0" 
d="M30 542l-40 -39l-123 119l-145 -119l-32 39l184 146z" />
    <glyph glyph-name="tildecomb" unicode="&#x303;" horiz-adv-x="0" 
d="M-110.5 549q-16.5 8 -40.5 23q-20 14 -34 20.5t-29 6.5q-19 0 -38 -9.5t-41 -37.5l-23 35q47 66 106 66q17 0 34 -7.5t39 -22.5q21 -13 36 -20t29 -7q40 0 75 45l24 -34q-45 -66 -102 -66q-19 0 -35.5 8z" />
    <glyph glyph-name="uni0304" unicode="&#x304;" horiz-adv-x="0" 
d="M-330 608h317l-6 -53h-317z" />
    <glyph glyph-name="uni0306" unicode="&#x306;" horiz-adv-x="0" 
d="M-295.5 547.5q-41.5 38.5 -39.5 106.5h56q-1 -46 27.5 -71t73.5 -25t78.5 25t42.5 71h56q-13 -68 -63 -106.5t-120 -38.5t-111.5 38.5z" />
    <glyph glyph-name="uni0307" unicode="&#x307;" horiz-adv-x="0" 
d="M-82.5 561.5q-14.5 14.5 -14.5 37.5q0 28 19 48t47 20q24 0 39 -15.5t15 -38.5q0 -28 -19.5 -47t-47.5 -19q-24 0 -38.5 14.5z" />
    <glyph glyph-name="uni0308" unicode="&#x308;" horiz-adv-x="0" 
d="M-302.5 561.5q-14.5 14.5 -14.5 36.5q0 26 19 45t45 19q22 0 36.5 -14.5t14.5 -36.5q0 -26 -19 -45t-45 -19q-22 0 -36.5 14.5zM-105.5 561.5q-14.5 14.5 -14.5 36.5q0 26 19 45t45 19q22 0 36.5 -14.5t14.5 -36.5q0 -26 -19 -45t-45 -19q-22 0 -36.5 14.5z" />
    <glyph glyph-name="uni030A" unicode="&#x30a;" horiz-adv-x="0" 
d="M-179.5 509.5q-28.5 26.5 -28.5 68.5q0 52 36 86.5t85 34.5q43 0 71 -26.5t28 -68.5q0 -52 -35.5 -86.5t-85.5 -34.5q-42 0 -70.5 26.5zM-50.5 543q22.5 23 22.5 58q0 28 -17.5 45t-44.5 17q-31 0 -54 -22.5t-23 -57.5q0 -28 17.5 -45.5t44.5 -17.5q32 0 54.5 23z" />
    <glyph glyph-name="uni030B" unicode="&#x30b;" horiz-adv-x="0" 
d="M-335 521l142 166l54 -28l-163 -156zM-150 521l142 166l54 -28l-163 -157z" />
    <glyph glyph-name="uni030C" unicode="&#x30c;" horiz-adv-x="0" 
d="M-298 654l40 39l120 -119l148 119l32 -39l-187 -146z" />
    <glyph glyph-name="uni0312" unicode="&#x312;" horiz-adv-x="0" 
d="M-330 664q-25 0 -41.5 -9t-22.5 -25q-9 -15 -9 -31q9 14 29 14q18 0 29.5 -12t11.5 -30q0 -21 -15.5 -36.5t-38.5 -15.5q-24 0 -39 18.5t-15 47.5q0 49 30.5 77.5t83.5 29.5z" />
    <glyph glyph-name="uni0326" unicode="&#x326;" horiz-adv-x="0" 
d="M-159 -177q25 0 41 10t22 29q8 11 8 30q-4 -6 -11.5 -10t-15.5 -4q-20 0 -31.5 11t-11.5 28q0 22 15 37.5t38 15.5q25 0 40 -16.5t15 -44.5l-1 -12q-5 -49 -33.5 -74.5t-76.5 -26.5z" />
    <glyph glyph-name="uni0327" unicode="&#x327;" horiz-adv-x="0" 
d="M-204.5 -196q-20.5 19 -19.5 51h38q-1 -17 10.5 -27t30.5 -10q24 0 39 16.5t15 46.5q0 19 -10.5 30t-31.5 11q-30 0 -47 -24h-33l11 102h39l-7 -67q7 8 21.5 13.5t30.5 5.5q29 0 48 -18.5t19 -50.5q0 -43 -26.5 -70.5t-71.5 -27.5q-35 0 -55.5 19z" />
    <glyph glyph-name="uni0328" unicode="&#x328;" horiz-adv-x="0" 
d="M-223 -189q-26 23 -26 59q0 37 26 71t77 59h64q-53 -16 -79 -45.5t-26 -62.5q0 -24 15 -39t43 -15q30 0 63 14l-6 -49q-20 -7 -37.5 -11t-41.5 -4q-46 0 -72 23z" />
    <glyph glyph-name="uni0394" unicode="&#x394;" horiz-adv-x="573" 
d="M335 700h51l167 -700h-533zM467 62l-118 531l-228 -531h346z" />
    <glyph glyph-name="uni03A9" unicode="&#x3a9;" horiz-adv-x="707" 
d="M70 62h200l4 38q-89 27 -141.5 99t-52.5 166q0 10 2 34q9 87 54.5 158.5t121.5 113.5t171 42q88 0 151.5 -36t97 -99t33.5 -141q0 -12 -2 -38q-7 -69 -41.5 -130.5t-89.5 -106t-124 -63.5l-3 -37h200l-7 -62h-255l15 138q65 12 117 50t83 94t38 119q2 22 2 33
q0 62 -25.5 111.5t-75.5 77.5t-121 28q-77 0 -136 -33t-93.5 -90t-42.5 -127q-2 -20 -2 -31q0 -87 49 -151.5t136 -80.5l-15 -138h-255z" />
    <glyph glyph-name="uni03BC" unicode="&#x3bc;" horiz-adv-x="568" 
d="M536 456l-48 -456h-65l11 103q-23 -51 -70 -83t-107 -32q-69 0 -110 34l-25 -237h-65l71 671h65l-28 -261q-2 -20 -2 -28q0 -58 28 -90t89 -32q50 0 86 24.5t55.5 63.5t23.5 81l26 242h65z" />
    <glyph glyph-name="pi" unicode="&#x3c0;" horiz-adv-x="602" 
d="M175 384h-55l7 59h442l-7 -59h-55l-40 -384h-65l40 384h-202l-40 -384h-65z" />
    <glyph glyph-name="uni0E3F" unicode="&#xe3f;" horiz-adv-x="580" 
d="M515.5 300.5q34.5 -37.5 34.5 -97.5q0 -62 -29.5 -107.5t-82 -70.5t-120.5 -25h-7l-10 -99h-51l10 99h-175l72 681h175l10 99h51l-10 -99h1q90 0 141.5 -40.5t51.5 -112.5q0 -15 -1 -23q-7 -68 -47 -109t-102 -51q54 -7 88.5 -44.5zM218 622l-26 -248h169
q64 0 105.5 38.5t41.5 102.5q0 51 -35.5 79t-98.5 28h-156zM432.5 94.5q42.5 34.5 49.5 94.5q1 5 1 15q0 50 -33.5 80t-85.5 30h-178l-27 -254h164q67 0 109.5 34.5z" />
    <glyph glyph-name="Wgrave" unicode="&#x1e80;" horiz-adv-x="943" 
d="M432 846l29 45l216 -114l-29 -46zM79 700h71l131 -591l238 591h53l113 -591l256 591h71l-311 -700h-52l-116 585l-239 -585h-52z" />
    <glyph glyph-name="wgrave" unicode="&#x1e81;" horiz-adv-x="726" 
d="M280 632l29 49l252 -122l-28 -51zM58 456h71l86 -365l161 365h70l84 -365l164 365h70l-216 -456h-56l-89 376l-169 -376h-55z" />
    <glyph glyph-name="Wacute" unicode="&#x1e82;" horiz-adv-x="943" 
d="M430 777l240 114l19 -45l-240 -115zM79 700h71l131 -591l238 591h53l113 -591l256 591h71l-311 -700h-52l-116 585l-239 -585h-52z" />
    <glyph glyph-name="wacute" unicode="&#x1e83;" horiz-adv-x="726" 
d="M273 561l278 122l18 -49l-279 -124zM58 456h71l86 -365l161 365h70l84 -365l164 365h70l-216 -456h-56l-89 376l-169 -376h-55z" />
    <glyph glyph-name="Wdieresis" unicode="&#x1e84;" horiz-adv-x="943" 
d="M398.5 771q-14.5 14 -14.5 36q0 26 19 45.5t44 19.5q23 0 37.5 -15t14.5 -37q0 -26 -19 -44.5t-45 -18.5q-22 0 -36.5 14zM632.5 771q-14.5 14 -14.5 36q0 26 19 45.5t44 19.5q23 0 37.5 -15t14.5 -37q0 -26 -19 -44.5t-45 -18.5q-22 0 -36.5 14zM79 700h71l131 -591
l238 591h53l113 -591l256 591h71l-311 -700h-52l-116 585l-239 -585h-52z" />
    <glyph glyph-name="wdieresis" unicode="&#x1e85;" horiz-adv-x="726" 
d="M285.5 561.5q-14.5 14.5 -14.5 36.5q0 26 19 45t45 19q22 0 36.5 -14.5t14.5 -36.5q0 -26 -19 -45t-45 -19q-22 0 -36.5 14.5zM482.5 561.5q-14.5 14.5 -14.5 36.5q0 26 19 45t45 19q22 0 36.5 -14.5t14.5 -36.5q0 -26 -19 -45t-45 -19q-22 0 -36.5 14.5zM58 456h71
l86 -365l161 365h70l84 -365l164 365h70l-216 -456h-56l-89 376l-169 -376h-55z" />
    <glyph glyph-name="Ygrave" unicode="&#x1ef2;" horiz-adv-x="542" 
d="M460 731l-216 115l29 45l216 -114zM626 700l-431 -700h-74l170 278l-222 422h79l185 -353l219 353h74z" />
    <glyph glyph-name="ygrave" unicode="&#x1ef3;" horiz-adv-x="567" 
d="M196 632l29 49l252 -122l-28 -51zM535 456l-50 -471q-10 -111 -81 -166q-58 -46 -149 -46q-97 0 -148 46q-40 38 -40 101l1 16h65q-2 -49 27.5 -78.5t99.5 -29.5q145 0 162 161l12 112q-26 -50 -73 -81t-109 -31q-159 0 -159 163q0 11 2 39l28 265h64l-27 -253
q-2 -26 -2 -36q0 -58 28 -88.5t92 -30.5q49 0 85 25t57 65t26 85l25 233h64z" />
    <glyph glyph-name="uni2002" unicode="&#x2002;" horiz-adv-x="500" 
 />
    <glyph glyph-name="uni2003" unicode="&#x2003;" horiz-adv-x="1000" 
 />
    <glyph glyph-name="uni2004" unicode="&#x2004;" horiz-adv-x="0" 
 />
    <glyph glyph-name="uni2005" unicode="&#x2005;" horiz-adv-x="250" 
 />
    <glyph glyph-name="uni2009" unicode="&#x2009;" horiz-adv-x="135" 
 />
    <glyph glyph-name="uni200A" unicode="&#x200a;" horiz-adv-x="75" 
 />
    <glyph glyph-name="endash" unicode="&#x2013;" horiz-adv-x="594" 
d="M86 292h484l-6 -54h-484z" />
    <glyph glyph-name="emdash" unicode="&#x2014;" horiz-adv-x="779" 
d="M86 297h669l-5 -54h-669z" />
    <glyph glyph-name="quoteleft" unicode="&#x2018;" horiz-adv-x="269" 
d="M154.5 538q-20.5 23 -20.5 64q0 10 1 16q6 54 38.5 87t82.5 33q20 0 27 -2l-3 -34q-10 2 -26 2q-21 0 -37.5 -11.5t-24.5 -31.5q-10 -24 -8 -46q13 14 36 14q21 0 35 -13.5t14 -34.5q0 -28 -18.5 -47t-46.5 -19q-29 0 -49.5 23z" />
    <glyph glyph-name="quoteright" unicode="&#x2019;" horiz-adv-x="269" 
d="M244.5 695q20.5 -23 20.5 -64q0 -10 -1 -16q-6 -54 -38.5 -87t-82.5 -33q-20 0 -28 2l4 34q10 -2 26 -2q21 0 37 11.5t24 31.5q11 23 9 46q-13 -14 -37 -14q-21 0 -35 13.5t-14 36.5q0 27 18.5 45.5t46.5 18.5q30 0 50.5 -23z" />
    <glyph glyph-name="quotesinglbase" unicode="&#x201a;" horiz-adv-x="269" 
d="M179.5 84q20.5 -23 20.5 -64q0 -61 -33.5 -98.5t-87.5 -37.5q-20 0 -28 2l4 34q9 -2 25 -2q21 0 37.5 11.5t24.5 31.5q9 19 9 46q-13 -14 -37 -14q-21 0 -35 13.5t-14 36.5q0 27 18.5 45.5t46.5 18.5q29 0 49.5 -23z" />
    <glyph glyph-name="quotedblleft" unicode="&#x201c;" horiz-adv-x="437" 
d="M154.5 538q-20.5 23 -20.5 64q0 10 1 16q6 54 38.5 87t82.5 33q20 0 27 -2l-3 -34q-10 2 -26 2q-21 0 -37.5 -11.5t-24.5 -31.5q-10 -24 -8 -46q13 14 36 14q21 0 35 -13.5t14 -34.5q0 -28 -18.5 -47t-46.5 -19q-29 0 -49.5 23zM322.5 538q-20.5 23 -20.5 64q0 10 1 16
q6 54 38.5 87t82.5 33q20 0 27 -2l-3 -34q-10 2 -26 2q-21 0 -37.5 -11.5t-24.5 -31.5q-10 -24 -8 -46q13 14 36 14q21 0 35 -13.5t14 -34.5q0 -28 -18.5 -47t-46.5 -19q-29 0 -49.5 23z" />
    <glyph glyph-name="quotedblright" unicode="&#x201d;" horiz-adv-x="437" 
d="M244.5 695q20.5 -23 20.5 -64q0 -10 -1 -16q-6 -54 -38.5 -87t-82.5 -33q-20 0 -28 2l4 34q10 -2 26 -2q21 0 37 11.5t24 31.5q11 23 9 46q-13 -14 -37 -14q-21 0 -35 13.5t-14 36.5q0 27 18.5 45.5t46.5 18.5q30 0 50.5 -23zM412.5 695q20.5 -23 20.5 -64q0 -10 -1 -16
q-6 -54 -38.5 -87t-82.5 -33q-20 0 -28 2l4 34q10 -2 26 -2q21 0 37 11.5t24 31.5q11 23 9 46q-13 -14 -37 -14q-21 0 -35 13.5t-14 36.5q0 27 18.5 45.5t46.5 18.5q30 0 50.5 -23z" />
    <glyph glyph-name="quotedblbase" unicode="&#x201e;" horiz-adv-x="437" 
d="M179.5 84q20.5 -23 20.5 -64q0 -61 -33.5 -98.5t-87.5 -37.5q-20 0 -28 2l4 34q9 -2 25 -2q21 0 37.5 11.5t24.5 31.5q9 19 9 46q-13 -14 -37 -14q-21 0 -35 13.5t-14 36.5q0 27 18.5 45.5t46.5 18.5q29 0 49.5 -23zM347.5 84q20.5 -23 20.5 -64q0 -61 -33.5 -98.5
t-87.5 -37.5q-20 0 -28 2l4 34q9 -2 25 -2q21 0 37.5 11.5t24.5 31.5q9 19 9 46q-13 -14 -37 -14q-21 0 -35 13.5t-14 36.5q0 27 18.5 45.5t46.5 18.5q29 0 49.5 -23z" />
    <glyph glyph-name="dagger" unicode="&#x2020;" horiz-adv-x="429" 
d="M223 388h-132l6 59h132l28 270h65l-28 -270h132l-6 -59h-132l-60 -570h-65z" />
    <glyph glyph-name="daggerdbl" unicode="&#x2021;" horiz-adv-x="429" 
d="M184 19h-132l6 57h132l33 314h-132l6 57h132l28 270h65l-28 -270h132l-6 -57h-132l-33 -314h132l-6 -57h-132l-21 -201h-65z" />
    <glyph glyph-name="bullet" unicode="&#x2022;" horiz-adv-x="363" 
d="M127 225.5q-30 29.5 -30 73.5q0 35 18 65t47.5 47.5t63.5 17.5q46 0 76 -30t30 -74q0 -34 -18 -64t-48 -47.5t-64 -17.5q-45 0 -75 29.5z" />
    <glyph glyph-name="ellipsis" unicode="&#x2026;" horiz-adv-x="752" 
d="M100.5 6q-15.5 16 -15.5 40q0 27 20.5 47t47.5 20q24 0 39.5 -15.5t15.5 -38.5q0 -28 -20 -48.5t-48 -20.5q-24 0 -39.5 16zM334.5 6q-15.5 16 -15.5 40q0 27 20.5 47t47.5 20q24 0 39.5 -15.5t15.5 -38.5q0 -28 -20 -48.5t-48 -20.5q-24 0 -39.5 16zM569.5 6
q-15.5 16 -15.5 40q0 27 20.5 47t47.5 20q24 0 39.5 -15.5t15.5 -38.5q0 -28 -20 -48.5t-48 -20.5q-24 0 -39.5 16z" />
    <glyph glyph-name="perthousand" unicode="&#x2030;" horiz-adv-x="1143" 
d="M122 14l544 682l42 -25l-543 -682zM116.5 392q-41.5 43 -41.5 107q0 49 24 93t67.5 70.5t99.5 26.5q74 0 116 -43.5t42 -107.5q0 -49 -24 -92.5t-68 -70t-101 -26.5q-73 0 -114.5 43zM303.5 419.5q29.5 18.5 46 48.5t16.5 65q0 46 -27.5 75.5t-77.5 29.5
q-58 0 -93.5 -39.5t-35.5 -94.5q0 -45 27.5 -74t76.5 -29q38 0 67.5 18.5zM454.5 38.5q-41.5 43.5 -41.5 107.5q0 49 24 92.5t68 70t100 26.5q74 0 115.5 -43t41.5 -107q0 -49 -24 -93t-68 -70.5t-101 -26.5q-73 0 -114.5 43.5zM833.5 38.5q-41.5 43.5 -41.5 107.5
q0 49 24 92.5t68 70t100 26.5q74 0 115.5 -43t41.5 -107q0 -49 -24 -93t-68 -70.5t-101 -26.5q-73 0 -114.5 43.5zM643 65.5q29 18.5 45 49t16 65.5q0 45 -27.5 74.5t-76.5 29.5q-38 0 -67.5 -18.5t-46 -48.5t-16.5 -65q0 -46 27.5 -75.5t77.5 -29.5q39 0 68 18.5z
M1022 65.5q29 18.5 45 49t16 65.5q0 45 -27.5 74.5t-76.5 29.5q-38 0 -67.5 -18.5t-46 -48.5t-16.5 -65q0 -46 27.5 -75.5t77.5 -29.5q39 0 68 18.5z" />
    <glyph glyph-name="guilsinglleft" unicode="&#x2039;" horiz-adv-x="268" 
d="M35 261l225 189l34 -39l-179 -150l148 -150l-42 -38z" />
    <glyph glyph-name="guilsinglright" unicode="&#x203a;" horiz-adv-x="268" 
d="M29 111l178 150l-147 150l42 39l185 -189l-224 -188z" />
    <glyph glyph-name="fraction" unicode="&#x2044;" horiz-adv-x="147" 
d="M-184 14l544 682l42 -28l-545 -683z" />
    <glyph glyph-name="uni2070" unicode="&#x2070;" horiz-adv-x="412" 
d="M142.5 434.5q-35.5 41.5 -35.5 120.5q0 28 2 43q10 100 56.5 152t124.5 52q70 0 106 -41t36 -121q0 -27 -2 -42q-10 -100 -57.5 -152.5t-125.5 -52.5q-69 0 -104.5 41.5zM373 598q2 14 2 40q0 116 -90 116q-52 0 -81.5 -38.5t-37.5 -117.5q-2 -15 -2 -42q0 -59 21.5 -87
t66.5 -28q105 0 121 157z" />
    <glyph glyph-name="uni2074" unicode="&#x2074;" horiz-adv-x="385" 
d="M405 527h-64l-13 -128h-56l13 128h-171l28 267h55l-22 -218h116l12 117h56l-12 -117h64z" />
    <glyph glyph-name="uni2075" unicode="&#x2075;" horiz-adv-x="390" 
d="M141 422.5q-35 29.5 -32 80.5h55q-1 -29 21 -46t60 -17q46 0 75.5 29.5t29.5 79.5q0 35 -21 55t-58 20q-35 0 -57 -11.5t-36 -36.5h-52l22 218h257l-4 -44h-206l-14 -127q35 44 107 44q54 0 85.5 -30t31.5 -82q0 -73 -46 -117.5t-119 -44.5q-64 0 -99 29.5z" />
    <glyph glyph-name="uni2076" unicode="&#x2076;" horiz-adv-x="387" 
d="M362 643q36 -35 36 -90q0 -44 -20.5 -81t-58 -58.5t-85.5 -21.5q-62 0 -98 36t-36 91q0 31 11 59t32 49l134 167h65l-98 -117q6 1 20 1q62 0 98 -35zM314.5 470.5q28.5 31.5 28.5 77.5q0 37 -22 60t-62 23q-46 0 -75.5 -31t-29.5 -76q0 -38 22.5 -61.5t62.5 -23.5
q47 0 75.5 31.5z" />
    <glyph glyph-name="uni2077" unicode="&#x2077;" horiz-adv-x="344" 
d="M327 746h-206l5 48h289l-255 -394h-64z" />
    <glyph glyph-name="uni2078" unicode="&#x2078;" horiz-adv-x="389" 
d="M136 419.5q-37 26.5 -37 73.5q0 42 25.5 72t70.5 38q-33 8 -51 30t-18 52q0 52 42.5 84.5t110.5 32.5q59 0 95 -26t36 -69q0 -38 -24 -66t-65 -38q36 -7 56 -30t20 -56q0 -57 -44.5 -90.5t-116.5 -33.5q-63 0 -100 26.5zM328 645.5q26 20.5 26 53.5q0 29 -21.5 46
t-57.5 17q-41 0 -67 -21.5t-26 -55.5q0 -27 21.5 -43.5t57.5 -16.5q41 0 67 20.5zM312.5 457.5q27.5 22.5 27.5 59.5q0 30 -22.5 48t-61.5 18q-45 0 -72 -22.5t-27 -59.5q0 -30 22.5 -48t61.5 -18q44 0 71.5 22.5z" />
    <glyph glyph-name="uni2079" unicode="&#x2079;" horiz-adv-x="387" 
d="M401 616.5q-11 -28.5 -31 -49.5l-135 -167h-65l98 117q-6 -1 -20 -1q-62 0 -98 35.5t-36 91.5q0 43 21 79.5t58.5 58t84.5 21.5q61 0 97.5 -35.5t36.5 -89.5q0 -32 -11 -60.5zM191 586.5q22 -23.5 62 -23.5q46 0 75.5 31.5t29.5 77.5q0 36 -23 59.5t-62 23.5
q-46 0 -75 -31t-29 -77q0 -37 22 -60.5z" />
    <glyph glyph-name="uni207A" unicode="&#x207a;" horiz-adv-x="393" 
d="M234 565h-104l5 42h104l11 106h44l-11 -106h104l-5 -42h-104l-11 -105h-44z" />
    <glyph glyph-name="uni207B" unicode="&#x207b;" horiz-adv-x="393" 
d="M135 607h252l-5 -42h-252z" />
    <glyph glyph-name="uni207C" unicode="&#x207c;" horiz-adv-x="393" 
d="M134 671h267l-5 -42h-267zM120 546h267l-4 -41h-267z" />
    <glyph glyph-name="uni207D" unicode="&#x207d;" horiz-adv-x="227" 
d="M139.5 431.5q-24.5 55.5 -24.5 127.5q0 28 2 43q10 88 48.5 153t101.5 120l33 -33q-61 -53 -92.5 -108.5t-39.5 -131.5q-2 -15 -2 -42q0 -60 20.5 -106.5t63.5 -92.5l-41 -33q-45 48 -69.5 103.5z" />
    <glyph glyph-name="uni207E" unicode="&#x207e;" horiz-adv-x="227" 
d="M53 361q61 54 92.5 109.5t39.5 131.5q2 14 2 41q0 60 -20.5 106.5t-63.5 92.5l41 33q45 -49 70 -103.5t25 -124.5q0 -21 -3 -45q-9 -88 -48 -153t-102 -121z" />
    <glyph glyph-name="uni2080" unicode="&#x2080;" horiz-adv-x="412" 
d="M92.5 -40.5q-35.5 41.5 -35.5 120.5q0 28 2 43q10 100 56.5 152t124.5 52q70 0 106 -41t36 -121q0 -27 -2 -42q-10 -100 -57.5 -152.5t-125.5 -52.5q-69 0 -104.5 41.5zM323 123q2 14 2 40q0 116 -90 116q-52 0 -81.5 -38.5t-37.5 -117.5q-2 -15 -2 -42q0 -59 21.5 -87
t66.5 -28q105 0 121 157z" />
    <glyph glyph-name="uni2081" unicode="&#x2081;" horiz-adv-x="267" 
d="M147 207h-90l4 43q56 0 77.5 15.5t26.5 53.5h49l-42 -394h-55z" />
    <glyph glyph-name="uni2082" unicode="&#x2082;" horiz-adv-x="374" 
d="M66.5 34q27.5 40 88.5 67l70 32q67 30 67 90q0 26 -18.5 42t-49.5 16q-41 0 -67.5 -23.5t-30.5 -65.5h-57q7 61 50 98t109 37q57 0 90 -26.5t33 -70.5l-1 -13q-9 -79 -92 -117l-69 -32q-40 -18 -59 -39.5t-26 -55.5h220l-5 -48h-288q8 69 35.5 109z" />
    <glyph glyph-name="uni2083" unicode="&#x2083;" horiz-adv-x="381" 
d="M82 -54q-35 28 -35 79q0 12 1 18h57l-1 -11q0 -32 22 -50.5t60 -18.5q43 0 69 22.5t26 57.5q0 30 -21 47t-60 17h-37l5 44h37q39 0 62 17.5t27 49.5q3 29 -17 47t-56 18q-38 0 -63 -19.5t-29 -51.5h-57q5 51 47 83t107 32q58 0 92.5 -25.5t34.5 -68.5q0 -40 -24.5 -67
t-69.5 -36q35 -4 57.5 -27.5t22.5 -57.5q0 -57 -44 -92t-115 -35q-63 0 -98 28z" />
    <glyph glyph-name="uni2084" unicode="&#x2084;" horiz-adv-x="385" 
d="M355 52h-64l-13 -128h-56l13 128h-171l29 267h55l-23 -218h116l12 117h56l-12 -117h64z" />
    <glyph glyph-name="uni2085" unicode="&#x2085;" horiz-adv-x="390" 
d="M91 -52.5q-35 29.5 -32 80.5h55q-1 -29 21 -46t60 -17q46 0 75.5 29.5t29.5 79.5q0 35 -21 55t-58 20q-35 0 -57 -11.5t-36 -36.5h-52l23 218h257l-5 -44h-206l-13 -127q16 21 43 32.5t63 11.5q54 0 85.5 -30t31.5 -82q0 -73 -46 -117.5t-119 -44.5q-64 0 -99 29.5z" />
    <glyph glyph-name="uni2086" unicode="&#x2086;" horiz-adv-x="387" 
d="M312 168q36 -35 36 -90q0 -44 -20.5 -81t-58 -58.5t-85.5 -21.5q-62 0 -98 36t-36 91q0 31 11 59t32 49l135 167h65l-99 -117q6 1 20 1q62 0 98 -35zM264.5 -4.5q28.5 31.5 28.5 77.5q0 37 -22 60t-62 23q-46 0 -75.5 -31t-29.5 -76q0 -38 22.5 -61.5t62.5 -23.5
q47 0 75.5 31.5z" />
    <glyph glyph-name="uni2087" unicode="&#x2087;" horiz-adv-x="344" 
d="M277 271h-206l6 48h289l-256 -394h-64z" />
    <glyph glyph-name="uni2088" unicode="&#x2088;" horiz-adv-x="389" 
d="M86 -55.5q-37 26.5 -37 73.5q0 42 25.5 72t70.5 38q-33 8 -51 30t-18 52q0 52 42.5 84.5t110.5 32.5q59 0 95 -26t36 -69q0 -38 -24 -66t-65 -38q36 -7 56 -30t20 -56q0 -57 -44.5 -90.5t-116.5 -33.5q-63 0 -100 26.5zM278 170.5q26 20.5 26 53.5q0 29 -21.5 46
t-57.5 17q-41 0 -67 -21.5t-26 -55.5q0 -27 21.5 -43.5t57.5 -16.5q41 0 67 20.5zM262.5 -17.5q27.5 22.5 27.5 59.5q0 30 -22.5 48t-61.5 18q-45 0 -72 -22.5t-27 -59.5q0 -30 22.5 -48t61.5 -18q44 0 71.5 22.5z" />
    <glyph glyph-name="uni2089" unicode="&#x2089;" horiz-adv-x="387" 
d="M351 141.5q-11 -28.5 -31 -49.5l-135 -167h-65l98 117q-6 -1 -20 -1q-62 0 -98 35.5t-36 91.5q0 43 21 79.5t58.5 58t84.5 21.5q61 0 97.5 -35.5t36.5 -89.5q0 -32 -11 -60.5zM141 111.5q22 -23.5 62 -23.5q46 0 75.5 31.5t29.5 77.5q0 36 -23 59.5t-62 23.5
q-46 0 -75 -31t-29 -77q0 -37 22 -60.5z" />
    <glyph glyph-name="uni208A" unicode="&#x208a;" horiz-adv-x="393" 
d="M184 83h-104l4 42h104l11 106h44l-11 -106h104l-4 -42h-104l-11 -106h-44z" />
    <glyph glyph-name="uni208B" unicode="&#x208b;" horiz-adv-x="393" 
d="M84 125h252l-4 -42h-252z" />
    <glyph glyph-name="uni208C" unicode="&#x208c;" horiz-adv-x="393" 
d="M83 189h267l-5 -42h-267zM70 64h267l-5 -41h-267z" />
    <glyph glyph-name="uni208D" unicode="&#x208d;" horiz-adv-x="227" 
d="M89 -51.5q-25 54.5 -25 125.5q0 22 3 46q9 88 47.5 153t101.5 120l34 -33q-61 -53 -92.5 -108.5t-39.5 -131.5q-2 -15 -2 -43q0 -59 20.5 -106t62.5 -93l-40 -33q-45 49 -70 103.5z" />
    <glyph glyph-name="uni208E" unicode="&#x208e;" horiz-adv-x="227" 
d="M2 -122q61 54 93 110t40 132q2 14 2 41q0 60 -20.5 106.5t-63.5 92.5l40 33q45 -48 70 -103.5t25 -127.5q0 -27 -2 -42q-10 -89 -48.5 -154.5t-101.5 -120.5z" />
    <glyph glyph-name="uni20A9" unicode="&#x20a9;" horiz-adv-x="770" 
d="M707 396l-30 -94h107l-6 -51h-118l-79 -251h-65l-70 576l-192 -576h-65l-27 251h-118l6 51h107l-10 94h-87l5 51h76l-25 233h69l50 -578l193 578h56l73 -578l170 578h69l-73 -233h76l-5 -51h-87z" />
    <glyph glyph-name="Euro" unicode="&#x20ac;" horiz-adv-x="589" 
d="M434 89q42 39 59 105h66q-24 -92 -85 -148.5t-154 -56.5q-201 0 -205 257h-66l17 48h50q0 15 4 47q5 43 6 46h-60l18 48h51q57 257 259 257q93 0 142 -56t54 -147h-66q-4 66 -38 104.5t-99 38.5q-78 0 -122 -51.5t-64 -145.5h223l-18 -48h-214q-1 -3 -6 -46
q-4 -32 -4 -47h224l-17 -48h-208q1 -94 34 -145t111 -51q66 0 108 39z" />
    <glyph glyph-name="uni20AE" unicode="&#x20ae;" horiz-adv-x="511" 
d="M354 619l-18 -170l138 63l-6 -54l-137 -63l-9 -81l138 62l-6 -54l-138 -62l-27 -260h-68l24 227l-138 -62l6 54l138 62l8 82l-137 -63l5 54l138 63l21 202h-213l6 61h495l-6 -61h-214z" />
    <glyph glyph-name="uni20B4" unicode="&#x20b4;" horiz-adv-x="567" 
d="M293 300h266l-17 -40h-334q-33 -21 -48.5 -46.5t-15.5 -61.5q0 -49 35 -76.5t99 -27.5q77 0 125 36t54 98h63q-9 -88 -75.5 -141.5t-173.5 -53.5q-89 0 -140 41t-51 113q0 68 39 119h-52l17 40h80q25 17 56 29l128 52h-268l16 40h327q25 19 37 43t16 58l1 14q0 45 -32 71
t-90 26q-69 0 -111.5 -32t-48.5 -89h-62q8 83 70.5 131.5t156.5 48.5q84 0 132.5 -39t48.5 -107q0 -73 -40 -125h70l-16 -40h-93q-28 -22 -68 -39z" />
    <glyph glyph-name="uni20B8" unicode="&#x20b8;" horiz-adv-x="511" 
d="M79 680h495l-6 -61h-495zM270 469h-213l7 62h495l-7 -62h-214l-49 -469h-68z" />
    <glyph glyph-name="uni20B9" unicode="&#x20b9;" horiz-adv-x="514" 
d="M479 561q18 -43 17 -95h78l-17 -48h-66q-14 -74 -61.5 -128.5t-115.5 -75.5l125 -214h-78l-118 203h-5h-151l7 62h148q66 0 116 42.5t65 110.5h-314l5 48h314q-1 68 -42 110.5t-107 42.5h-149l6 61h460l-16 -47h-153q34 -29 52 -72z" />
    <glyph glyph-name="uni20BA" unicode="&#x20ba;" horiz-adv-x="458" 
d="M476 264q-14 -131 -98 -197.5t-235 -66.5h-65l24 224l-54 -25l5 53l54 25l9 84l-54 -25l6 53l54 25l27 266h68l-24 -232l181 85l-6 -53l-180 -85l-9 -84l181 85l-6 -53l-181 -85l-20 -196q123 0 184.5 51t72.5 151h66z" />
    <glyph glyph-name="uni20BD" unicode="&#x20bd;" horiz-adv-x="580" 
d="M186 203l-7 -69h177l-5 -46h-177l-9 -88h-67l9 88h-101l5 46h101l7 69h-101l7 62h101l43 415h234q61 0 108 -26t73 -73.5t26 -107.5q0 -11 -2 -31q-7 -69 -42.5 -123.5t-91 -85t-121.5 -30.5h-167zM193 265h163q51 0 93.5 26.5t67.5 72t25 101.5q0 68 -41.5 111
t-107.5 43h-163z" />
    <glyph glyph-name="uni2113" unicode="&#x2113;" horiz-adv-x="391" 
d="M112 131q0 9 2 35l2 12l-70 -55l-25 49l102 75l27 260q11 105 47.5 157.5t110.5 52.5q57 0 87.5 -35t30.5 -101q0 -11 -2 -35q-8 -79 -68.5 -154.5t-178.5 -169.5l-6 -58q-2 -20 -2 -27q0 -57 26 -73.5t66 -16.5q26 0 49 8t38 20l3 -50q-20 -17 -42.5 -26.5t-59.5 -9.5
q-137 0 -137 142zM328 445q41 63 41 131q0 88 -64 88q-43 0 -66 -38t-31 -109l-23 -223q102 88 143 151z" />
    <glyph glyph-name="uni2116" unicode="&#x2116;" horiz-adv-x="1107" 
d="M159 700h73l291 -588l62 588h65l-74 -700h-73l-291 589l-62 -589h-65zM746.5 125q-39.5 22 -60.5 60.5t-21 84.5q0 56 27.5 105t76 78t110.5 29q53 0 93 -22.5t61 -60.5t21 -85q0 -56 -27.5 -104.5t-76.5 -77.5t-111 -29q-53 0 -92.5 22zM919 180q33 20 51.5 54t18.5 73
q0 50 -31.5 83.5t-84.5 33.5q-41 0 -73.5 -20.5t-51 -55t-18.5 -73.5q0 -49 31 -82t84 -33q41 0 74 20zM641 59h387l-6 -59h-387z" />
    <glyph glyph-name="trademark" unicode="&#x2122;" horiz-adv-x="828" 
d="M181 654h-104l5 46h259l-5 -46h-105l-38 -361h-50zM419 700h78l87 -323l155 323h78l-43 -407h-50l36 341l-163 -341h-45l-90 341l-36 -341h-50z" />
    <glyph glyph-name="uni2126" unicode="&#x2126;" horiz-adv-x="707" 
d="M70 62h200l4 38q-89 27 -141.5 99t-52.5 166q0 10 2 34q9 87 54.5 158.5t121.5 113.5t171 42q88 0 151.5 -36t97 -99t33.5 -141q0 -12 -2 -38q-7 -69 -41.5 -130.5t-89.5 -106t-124 -63.5l-3 -37h200l-7 -62h-255l15 138q65 12 117 50t83 94t38 119q2 22 2 33
q0 62 -25.5 111.5t-75.5 77.5t-121 28q-77 0 -136 -33t-93.5 -90t-42.5 -127q-2 -20 -2 -31q0 -87 49 -151.5t136 -80.5l-15 -138h-255z" />
    <glyph glyph-name="estimated" unicode="&#x212e;" horiz-adv-x="517" 
d="M153.5 16q-46.5 28 -69 75t-22.5 105q0 10 2 32q7 69 39.5 123.5t86.5 85.5t124 31q54 0 97.5 -23.5t68.5 -65.5t25 -94q0 -16 -1 -24q0 -12 -4 -28h-343l-18 -175q50 -48 130 -48q67 0 118.5 32.5t71.5 80.5h23q-22 -58 -79.5 -96.5t-135.5 -38.5q-67 0 -113.5 28z
M413 255l15 148q-47 44 -116 44q-79 0 -137 -47l-15 -145h253z" />
    <glyph glyph-name="uni2153" unicode="&#x2153;" horiz-adv-x="759" 
d="M78 14l544 682l42 -28l-545 -683zM185 568h-90l4 43q56 0 77.5 15.5t25.5 53.5h49l-41 -394h-55zM467.5 22q-35.5 29 -35.5 80q0 10 1 16h57q-4 -37 18.5 -58.5t63.5 -21.5q43 0 69 22.5t26 57.5q0 30 -21 47t-60 17h-37l5 44h37q39 0 62 17.5t27 49.5q3 29 -17 47
t-56 18q-38 0 -63 -19.5t-29 -51.5h-57q5 51 47 83t107 32q58 0 92.5 -25.5t34.5 -68.5q0 -40 -24.5 -67t-69.5 -36q35 -4 57.5 -27.5t22.5 -57.5q0 -57 -44 -92t-115 -35q-63 0 -98.5 29z" />
    <glyph glyph-name="uni2154" unicode="&#x2154;" horiz-adv-x="871" 
d="M190 14l544 682l42 -28l-545 -683zM104.5 395q27.5 40 88.5 67l70 32q67 30 67 89q0 27 -18.5 43t-50.5 16q-41 0 -67 -23.5t-30 -65.5h-57q7 61 50 98t109 37q57 0 90 -26.5t33 -70.5l-1 -13q-9 -80 -93 -117l-68 -32q-40 -18 -59 -39.5t-26 -55.5h220l-5 -48h-288
q8 69 35.5 109zM579.5 22q-35.5 29 -35.5 80q0 10 1 16h57q-4 -37 18.5 -58.5t63.5 -21.5q43 0 69 22.5t26 57.5q0 30 -21 47t-60 17h-37l5 44h37q39 0 62 17.5t27 49.5q3 29 -17 47t-56 18q-38 0 -63 -19.5t-29 -51.5h-57q5 51 47 83t107 32q58 0 92.5 -25.5t34.5 -68.5
q0 -40 -24.5 -67t-69.5 -36q35 -4 57.5 -27.5t22.5 -57.5q0 -57 -44 -92t-115 -35q-63 0 -98.5 29z" />
    <glyph glyph-name="arrowleft" unicode="&#x2190;" horiz-adv-x="720" 
d="M47 350l261 216l33 -40l-182 -149h591l-6 -54h-591l151 -149l-41 -40z" />
    <glyph glyph-name="arrowup" unicode="&#x2191;" horiz-adv-x="482" 
d="M276 591l-166 -167l-37 37l242 239l190 -239l-43 -37l-132 168l-62 -592h-54z" />
    <glyph glyph-name="arrowright" unicode="&#x2192;" horiz-adv-x="720" 
d="M452 174l184 149h-592l6 54h591l-152 149l41 40l217 -216l-262 -216z" />
    <glyph glyph-name="arrowdown" unicode="&#x2193;" horiz-adv-x="482" 
d="M50 239l44 37l131 -167l63 591h55l-63 -591l166 167l36 -37l-241 -239z" />
    <glyph glyph-name="uni2196" unicode="&#x2196;" horiz-adv-x="554" 
d="M131 501l-11 -223l-55 -2l18 321l320 -15l-9 -55l-221 13l374 -418l-43 -39z" />
    <glyph glyph-name="uni2197" unicode="&#x2197;" horiz-adv-x="554" 
d="M33 122l462 418l-225 -13l4 55l323 15l-49 -321l-55 2l37 224l-462 -419z" />
    <glyph glyph-name="uni2198" unicode="&#x2198;" horiz-adv-x="554" 
d="M226 119l7 55l223 -13l-375 417l43 39l374 -417l10 222l56 3l-19 -322z" />
    <glyph glyph-name="uni2199" unicode="&#x2199;" horiz-adv-x="554" 
d="M81 425l54 -3l-36 -223l461 418l35 -39l-461 -417l223 13l-2 -55l-324 -16z" />
    <glyph glyph-name="partialdiff" unicode="&#x2202;" horiz-adv-x="569" 
d="M507 649.5q54 -65.5 54 -209.5q0 -45 -6 -101q-19 -178 -85 -266t-191 -88q-104 0 -156.5 54.5t-52.5 138.5q0 72 32 131.5t88.5 94t127.5 34.5q54 0 100 -21.5t73 -69.5q5 44 5 96q0 113 -37.5 162.5t-115.5 49.5q-75 0 -119 -43.5t-50 -111.5h-68q6 60 36.5 109
t83.5 77.5t122 28.5q105 0 159 -65.5zM417 102.5q46 57.5 65 176.5q-22 51 -66.5 75t-95.5 24q-58 0 -99.5 -26t-63.5 -70.5t-22 -97.5q0 -62 36.5 -100.5t111.5 -38.5q88 0 134 57.5z" />
    <glyph glyph-name="emptyset" unicode="&#x2205;" 
d="M542 463q35 -51 35 -117q0 -73 -33 -130t-89.5 -89t-124.5 -32q-42 0 -78 12.5t-63 36.5l-62 -56l-24 27l62 56q-35 49 -35 119q0 72 33 129t89.5 88.5t124.5 31.5q42 0 78 -12.5t63 -36.5l61 56l25 -27zM199 202l285 258q-43 37 -111 37q-56 0 -101 -25.5t-71 -72
t-26 -107.5q0 -54 24 -90zM509 433l-286 -258q44 -38 112 -38q55 0 100 25.5t71.5 72t26.5 107.5q0 55 -24 91z" />
    <glyph glyph-name="uni2206" unicode="&#x2206;" horiz-adv-x="573" 
d="M335 700h51l167 -700h-533zM467 62l-118 531l-228 -531h346z" />
    <glyph glyph-name="product" unicode="&#x220f;" horiz-adv-x="682" 
d="M182 733h-55l6 61h582l-6 -61h-55l-100 -948h-68l100 948h-336l-100 -948h-68z" />
    <glyph glyph-name="summation" unicode="&#x2211;" horiz-adv-x="620" 
d="M34 -154l404 444l-311 443l6 61h520l-6 -63h-435l311 -441l-404 -442h435l-7 -63h-520z" />
    <glyph glyph-name="minus" unicode="&#x2212;" horiz-adv-x="504" 
d="M91 344h394l-6 -59h-394z" />
    <glyph glyph-name="radical" unicode="&#x221a;" horiz-adv-x="780" 
d="M191 193h-121l6 58h168l86 -358l412 901h71l-469 -1009h-51z" />
    <glyph glyph-name="infinity" unicode="&#x221e;" horiz-adv-x="879" 
d="M125.5 138.5q-46.5 50.5 -46.5 125.5q0 58 26.5 110t77 84.5t118.5 32.5q54 0 101.5 -34t74.5 -100q40 66 95 100t110 34q86 0 132.5 -49.5t46.5 -125.5q0 -60 -26.5 -112.5t-77 -84t-118.5 -31.5q-55 0 -103 33.5t-74 99.5q-41 -67 -95 -100t-109 -33q-86 0 -132.5 50.5
zM357.5 182q47.5 36 78.5 107q-16 70 -56 106.5t-86 36.5q-47 0 -81.5 -22.5t-53 -60t-18.5 -79.5q0 -54 31.5 -89t91.5 -35q46 0 93.5 36zM726.5 168.5q34.5 22.5 53 60t18.5 79.5q0 54 -31.5 89t-91.5 35q-46 0 -93.5 -36.5t-78.5 -106.5q16 -71 56 -107t86 -36
q47 0 81.5 22.5z" />
    <glyph glyph-name="integral" unicode="&#x222b;" horiz-adv-x="378" 
d="M28 -208l6 57q15 -6 25.5 -8.5t24.5 -2.5q27 0 43.5 19.5t20.5 56.5l79 750q6 65 37 97.5t74 32.5q47 0 72 -12l-6 -56q-15 6 -25 8.5t-24 2.5q-27 0 -44 -19.5t-21 -56.5l-78 -751q-7 -65 -37.5 -97.5t-73.5 -32.5q-47 0 -73 12z" />
    <glyph glyph-name="approxequal" unicode="&#x2248;" horiz-adv-x="536" 
d="M359 341.5q-22 8.5 -52 24.5q-33 18 -56 26.5t-51 8.5q-52 0 -108 -52l6 60q25 25 53.5 37.5t56.5 12.5q25 0 49 -9t63 -27q29 -16 50.5 -24t41.5 -8q52 0 114 54l-6 -59q-54 -53 -114 -53q-25 0 -47 8.5zM343 179.5q-22 8.5 -52 24.5q-33 18 -56 26.5t-51 8.5
q-27 0 -55 -14.5t-52 -37.5l6 60q24 25 52.5 37.5t56.5 12.5q25 0 50 -9t63 -28q32 -16 52.5 -23.5t38.5 -7.5q52 0 115 54l-6 -59q-27 -27 -57 -40t-58 -13q-25 0 -47 8.5z" />
    <glyph glyph-name="notequal" unicode="&#x2260;" horiz-adv-x="534" 
d="M362 373l-68 -119h212l-6 -58h-240l-66 -114h-55l66 114h-129l6 58h157l68 119h-213l6 59h241l66 113h55l-66 -113h128l-6 -59h-156z" />
    <glyph glyph-name="lessequal" unicode="&#x2264;" horiz-adv-x="504" 
d="M92 345l5 48l404 121l-7 -63l-299 -82l282 -82l-6 -63zM65 96l6 59h394l-6 -59h-394z" />
    <glyph glyph-name="greaterequal" unicode="&#x2265;" horiz-adv-x="504" 
d="M87 287l300 82l-283 82l7 63l378 -121l-5 -48l-403 -121zM71 155h394l-6 -59h-394z" />
    <glyph glyph-name="uni2460" unicode="&#x2460;" horiz-adv-x="799" 
d="M224.5 24.5q-73.5 41.5 -112 114t-38.5 164.5q0 23 3 47q11 102 63.5 186t139 132.5t195.5 48.5q100 0 173 -41.5t111.5 -114.5t38.5 -165q0 -31 -2 -46q-11 -103 -63.5 -186.5t-139 -132t-195.5 -48.5q-100 0 -173.5 41.5zM568.5 73.5q73.5 42.5 118.5 115.5t55 161
q2 26 2 40q0 79 -32.5 143t-94.5 100.5t-147 36.5q-92 0 -166 -42.5t-119 -115.5t-54 -162q-2 -14 -2 -41q0 -79 32.5 -142t94.5 -99.5t147 -36.5q92 0 165.5 42.5zM432 427h-82l4 39q51 0 70.5 14.5t23.5 48.5h45l-38 -358h-50z" />
    <glyph glyph-name="uni2461" unicode="&#x2461;" horiz-adv-x="799" 
d="M224.5 24.5q-73.5 41.5 -112 114t-38.5 164.5q0 23 3 47q11 102 63.5 186t139 132.5t195.5 48.5q100 0 173 -41.5t111.5 -114.5t38.5 -165q0 -31 -2 -46q-11 -103 -63.5 -186.5t-139 -132t-195.5 -48.5q-100 0 -173.5 41.5zM568.5 73.5q73.5 42.5 118.5 115.5t55 161
q2 26 2 40q0 79 -32.5 143t-94.5 100.5t-147 36.5q-92 0 -166 -42.5t-119 -115.5t-54 -162q-2 -14 -2 -41q0 -79 32.5 -142t94.5 -99.5t147 -36.5q92 0 165.5 42.5zM309 273q25 36 80 61l64 29q61 26 61 82q0 24 -16.5 38t-45.5 14q-37 0 -60.5 -21.5t-27.5 -59.5h-52
q6 56 45.5 89.5t99.5 33.5q52 0 81.5 -23.5t29.5 -63.5q0 -39 -22 -70t-63 -49l-62 -29q-37 -17 -54.5 -36.5t-22.5 -50.5h200l-5 -43h-262q7 63 32 99z" />
    <glyph glyph-name="uni2462" unicode="&#x2462;" horiz-adv-x="799" 
d="M224.5 24.5q-73.5 41.5 -112 114t-38.5 164.5q0 23 3 47q11 102 63.5 186t139 132.5t195.5 48.5q100 0 173 -41.5t111.5 -114.5t38.5 -165q0 -31 -2 -46q-11 -103 -63.5 -186.5t-139 -132t-195.5 -48.5q-100 0 -173.5 41.5zM568.5 73.5q73.5 42.5 118.5 115.5t55 161
q2 26 2 40q0 79 -32.5 143t-94.5 100.5t-147 36.5q-92 0 -166 -42.5t-119 -115.5t-54 -162q-2 -14 -2 -41q0 -79 32.5 -142t94.5 -99.5t147 -36.5q92 0 165.5 42.5zM327 191q-32 26 -32 73l1 14h52q-3 -33 17.5 -52.5t57.5 -19.5q39 0 62.5 20.5t23.5 53.5q0 27 -19.5 41.5
t-54.5 14.5h-34l5 40h34q37 0 58.5 18t21.5 50q0 24 -18 38t-48 14q-35 0 -57.5 -17.5t-26.5 -46.5h-52q5 47 43.5 75.5t97.5 28.5q52 0 83.5 -23.5t31.5 -62.5q0 -36 -22 -60.5t-63 -32.5q32 -3 52.5 -25t20.5 -53q0 -51 -40.5 -82.5t-104.5 -31.5q-58 0 -90 26z" />
    <glyph glyph-name="uni2463" unicode="&#x2463;" horiz-adv-x="799" 
d="M648 675.5q73 -41.5 111.5 -114.5t38.5 -165q0 -31 -2 -46q-11 -103 -63.5 -186.5t-139 -132t-195.5 -48.5q-100 0 -173.5 41.5t-112 114t-38.5 164.5q0 23 3 47q11 102 63.5 186t139 132.5t195.5 48.5q100 0 173 -41.5zM568.5 73.5q73.5 42.5 118.5 115.5t55 161
q2 26 2 40q0 79 -32.5 143t-94.5 100.5t-147 36.5q-92 0 -166 -42.5t-119 -115.5t-54 -162q-2 -14 -2 -41q0 -79 32.5 -142t94.5 -99.5t147 -36.5q92 0 165.5 42.5zM521 332h58l-5 -45h-58l-12 -116h-51l12 116h-155l26 243h50l-21 -198h105l11 106h51z" />
    <glyph glyph-name="uni2464" unicode="&#x2464;" horiz-adv-x="799" 
d="M224.5 24.5q-73.5 41.5 -112 114t-38.5 164.5q0 23 3 47q11 102 63.5 186t139 132.5t195.5 48.5q100 0 173 -41.5t111.5 -114.5t38.5 -165q0 -31 -2 -46q-11 -103 -63.5 -186.5t-139 -132t-195.5 -48.5q-100 0 -173.5 41.5zM568.5 73.5q73.5 42.5 118.5 115.5t55 161
q2 26 2 40q0 79 -32.5 143t-94.5 100.5t-147 36.5q-92 0 -166 -42.5t-119 -115.5t-54 -162q-2 -14 -2 -41q0 -79 32.5 -142t94.5 -99.5t147 -36.5q92 0 165.5 42.5zM324 189q-32 27 -29 73h50q-1 -27 18.5 -42.5t54.5 -15.5q43 0 70 27t27 71q0 33 -19.5 51.5t-53.5 18.5
q-32 0 -51.5 -10.5t-33.5 -33.5h-47l21 198h233l-4 -40h-187l-12 -115q32 40 97 40q49 0 78 -28t29 -76q0 -10 -1 -15q-7 -59 -47.5 -94.5t-102.5 -35.5q-58 0 -90 27z" />
    <glyph glyph-name="uni2465" unicode="&#x2465;" horiz-adv-x="799" 
d="M648 675.5q73 -41.5 111.5 -114.5t38.5 -165q0 -31 -2 -46q-11 -103 -63.5 -186.5t-139 -132t-195.5 -48.5q-100 0 -173.5 41.5t-112 114t-38.5 164.5q0 23 3 47q11 102 63.5 186t139 132.5t195.5 48.5q100 0 173 -41.5zM568.5 73.5q73.5 42.5 118.5 115.5t55 161
q2 26 2 40q0 79 -32.5 143t-94.5 100.5t-147 36.5q-92 0 -166 -42.5t-119 -115.5t-54 -162q-2 -14 -2 -41q0 -79 32.5 -142t94.5 -99.5t147 -36.5q92 0 165.5 42.5zM529 396q33 -32 33 -82q0 -39 -19 -72.5t-53 -53.5t-77 -20q-56 0 -89 33t-33 83q0 56 38 97l123 153h59
l-90 -107q6 1 19 1q56 0 89 -32zM486 239.5q26 28.5 26 70.5q0 34 -20 55t-56 21q-41 0 -68.5 -29t-27.5 -70q0 -33 21 -54.5t56 -21.5q43 0 69 28.5z" />
    <glyph glyph-name="uni2466" unicode="&#x2466;" horiz-adv-x="799" 
d="M224.5 24.5q-73.5 41.5 -112 114t-38.5 164.5q0 23 3 47q11 102 63.5 186t139 132.5t195.5 48.5q100 0 173 -41.5t111.5 -114.5t38.5 -165q0 -31 -2 -46q-11 -103 -63.5 -186.5t-139 -132t-195.5 -48.5q-100 0 -173.5 41.5zM568.5 73.5q73.5 42.5 118.5 115.5t55 161
q2 26 2 40q0 79 -32.5 143t-94.5 100.5t-147 36.5q-92 0 -166 -42.5t-119 -115.5t-54 -162q-2 -14 -2 -41q0 -79 32.5 -142t94.5 -99.5t147 -36.5q92 0 165.5 42.5zM527 485h-187l4 43h262l-231 -358h-58z" />
    <glyph glyph-name="uni2467" unicode="&#x2467;" horiz-adv-x="799" 
d="M224.5 24.5q-73.5 41.5 -112 114t-38.5 164.5q0 23 3 47q11 102 63.5 186t139 132.5t195.5 48.5q100 0 173 -41.5t111.5 -114.5t38.5 -165q0 -31 -2 -46q-11 -103 -63.5 -186.5t-139 -132t-195.5 -48.5q-100 0 -173.5 41.5zM568.5 73.5q73.5 42.5 118.5 115.5t55 161
q2 26 2 40q0 79 -32.5 143t-94.5 100.5t-147 36.5q-92 0 -166 -42.5t-119 -115.5t-54 -162q-2 -14 -2 -41q0 -79 32.5 -142t94.5 -99.5t147 -36.5q92 0 165.5 42.5zM325.5 189q-33.5 24 -33.5 66q0 38 23.5 65.5t64.5 35.5q-30 7 -46 26.5t-16 47.5q0 48 38.5 77t99.5 29
q54 0 86.5 -23.5t32.5 -62.5q0 -35 -22 -60.5t-59 -33.5q33 -7 51 -27.5t18 -51.5q0 -52 -40.5 -82t-105.5 -30q-58 0 -91.5 24zM501 394.5q23 18.5 23 48.5q0 26 -19.5 41.5t-51.5 15.5q-37 0 -61 -19.5t-24 -50.5q0 -25 19.5 -39.5t52.5 -14.5q38 0 61 18.5zM486.5 224
q25.5 21 25.5 55q0 27 -21 42.5t-56 15.5q-41 0 -66 -20t-25 -53q0 -28 20.5 -44.5t56.5 -16.5q40 0 65.5 21z" />
    <glyph glyph-name="uni2468" unicode="&#x2468;" horiz-adv-x="799" 
d="M648 675.5q73 -41.5 111.5 -114.5t38.5 -165q0 -31 -2 -46q-11 -103 -63.5 -186.5t-139 -132t-195.5 -48.5q-100 0 -173.5 41.5t-112 114t-38.5 164.5q0 23 3 47q11 102 63.5 186t139 132.5t195.5 48.5q100 0 173 -41.5zM568.5 73.5q73.5 42.5 118.5 115.5t55 161
q2 26 2 40q0 79 -32.5 143t-94.5 100.5t-147 36.5q-92 0 -166 -42.5t-119 -115.5t-54 -162q-2 -14 -2 -41q0 -79 32.5 -142t94.5 -99.5t147 -36.5q92 0 165.5 42.5zM549 500q33 -32 33 -82q0 -61 -41 -102l-119 -149h-59l89 106q-6 -1 -18 -1q-56 0 -89.5 33t-33.5 83
q0 40 19 73t53.5 52t77.5 19q55 0 88 -32zM381 336q20 -21 57 -21q41 0 68 28.5t27 69.5q0 34 -20.5 55.5t-55.5 21.5q-43 0 -69.5 -28.5t-26.5 -70.5q0 -34 20 -55z" />
    <glyph glyph-name="uni24EA" unicode="&#x24ea;" horiz-adv-x="799" 
d="M224.5 24.5q-73.5 41.5 -112 114t-38.5 164.5q0 23 3 47q11 102 63.5 186t139 132.5t195.5 48.5q100 0 173 -41.5t111.5 -114.5t38.5 -165q0 -31 -2 -46q-11 -103 -63.5 -186.5t-139 -132t-195.5 -48.5q-100 0 -173.5 41.5zM568.5 73.5q73.5 42.5 118.5 115.5t55 161
q2 26 2 40q0 79 -32.5 143t-94.5 100.5t-147 36.5q-92 0 -166 -42.5t-119 -115.5t-54 -162q-2 -14 -2 -41q0 -79 32.5 -142t94.5 -99.5t147 -36.5q92 0 165.5 42.5zM321.5 202.5q-32.5 37.5 -32.5 109.5q0 11 2 39q10 91 51.5 138t112.5 47q63 0 96.5 -37.5t33.5 -109.5
q0 -12 -2 -38q-10 -91 -53 -138.5t-114 -47.5q-62 0 -94.5 37.5zM531 351q2 26 2 37q0 105 -82 105q-93 0 -108 -142q-2 -28 -2 -38q0 -105 80 -105q95 0 110 143z" />
    <glyph glyph-name="uni24FF" unicode="&#x24ff;" horiz-adv-x="799" 
d="M224.5 24.5q-73.5 41.5 -112 114t-38.5 164.5q0 23 3 47q11 102 63.5 186t139 132.5t195.5 48.5q100 0 173 -41.5t111.5 -114.5t38.5 -165q0 -31 -2 -46q-11 -103 -63.5 -186.5t-139 -132t-195.5 -48.5q-100 0 -173.5 41.5zM529.5 212.5q42.5 47.5 52.5 138.5q2 28 2 39
q0 72 -33 109t-96 37q-71 0 -113 -47t-52 -138q-2 -28 -2 -39q0 -72 33 -109.5t95 -37.5q71 0 113.5 47.5zM341 313q0 10 2 38q15 142 108 142q81 0 81 -105q0 -11 -2 -37q-8 -72 -34.5 -107.5t-74.5 -35.5q-80 0 -80 105z" />
    <glyph glyph-name="lozenge" unicode="&#x25ca;" horiz-adv-x="555" 
d="M92 396l240 398h59l156 -398l-239 -396h-59zM480 396l-126 328l-194 -328l125 -326z" />
    <glyph glyph-name="uni2776" unicode="&#x2776;" horiz-adv-x="799" 
d="M224.5 24.5q-73.5 41.5 -112 114t-38.5 164.5q0 23 3 47q11 102 63.5 186t139 132.5t195.5 48.5q100 0 173 -41.5t111.5 -114.5t38.5 -165q0 -31 -2 -46q-11 -103 -63.5 -186.5t-139 -132t-195.5 -48.5q-100 0 -173.5 41.5zM458 171l38 358h-44q-4 -35 -24 -49t-71 -14
l-4 -39h82l-27 -256h50z" />
    <glyph glyph-name="uni2777" unicode="&#x2777;" horiz-adv-x="799" 
d="M224.5 24.5q-73.5 41.5 -112 114t-38.5 164.5q0 23 3 47q11 102 63.5 186t139 132.5t195.5 48.5q100 0 173 -41.5t111.5 -114.5t38.5 -165q0 -31 -2 -46q-11 -103 -63.5 -186.5t-139 -132t-195.5 -48.5q-100 0 -173.5 41.5zM539 174l5 43h-200q5 31 22.5 50.5t54.5 36.5
l62 28q85 39 85 120q0 40 -30 63.5t-82 23.5q-59 0 -98.5 -33.5t-45.5 -89.5h52q4 38 27 59.5t61 21.5q28 0 45 -14.5t17 -38.5q0 -55 -61 -81l-64 -29q-55 -25 -80 -61.5t-32 -98.5h262z" />
    <glyph glyph-name="uni2778" unicode="&#x2778;" horiz-adv-x="799" 
d="M224.5 24.5q-73.5 41.5 -112 114t-38.5 164.5q0 23 3 47q11 102 63.5 186t139 132.5t195.5 48.5q100 0 173 -41.5t111.5 -114.5t38.5 -165q0 -31 -2 -46q-11 -103 -63.5 -186.5t-139 -132t-195.5 -48.5q-100 0 -173.5 41.5zM521 196.5q40 31.5 40 82.5q0 31 -20 52.5
t-52 25.5q41 8 63 32.5t22 60.5q0 39 -31.5 62.5t-83.5 23.5q-60 0 -98 -28.5t-43 -76.5h52q4 30 26.5 47.5t57.5 17.5q30 0 48 -14t18 -38q0 -32 -21.5 -50t-58.5 -18h-34l-5 -40h34q35 0 54 -14.5t19 -40.5q0 -34 -23 -54.5t-62 -20.5q-38 0 -58.5 19t-16.5 53h-52l-1 -14
q0 -47 32 -73t90 -26q64 0 104 31.5z" />
    <glyph glyph-name="uni2779" unicode="&#x2779;" horiz-adv-x="799" 
d="M224.5 24.5q-73.5 41.5 -112 114t-38.5 164.5q0 23 3 47q11 102 63.5 186t139 132.5t195.5 48.5q100 0 173 -41.5t111.5 -114.5t38.5 -165q0 -31 -2 -46q-11 -103 -63.5 -186.5t-139 -132t-195.5 -48.5q-100 0 -173.5 41.5zM492 171l12 116h58l5 45h-58l11 106h-51
l-11 -106h-105l21 198h-50l-26 -243h155l-12 -116h51z" />
    <glyph glyph-name="uni277A" unicode="&#x277a;" horiz-adv-x="799" 
d="M224.5 24.5q-73.5 41.5 -112 114t-38.5 164.5q0 23 3 47q11 102 63.5 186t139 132.5t195.5 48.5q100 0 173 -41.5t111.5 -114.5t38.5 -165q0 -31 -2 -46q-11 -103 -63.5 -186.5t-139 -132t-195.5 -48.5q-100 0 -173.5 41.5zM516 197q40 35 47 94q1 5 1 16
q0 49 -28.5 76.5t-78.5 27.5q-64 0 -96 -40l12 115h187l4 40h-233l-21 -198h46q15 23 34.5 33.5t50.5 10.5q34 0 53 -18t19 -50q0 -45 -26.5 -72.5t-68.5 -27.5q-35 0 -54.5 15.5t-18.5 42.5h-50q-3 -47 29 -73.5t90 -26.5q62 0 102 35z" />
    <glyph glyph-name="uni277B" unicode="&#x277b;" horiz-adv-x="799" 
d="M224.5 24.5q-73.5 41.5 -112 114t-38.5 164.5q0 23 3 47q11 102 63.5 186t139 132.5t195.5 48.5q100 0 173 -41.5t111.5 -114.5t38.5 -165q0 -31 -2 -46q-11 -103 -63.5 -186.5t-139 -132t-195.5 -48.5q-100 0 -173.5 41.5zM492 188.5q34 19.5 53 53t19 73.5
q0 48 -31.5 80t-85.5 33q-15 0 -29 -6l95 112h-59l-118 -147q-43 -52 -43 -103q0 -50 33 -82.5t89 -32.5q43 0 77 19.5zM362.5 232q-20.5 21 -20.5 55q0 41 27 70t69 29q36 0 56 -21.5t20 -55.5q0 -41 -26.5 -69.5t-68.5 -28.5q-36 0 -56.5 21z" />
    <glyph glyph-name="uni277C" unicode="&#x277c;" horiz-adv-x="799" 
d="M224.5 24.5q-73.5 41.5 -112 114t-38.5 164.5q0 23 3 47q11 102 63.5 186t139 132.5t195.5 48.5q100 0 173 -41.5t111.5 -114.5t38.5 -165q0 -31 -2 -46q-11 -103 -63.5 -186.5t-139 -132t-195.5 -48.5q-100 0 -173.5 41.5zM375 170l231 358h-263l-4 -43h188l-210 -315
h58z" />
    <glyph glyph-name="uni277D" unicode="&#x277d;" horiz-adv-x="799" 
d="M224.5 24.5q-73.5 41.5 -112 114t-38.5 164.5q0 23 3 47q11 102 63.5 186t139 132.5t195.5 48.5q100 0 173 -41.5t111.5 -114.5t38.5 -165q0 -31 -2 -46q-11 -103 -63.5 -186.5t-139 -132t-195.5 -48.5q-100 0 -173.5 41.5zM521.5 195.5q40.5 30.5 40.5 82.5
q0 30 -18 50.5t-51 27.5q37 8 59 33.5t22 60.5q0 39 -32.5 62.5t-86.5 23.5q-61 0 -99.5 -29t-38.5 -76q0 -28 16 -48t46 -27q-41 -8 -64.5 -35.5t-23.5 -65.5q0 -42 33.5 -66t91.5 -24q65 0 105.5 30.5zM386 390q-19 15 -19 39q0 32 23.5 51.5t61.5 19.5q32 0 51.5 -15.5
t19.5 -41.5q0 -30 -23.5 -49t-61.5 -19q-33 0 -52 15zM364 219q-20 17 -20 45q0 33 24.5 53t65.5 20q35 0 56 -15.5t21 -42.5q0 -34 -25.5 -55.5t-65.5 -21.5q-36 0 -56 17z" />
    <glyph glyph-name="uni277E" unicode="&#x277e;" horiz-adv-x="799" 
d="M224.5 24.5q-73.5 41.5 -112 114t-38.5 164.5q0 23 3 47q11 102 63.5 186t139 132.5t195.5 48.5q100 0 173 -41.5t111.5 -114.5t38.5 -165q0 -31 -2 -46q-11 -103 -63.5 -186.5t-139 -132t-195.5 -48.5q-100 0 -173.5 41.5zM417 167l125 155q16 20 25.5 45.5t9.5 51.5
q0 49 -33 81t-89 32q-43 0 -77 -19.5t-53 -52.5t-19 -72q0 -50 31.5 -82t85.5 -33q16 0 28 6l-94 -112h60zM376 336.5q-20 21.5 -20 55.5q0 41 26.5 69.5t68.5 28.5q36 0 56.5 -21t20.5 -53q0 -43 -26.5 -72t-69.5 -29q-36 0 -56 21.5z" />
    <glyph glyph-name="uniF8FF" unicode="&#xf8ff;" horiz-adv-x="800" 
d="M223 27.5q-74 44.5 -113 119t-39 162.5q0 13 2 41q10 96 63.5 180.5t141.5 135.5t197 51q101 0 175.5 -44.5t113.5 -119t39 -162.5q0 -13 -2 -41q-10 -96 -64 -180.5t-142 -135.5t-197 -51q-101 0 -175 44.5zM575.5 52q82.5 46 136.5 125t64 173q2 24 2 35q0 83 -39 154
t-108.5 113.5t-157.5 42.5q-95 0 -178 -48t-136 -127.5t-62 -169.5q-2 -26 -2 -37q0 -86 39.5 -156t109.5 -110.5t157 -40.5q92 0 174.5 46zM264.5 468q-10.5 11 -10.5 27q0 20 13.5 34t32.5 14q17 0 28 -11t11 -28q0 -19 -14.5 -33t-33.5 -14q-16 0 -26.5 11zM561.5 468
q-10.5 11 -10.5 27q0 20 13.5 34t32.5 14q17 0 28 -11t11 -28q0 -19 -14.5 -33t-33.5 -14q-16 0 -26.5 11zM453 527l-135 -243h178l-3 -25h-247zM162.5 236q7.5 15 22.5 23l25 13q11 6 14.5 17.5t6.5 39.5h17q-4 -35 -10.5 -48.5t-17.5 -20.5l-23 -13q-24 -13 -27 -40h-16
q1 14 8.5 29zM617 161q5 17 5 23q0 11 -14 18l-39 20q-33 17 -33 50q0 20 13 48l14 -5q-11 -24 -11 -41q0 -27 29 -41l38 -19q20 -10 20 -29q0 -10 -6 -28zM278.5 104.5q-44.5 38.5 -86.5 123.5q6 -4 42.5 -27.5t70 -33.5t68.5 -10q57 0 118.5 8t104.5 29l4 2
q-18 -32 -57 -62.5t-85.5 -49t-84.5 -18.5q-50 0 -94.5 38.5zM472.5 117q52.5 25 76.5 43l-36 -8q-47 -10 -76 -15t-65 -5q-30 0 -69 11.5t-60 30.5q22 -42 63 -62t70 -20q44 0 96.5 25z" />
    <glyph glyph-name="dollar.tf" 
d="M515 51q-60 -58 -159 -65l-10 -86h-51l10 86q-97 6 -149 58.5t-52 139.5q0 10 2 30h68q-1 -7 -1 -21q0 -68 42.5 -108t120.5 -40q79 0 125 38t46 106q0 43 -25.5 69t-75.5 40l-116 28q-63 16 -97.5 55t-34.5 102q0 52 26.5 98.5t77 76.5t117.5 33l9 89h51l-10 -91
q78 -9 121 -56.5t43 -122.5q0 -16 -1 -24h-68q1 6 1 19q0 60 -36.5 93.5t-103.5 33.5q-75 0 -116.5 -40t-41.5 -100q0 -44 27.5 -71t82.5 -40l120 -31q56 -15 87 -52t31 -96q0 -93 -60 -151z" />
    <glyph glyph-name="cent.tf" 
d="M446.5 186.5q40.5 26.5 54.5 77.5h65q-15 -69 -68.5 -112.5t-132.5 -49.5l-11 -102h-51l11 102q-83 8 -130.5 63t-47.5 141q0 10 2 34q11 100 71.5 164t154.5 73l10 103h51l-10 -103q78 -7 122 -50.5t44 -113.5h-65q-3 52 -37.5 79.5t-95.5 27.5q-54 0 -95 -26t-64 -73.5
t-23 -109.5q0 -70 38.5 -110.5t105.5 -40.5q61 0 101.5 26.5z" />
    <glyph glyph-name="sterling.tf" 
d="M220.5 133.5q-20.5 -45.5 -48.5 -71.5h357l-7 -62h-433l5 48q34 29 55.5 72t28.5 110l12 115h-67l6 51h67l8 80q11 107 71 161.5t154 54.5q84 0 131 -43.5t47 -120.5q0 -17 -1 -26h-68q1 7 1 21q0 54 -29.5 83.5t-87.5 29.5q-69 0 -105.5 -40.5t-45.5 -125.5l-7 -74h185
l-6 -51h-185l-11 -103q-6 -63 -26.5 -108.5z" />
    <glyph glyph-name="florin.tf" 
d="M505 609.5q-28 -22.5 -45 -83.5l-23 -83h138l-16 -56h-138l-128 -450q-44 -160 -175 -160q-41 0 -70 12l16 56q11 -5 22.5 -7t29.5 -2q41 0 69 21.5t43 78.5l128 451h-101l16 56h101l23 84q26 89 72.5 126.5t110.5 37.5q39 0 63 -12l-15 -56q-19 9 -52 9q-41 0 -69 -22.5
z" />
    <glyph glyph-name="yen.tf" 
d="M386 273h155l-5 -46h-157l-9 -86h157l-5 -48h-157l-10 -93h-69l10 93h-157l5 48h157l9 86h-157l5 46h155l-176 407h76l141 -352l215 352h76z" />
    <glyph glyph-name="Euro.tf" 
d="M473 89q42 39 59 105h66q-23 -91 -84 -148t-155 -57q-200 0 -204 257h-67l18 48h50q0 15 4 47q5 43 6 46h-60l17 48h52q57 257 258 257q94 0 143 -56t53 -147h-66q-4 66 -37.5 104.5t-99.5 38.5q-78 0 -122 -51.5t-64 -145.5h223l-17 -48h-215q-1 -3 -6 -46
q-4 -32 -4 -47h225l-18 -48h-208q1 -94 34 -145t111 -51q66 0 108 39z" />
    <glyph glyph-name="uni20A9.tf" 
d="M606 396l-26 -94h76l-6 -51h-85l-71 -251h-67l-45 578l-167 -578h-67l-19 251h-86l6 51h77l-6 94h-61l5 51h51l-17 233h69l29 -577l166 577h61l45 -577l150 577h68l-65 -233h50l-5 -51h-60z" />
    <glyph glyph-name="uni20B4.tf" 
d="M434 342l-101 -42h256l-5 -40h-336q-33 -21 -48.5 -46.5t-15.5 -61.5q0 -49 35 -76.5t99 -27.5q77 0 125 36t54 98h63q-9 -88 -75.5 -141.5t-173.5 -53.5q-89 0 -140 41t-51 113q0 68 39 119h-58l5 40h98q25 17 56 29l128 52h-274l4 40h345q25 19 37 43t16 58l1 14
q0 45 -32 71t-90 26q-69 0 -111.5 -32t-48.5 -89h-62q8 83 70.5 131.5t156.5 48.5q84 0 132.5 -39t48.5 -107q0 -73 -40 -125h60l-4 -40h-95q-28 -22 -68 -39z" />
    <glyph glyph-name="uni20B8.tf" 
d="M144 680h495l-6 -61h-495zM335 469h-213l7 62h495l-7 -62h-214l-49 -469h-68z" />
    <glyph glyph-name="uni20AE.tf" 
d="M419 619l-18 -170l138 63l-6 -54l-137 -63l-9 -81l138 62l-6 -54l-138 -62l-27 -260h-68l24 227l-138 -62l6 54l138 62l8 82l-137 -63l5 54l138 63l21 202h-213l6 61h495l-6 -61h-214z" />
    <glyph glyph-name="perthousand.tf" 
d="M441 677l-351 -693l-21 11l351 692zM251.5 393q-36.5 -48 -90.5 -48q-49 0 -75.5 38.5t-26.5 100.5q0 9 2 31q8 74 44.5 122t91.5 48q48 0 74.5 -38.5t26.5 -100.5q0 -9 -2 -31q-8 -74 -44.5 -122zM106 488q0 -44 15.5 -70t44.5 -26q38 0 62 43.5t24 108.5
q0 43 -15.5 68.5t-44.5 25.5q-34 0 -56.5 -34t-28.5 -89q-1 -9 -1 -27zM626.5 298q27.5 -39 27.5 -101q0 -54 -17.5 -100.5t-49 -73.5t-71.5 -27q-31 0 -54 17t-35 47q-19 -30 -44.5 -47t-56.5 -17q-49 0 -75.5 39t-26.5 101q0 9 2 31q8 74 44 122t91 48q31 0 54 -16.5
t35 -46.5q39 63 101 63q48 0 75.5 -39zM387 78.5q23 34.5 29 88.5q1 9 1 25q0 44 -16 71t-45 27q-38 0 -62 -43t-24 -108q0 -43 16 -69t45 -26q33 0 56 34.5zM577 78.5q23 34.5 29 88.5q1 9 1 25q0 44 -16 71t-45 27q-38 0 -62 -43t-24 -108q0 -43 16 -69t45 -26
q33 0 56 34.5z" />
    <glyph glyph-name="zero.zero" horiz-adv-x="607" 
d="M541.5 623q55.5 -69 55.5 -203q0 -42 -4 -79q-18 -172 -92 -262t-198 -90q-109 0 -165 69.5t-56 203.5q0 42 4 79q18 172 92.5 261.5t198.5 89.5q109 0 164.5 -69zM147 266q0 -111 43 -164l269 507q-35 23 -89 23q-189 0 -219 -291q-4 -36 -4 -75zM458.5 123.5
q55.5 73.5 70.5 217.5q4 35 4 74q0 111 -44 166l-269 -508q37 -23 89 -23q94 0 149.5 73.5z" />
    <glyph glyph-name="zero.tf.zero" 
d="M508.5 663q49.5 -28 76 -76.5t26.5 -109.5q0 -18 -1 -28l-23 -225q-7 -65 -43.5 -119.5t-95.5 -86t-129 -31.5q-65 0 -115 27.5t-77 75.5t-27 107q0 18 1 27l23 225q7 67 44 122.5t96 87.5t129 32q66 0 115.5 -28zM169 224q-1 -7 -1 -22q0 -58 33 -99l270 505
q-39 21 -85 21q-51 0 -93.5 -24t-69 -65t-31.5 -91zM543 449q1 7 1 21q0 63 -36 107l-270 -505q35 -23 87 -23q51 0 93.5 23.5t69.5 63.5t32 88z" />
    <glyph glyph-name="zero.tf" 
d="M204 14.5q-50 27.5 -77 75.5t-27 107q0 18 1 27l23 225q7 67 44 122.5t96 87.5t129 32q66 0 115.5 -28t76 -76.5t26.5 -109.5q0 -18 -1 -28l-23 -225q-7 -65 -43.5 -119.5t-95.5 -86t-129 -31.5q-65 0 -115 27.5zM418.5 72.5q42.5 23.5 69.5 63.5t32 88l23 225q1 8 1 22
q0 69 -43 113.5t-115 44.5q-51 0 -93.5 -24t-69 -65t-31.5 -91l-23 -225q-1 -7 -1 -22q0 -66 43 -109.5t114 -43.5q51 0 93.5 23.5z" />
    <glyph glyph-name="one.tf" 
d="M572 62l-7 -62h-490l7 62h217l46 444h-183l6 58h19q88 0 130 26t53 90h60l-64 -618h206z" />
    <glyph glyph-name="two.tf" 
d="M126.5 181q50.5 67 161.5 113l130 54q122 51 132 155l1 13q0 52 -40.5 84t-106.5 32q-85 0 -139 -46t-63 -126h-72q7 69 44.5 121.5t98.5 81.5t138 29q99 0 156.5 -44.5t57.5 -120.5q0 -75 -43.5 -133t-126.5 -94l-130 -55q-86 -36 -124 -75.5t-49 -107.5h435l-7 -62
h-516q12 114 62.5 181z" />
    <glyph glyph-name="three.tf" 
d="M147.5 39q-63.5 50 -63.5 137q0 17 1 26h71q-1 -6 -1 -18q0 -64 46.5 -100t127.5 -36q57 0 102 19t70 54t25 79q0 58 -44.5 90.5t-123.5 32.5h-60l6 59h60q83 0 131.5 37.5t48.5 102.5q0 51 -41.5 81.5t-111.5 30.5q-80 0 -131.5 -37.5t-58.5 -100.5h-69q6 59 41 103
t92.5 68.5t130.5 24.5q101 0 160.5 -44.5t59.5 -119.5q0 -69 -44.5 -114.5t-124.5 -59.5q65 -5 106.5 -47.5t41.5 -103.5q0 -62 -35 -110.5t-97 -76t-140 -27.5q-112 0 -175.5 50z" />
    <glyph glyph-name="four.tf" 
d="M599 230h-150l-24 -231h-69l24 231h-291l47 450h70l-40 -388h221l22 211h69l-22 -211h150z" />
    <glyph glyph-name="five.tf" 
d="M190 11q-52 22 -79.5 63.5t-25.5 96.5h70q-2 -55 43 -87.5t120 -32.5q96 0 153 54.5t57 147.5q0 70 -42.5 108.5t-121.5 38.5q-65 0 -109.5 -22t-73.5 -70h-67l39 372h466l-6 -61h-402l-25 -242q30 40 81 61t114 21q102 0 160 -53t58 -144q0 -10 -2 -32
q-7 -72 -44.5 -126.5t-99.5 -84.5t-142 -30q-69 0 -121 22z" />
    <glyph glyph-name="six.tf" 
d="M493.5 441q52.5 -27 80.5 -75t28 -110q0 -76 -36 -137t-100.5 -96t-146.5 -35q-72 0 -125 27t-81 74.5t-28 108.5q0 52 18 98.5t51 81.5l256 302h82l-189 -219q31 7 67 7q71 0 123.5 -27zM433.5 73.5q48.5 26.5 75.5 73t27 103.5q0 70 -47 114.5t-126 44.5
q-60 0 -108 -26.5t-75 -73t-27 -103.5q0 -70 47 -114.5t125 -44.5q60 0 108.5 26.5z" />
    <glyph glyph-name="seven.tf" 
d="M542 618h-413l6 62h522l-474 -680h-76z" />
    <glyph glyph-name="eight.tf" 
d="M150 36q-63 47 -63 127q0 73 45.5 123.5t124.5 64.5q-59 13 -91.5 51.5t-32.5 90.5q0 58 33.5 103t92.5 70t134 25q101 0 161.5 -44t60.5 -118q0 -65 -43.5 -114t-114.5 -64q64 -13 99 -51.5t35 -96.5q0 -63 -34.5 -111.5t-96 -75.5t-141.5 -27q-106 0 -169 47z
M493 418.5q51 38.5 51 100.5q0 53 -42 84.5t-115 31.5q-81 0 -132.5 -39t-51.5 -103q0 -52 42.5 -82.5t114.5 -30.5q82 0 133 38.5zM427 67q45 19 70 54t25 80q0 57 -45 90.5t-123 33.5q-86 0 -141 -42t-55 -111q0 -56 45.5 -90t121.5 -34q57 0 102 19z" />
    <glyph glyph-name="nine.tf" 
d="M608.5 382.5q-17.5 -45.5 -50.5 -80.5l-257 -302h-82l189 219q-31 -7 -67 -7q-71 0 -123.5 27t-80.5 75t-28 109q0 76 36 137.5t101 96.5t147 35q72 0 124.5 -27t80.5 -74.5t28 -109.5q0 -53 -17.5 -98.5zM222.5 315q46.5 -44 125.5 -44q60 0 108 26.5t75.5 72.5
t27.5 102q0 72 -46.5 116.5t-125.5 44.5q-60 0 -108.5 -26.5t-75.5 -73t-27 -103.5q0 -71 46.5 -115z" />
    <glyph glyph-name="Jacute" horiz-adv-x="537" 
d="M396 777l240 114l19 -45l-240 -115zM102 37.5q-56 52.5 -56 145.5q0 10 2 34h68q-2 -18 -2 -27q0 -68 39.5 -105.5t103.5 -37.5q70 0 116 46.5t54 127.5l51 479h68l-51 -479q-11 -110 -77.5 -173t-167.5 -63q-92 0 -148 52.5z" />
    <glyph glyph-name="uni0243.case" horiz-adv-x="580" 
d="M490 60.5q-52 -48.5 -135 -58.5l-11 -104h-51l11 102h-72l-11 -102h-51l11 102h-96l74 700h96l10 102h51l-10 -102h72l10 102h51l-11 -105q72 -9 111.5 -49.5t39.5 -105.5q0 -14 -1 -22q-7 -70 -47 -112.5t-103 -52.5q54 -8 88.5 -47t34.5 -100q0 -14 -1 -21
q-8 -78 -60 -126.5zM220 640l-27 -257h169q63 0 105.5 40t42.5 105q0 53 -35.5 82.5t-98.5 29.5h-156zM439 101q44 40 44 110q0 51 -33 82t-85 31h-178l-28 -263h164q72 0 116 40z" />
    <glyph glyph-name="uni0243.tf" 
d="M501 58.5q-52 -47.5 -134 -56.5l-10 -101h-51l10 99h-71l-10 -99h-51l10 99h-96l72 681h96l10 99h51l-10 -99h71l10 99h51l-11 -102q72 -9 111.5 -48.5t39.5 -102.5q0 -15 -1 -22q-7 -67 -46.5 -108.5t-101.5 -51.5q54 -7 88 -44.5t34 -97.5q0 -14 -1 -21
q-8 -76 -60 -123.5zM230 622l-26 -248h170q64 0 105.5 38.5t41.5 102.5q0 51 -35.5 79t-98.5 28h-157zM445.5 94.5q42.5 34.5 49.5 94.5q1 5 1 15q0 50 -33.5 80t-86.5 30h-178l-27 -254h165q67 0 109.5 34.5z" />
    <glyph glyph-name="uni0243.tf.tf.case" 
d="M501.5 60q-52.5 -49 -134.5 -58l-11 -104h-51l11 102h-71l-11 -102h-51l11 102h-96l74 700h96l10 102h51l-10 -102h71l10 102h51l-11 -105q72 -9 111.5 -49.5t39.5 -105.5q0 -14 -1 -22q-7 -70 -47 -112.5t-102 -52.5q54 -8 88 -47t34 -99q0 -15 -1 -22
q-8 -78 -60.5 -127zM232 640l-27 -257h170q63 0 105.5 40t42.5 105q0 53 -35.5 82.5t-98.5 29.5h-157zM452 101.5q44 40.5 44 109.5q0 51 -33.5 82t-85.5 31h-178l-28 -263h165q72 0 116 40.5z" />
    <glyph glyph-name="Y.ss02" horiz-adv-x="573" 
d="M282 281l-211 419h79l173 -353l248 353h79l-299 -419l-30 -281h-69z" />
    <glyph glyph-name="Yacute.ss02" horiz-adv-x="573" 
d="M245 777l240 114l19 -45l-240 -115zM282 281l-211 419h79l173 -353l248 353h79l-299 -419l-30 -281h-69z" />
    <glyph glyph-name="Ycircumflex.ss02" horiz-adv-x="573" 
d="M495 770l-39 -33l-85 86l-104 -86l-31 33l141 113zM282 281l-211 419h79l173 -353l248 353h79l-299 -419l-30 -281h-69z" />
    <glyph glyph-name="Ydieresis.ss02" horiz-adv-x="573" 
d="M212.5 771q-14.5 14 -14.5 36q0 26 19 45.5t44 19.5q23 0 37.5 -15t14.5 -37q0 -26 -19 -44.5t-45 -18.5q-22 0 -36.5 14zM446.5 771q-14.5 14 -14.5 36q0 26 19 45.5t44 19.5q23 0 37.5 -15t14.5 -37q0 -26 -19 -44.5t-45 -18.5q-22 0 -36.5 14zM282 281l-211 419h79
l173 -353l248 353h79l-299 -419l-30 -281h-69z" />
    <glyph glyph-name="Ygrave.ss02" horiz-adv-x="573" 
d="M247 846l29 45l216 -114l-29 -46zM282 281l-211 419h79l173 -353l248 353h79l-299 -419l-30 -281h-69z" />
    <glyph glyph-name="Adieresis.ss05" horiz-adv-x="577" 
d="M326 734h-55l99 111h55zM393 734l99 111h55l-99 -111h-55zM456 126h-310l-53 -126h-73l312 700h61l164 -700h-73zM444 187l-92 422l-179 -422h271z" />
    <glyph glyph-name="Edieresis.ss05" horiz-adv-x="547" 
d="M269 734l99 111h55l-99 -111h-55zM391 734l99 111h55l-99 -111h-55zM159 700h392l-7 -61h-324l-27 -260h324l-7 -62h-324l-26 -255h324l-7 -62h-392z" />
    <glyph glyph-name="Odieresis.ss05" horiz-adv-x="800" 
d="M382 734l99 111h55l-99 -111h-55zM504 734l99 111h55l-99 -111h-55zM224 28q-73 43 -111 116t-38 162q0 29 2 44q10 98 62.5 181.5t139.5 133.5t196 50q101 0 174 -43t111.5 -117t38.5 -163q0 -14 -2 -42q-11 -98 -63.5 -181.5t-139.5 -133.5t-196 -50q-101 0 -174 43z
M563.5 88.5q70.5 41.5 112.5 110.5t51 151q2 26 2 38q0 74 -30.5 134.5t-89 96t-140.5 35.5q-89 0 -159 -41.5t-112 -111t-50 -151.5q-2 -26 -2 -39q0 -73 30.5 -133t89 -95.5t139.5 -35.5q88 0 158.5 41.5z" />
    <glyph glyph-name="Udieresis.ss05" horiz-adv-x="630" 
d="M297 734l99 111h55l-99 -111h-55zM419 734l99 111h55l-99 -111h-55zM147 38.5q-60 53.5 -60 152.5q0 11 2 37l50 472h68l-50 -468q-1 -10 -1 -28q0 -76 43 -116.5t121 -40.5q85 0 139 48t63 137l50 468h67l-50 -472q-13 -116 -86.5 -179.5t-189.5 -63.5q-106 0 -166 53.5
z" />
    <glyph glyph-name="jacute" horiz-adv-x="228" 
d="M85 566l160 92l25 -46l-159 -92zM-51 -210l6 60q23 -10 51 -10q29 0 46.5 20t21.5 57l57 539h65l-58 -555q-6 -58 -39.5 -90t-86.5 -32q-41 0 -63 11z" />
    <glyph glyph-name="a.ss03" horiz-adv-x="525" 
d="M97.5 20.5q-40.5 31.5 -40.5 86.5q0 38 16 70t48 53q27 18 69 27.5t109 13.5l115 6l3 27q1 5 1 15q0 46 -29.5 70.5t-85.5 24.5q-58 0 -96.5 -23.5t-46.5 -62.5h-64q11 63 66.5 101.5t148.5 38.5q171 0 171 -147q0 -9 -2 -33l-30 -288h-66l9 84q-25 -45 -71.5 -70
t-112.5 -25q-71 0 -111.5 31.5zM351.5 84q46.5 41 53.5 110l4 34l-150 -10q-137 -9 -137 -99q0 -37 28.5 -56.5t79.5 -19.5q75 0 121.5 41z" />
    <glyph glyph-name="aacute.ss03" horiz-adv-x="525" 
d="M170 561l278 122l18 -49l-279 -124zM97.5 20.5q-40.5 31.5 -40.5 86.5q0 38 16 70t48 53q27 18 69 27.5t109 13.5l115 6l3 27q1 5 1 15q0 46 -29.5 70.5t-85.5 24.5q-58 0 -96.5 -23.5t-46.5 -62.5h-64q11 63 66.5 101.5t148.5 38.5q171 0 171 -147q0 -9 -2 -33l-30 -288
h-66l9 84q-25 -45 -71.5 -70t-112.5 -25q-71 0 -111.5 31.5zM351.5 84q46.5 41 53.5 110l4 34l-150 -10q-137 -9 -137 -99q0 -37 28.5 -56.5t79.5 -19.5q75 0 121.5 41z" />
    <glyph glyph-name="abreve.ss03" horiz-adv-x="525" 
d="M202.5 547.5q-41.5 38.5 -39.5 106.5h56q-1 -46 27.5 -71t73.5 -25t78.5 25t42.5 71h56q-13 -68 -63 -106.5t-120 -38.5t-111.5 38.5zM97.5 20.5q-40.5 31.5 -40.5 86.5q0 38 16 70t48 53q27 18 69 27.5t109 13.5l115 6l3 27q1 5 1 15q0 46 -29.5 70.5t-85.5 24.5
q-58 0 -96.5 -23.5t-46.5 -62.5h-64q11 63 66.5 101.5t148.5 38.5q171 0 171 -147q0 -9 -2 -33l-30 -288h-66l9 84q-25 -45 -71.5 -70t-112.5 -25q-71 0 -111.5 31.5zM351.5 84q46.5 41 53.5 110l4 34l-150 -10q-137 -9 -137 -99q0 -37 28.5 -56.5t79.5 -19.5q75 0 121.5 41
z" />
    <glyph glyph-name="acircumflex.ss03" horiz-adv-x="525" 
d="M488 542l-40 -39l-123 119l-145 -119l-32 39l184 146zM97.5 20.5q-40.5 31.5 -40.5 86.5q0 38 16 70t48 53q27 18 69 27.5t109 13.5l115 6l3 27q1 5 1 15q0 46 -29.5 70.5t-85.5 24.5q-58 0 -96.5 -23.5t-46.5 -62.5h-64q11 63 66.5 101.5t148.5 38.5q171 0 171 -147
q0 -9 -2 -33l-30 -288h-66l9 84q-25 -45 -71.5 -70t-112.5 -25q-71 0 -111.5 31.5zM351.5 84q46.5 41 53.5 110l4 34l-150 -10q-137 -9 -137 -99q0 -37 28.5 -56.5t79.5 -19.5q75 0 121.5 41z" />
    <glyph glyph-name="adieresis.ss03" horiz-adv-x="525" 
d="M182.5 561.5q-14.5 14.5 -14.5 36.5q0 26 19 45t45 19q22 0 36.5 -14.5t14.5 -36.5q0 -26 -19 -45t-45 -19q-22 0 -36.5 14.5zM379.5 561.5q-14.5 14.5 -14.5 36.5q0 26 19 45t45 19q22 0 36.5 -14.5t14.5 -36.5q0 -26 -19 -45t-45 -19q-22 0 -36.5 14.5zM97.5 20.5
q-40.5 31.5 -40.5 86.5q0 38 16 70t48 53q27 18 69 27.5t109 13.5l115 6l3 27q1 5 1 15q0 46 -29.5 70.5t-85.5 24.5q-58 0 -96.5 -23.5t-46.5 -62.5h-64q11 63 66.5 101.5t148.5 38.5q171 0 171 -147q0 -9 -2 -33l-30 -288h-66l9 84q-25 -45 -71.5 -70t-112.5 -25
q-71 0 -111.5 31.5zM351.5 84q46.5 41 53.5 110l4 34l-150 -10q-137 -9 -137 -99q0 -37 28.5 -56.5t79.5 -19.5q75 0 121.5 41z" />
    <glyph glyph-name="agrave.ss03" horiz-adv-x="525" 
d="M177 632l29 49l252 -122l-28 -51zM97.5 20.5q-40.5 31.5 -40.5 86.5q0 38 16 70t48 53q27 18 69 27.5t109 13.5l115 6l3 27q1 5 1 15q0 46 -29.5 70.5t-85.5 24.5q-58 0 -96.5 -23.5t-46.5 -62.5h-64q11 63 66.5 101.5t148.5 38.5q171 0 171 -147q0 -9 -2 -33l-30 -288
h-66l9 84q-25 -45 -71.5 -70t-112.5 -25q-71 0 -111.5 31.5zM351.5 84q46.5 41 53.5 110l4 34l-150 -10q-137 -9 -137 -99q0 -37 28.5 -56.5t79.5 -19.5q75 0 121.5 41z" />
    <glyph glyph-name="amacron.ss03" horiz-adv-x="525" 
d="M166 608h317l-6 -53h-317zM97.5 20.5q-40.5 31.5 -40.5 86.5q0 38 16 70t48 53q27 18 69 27.5t109 13.5l115 6l3 27q1 5 1 15q0 46 -29.5 70.5t-85.5 24.5q-58 0 -96.5 -23.5t-46.5 -62.5h-64q11 63 66.5 101.5t148.5 38.5q171 0 171 -147q0 -9 -2 -33l-30 -288h-66l9 84
q-25 -45 -71.5 -70t-112.5 -25q-71 0 -111.5 31.5zM351.5 84q46.5 41 53.5 110l4 34l-150 -10q-137 -9 -137 -99q0 -37 28.5 -56.5t79.5 -19.5q75 0 121.5 41z" />
    <glyph glyph-name="aogonek.ss03" horiz-adv-x="525" 
d="M466 -148l-6 -49q-20 -7 -37.5 -11t-41.5 -4q-46 0 -72 23t-26 59q0 37 26 71t77 59h-2l9 84q-25 -45 -71.5 -70t-112.5 -25q-71 0 -111.5 31.5t-40.5 86.5q0 38 16 70t48 53q27 18 69 27.5t109 13.5l115 6l3 27q1 5 1 15q0 46 -29.5 70.5t-85.5 24.5q-58 0 -96.5 -23.5
t-46.5 -62.5h-64q11 63 66.5 101.5t148.5 38.5q171 0 171 -147q0 -9 -2 -33l-30 -288q-53 -16 -79 -45.5t-26 -62.5q0 -24 15 -39t43 -15q30 0 63 14zM409 228l-150 -10q-137 -9 -137 -99q0 -37 28.5 -56.5t79.5 -19.5q75 0 121.5 41t53.5 110z" />
    <glyph glyph-name="aring.ss03" horiz-adv-x="525" 
d="M241.5 523.5q-28.5 27.5 -28.5 69.5q0 34 17 61t45 42.5t60 15.5q43 0 70.5 -26.5t27.5 -68.5q0 -52 -35.5 -86.5t-85.5 -34.5q-42 0 -70.5 27.5zM370.5 556q22.5 23 22.5 58q0 28 -17.5 45t-44.5 17q-31 0 -54 -22.5t-23 -57.5q0 -28 17.5 -45.5t44.5 -17.5
q32 0 54.5 23zM97.5 20.5q-40.5 31.5 -40.5 86.5q0 38 16 70t48 53q27 18 69 27.5t109 13.5l115 6l3 27q1 5 1 15q0 46 -29.5 70.5t-85.5 24.5q-58 0 -96.5 -23.5t-46.5 -62.5h-64q11 63 66.5 101.5t148.5 38.5q171 0 171 -147q0 -9 -2 -33l-30 -288h-66l9 84
q-25 -45 -71.5 -70t-112.5 -25q-71 0 -111.5 31.5zM351.5 84q46.5 41 53.5 110l4 34l-150 -10q-137 -9 -137 -99q0 -37 28.5 -56.5t79.5 -19.5q75 0 121.5 41z" />
    <glyph glyph-name="atilde.ss03" horiz-adv-x="525" 
d="M357.5 549q-16.5 8 -40.5 23q-20 14 -34 20.5t-29 6.5q-19 0 -38 -9.5t-41 -37.5l-23 35q47 66 106 66q17 0 34 -7.5t39 -22.5q21 -13 36 -20t29 -7q40 0 75 45l24 -34q-45 -66 -102 -66q-19 0 -35.5 8zM97.5 20.5q-40.5 31.5 -40.5 86.5q0 38 16 70t48 53q27 18 69 27.5
t109 13.5l115 6l3 27q1 5 1 15q0 46 -29.5 70.5t-85.5 24.5q-58 0 -96.5 -23.5t-46.5 -62.5h-64q11 63 66.5 101.5t148.5 38.5q171 0 171 -147q0 -9 -2 -33l-30 -288h-66l9 84q-25 -45 -71.5 -70t-112.5 -25q-71 0 -111.5 31.5zM351.5 84q46.5 41 53.5 110l4 34l-150 -10
q-137 -9 -137 -99q0 -37 28.5 -56.5t79.5 -19.5q75 0 121.5 41z" />
    <glyph glyph-name="y.ss04" horiz-adv-x="477" 
d="M-6 -218l7 62q20 -10 54 -10q76 0 121 89l30 60l-146 473h68l123 -399l192 399h70l-278 -548q-37 -75 -82 -105.5t-105 -30.5q-28 0 -54 10z" />
    <glyph glyph-name="yacute.ss04" horiz-adv-x="477" 
d="M149 561l278 122l18 -49l-279 -124zM-6 -218l7 62q20 -10 54 -10q76 0 121 89l30 60l-146 473h68l123 -399l192 399h70l-278 -548q-37 -75 -82 -105.5t-105 -30.5q-28 0 -54 10z" />
    <glyph glyph-name="ycircumflex.ss04" horiz-adv-x="477" 
d="M467 542l-40 -39l-123 119l-145 -119l-32 39l184 146zM-6 -218l7 62q20 -10 54 -10q76 0 121 89l30 60l-146 473h68l123 -399l192 399h70l-278 -548q-37 -75 -82 -105.5t-105 -30.5q-28 0 -54 10z" />
    <glyph glyph-name="ydieresis.ss04" horiz-adv-x="477" 
d="M160.5 561.5q-14.5 14.5 -14.5 36.5q0 26 19 45t45 19q22 0 36.5 -14.5t14.5 -36.5q0 -26 -19 -45t-45 -19q-22 0 -36.5 14.5zM357.5 561.5q-14.5 14.5 -14.5 36.5q0 26 19 45t45 19q22 0 36.5 -14.5t14.5 -36.5q0 -26 -19 -45t-45 -19q-22 0 -36.5 14.5zM-6 -218l7 62
q20 -10 54 -10q76 0 121 89l30 60l-146 473h68l123 -399l192 399h70l-278 -548q-37 -75 -82 -105.5t-105 -30.5q-28 0 -54 10z" />
    <glyph glyph-name="ygrave.ss04" horiz-adv-x="477" 
d="M155 632l29 49l252 -122l-28 -51zM-6 -218l7 62q20 -10 54 -10q76 0 121 89l30 60l-146 473h68l123 -399l192 399h70l-278 -548q-37 -75 -82 -105.5t-105 -30.5q-28 0 -54 10z" />
    <glyph glyph-name="a.sups" horiz-adv-x="366" 
d="M113 428q-33 34 -33 87q0 43 20 79t54.5 57t78.5 21q38 0 64 -17t36 -46l6 56h54l-28 -264h-54l6 55q-16 -28 -46.5 -45t-68.5 -17q-56 0 -89 34zM297.5 469.5q30.5 30.5 30.5 72.5q0 37 -23.5 61t-64.5 24q-45 0 -75 -31t-30 -74q0 -36 23 -59.5t62 -23.5
q47 0 77.5 30.5z" />
    <glyph glyph-name="b.sups" horiz-adv-x="366" 
d="M365.5 638.5q33.5 -33.5 33.5 -87.5q0 -44 -20 -80t-55 -56.5t-77 -20.5q-38 0 -64.5 17t-37.5 45l-6 -55h-54l41 393h54l-19 -185q17 29 48 46t69 17q54 0 87.5 -33.5zM313.5 469q30.5 30 30.5 75q0 37 -23.5 60t-61.5 23q-47 0 -78.5 -30t-31.5 -76q0 -35 25 -58.5
t65 -23.5q44 0 74.5 30z" />
    <glyph glyph-name="c.sups" horiz-adv-x="330" 
d="M115 427q-35 33 -35 87q0 70 44.5 113.5t115.5 43.5q58 0 91 -28.5t34 -77.5h-54q-1 30 -21.5 45.5t-54.5 15.5q-45 0 -74 -29t-29 -77q0 -38 22 -59t61 -21q34 0 57.5 15.5t32.5 44.5h54q-11 -48 -51.5 -77t-97.5 -29q-60 0 -95 33z" />
    <glyph glyph-name="d.sups" horiz-adv-x="367" 
d="M406 794l-41 -393h-54l6 55q-16 -28 -46.5 -45t-68.5 -17q-56 0 -89 34t-33 87q0 43 20 79t54.5 57t78.5 21q38 0 64 -17t36 -46l19 185h54zM297.5 469.5q30.5 30.5 30.5 72.5q0 37 -23.5 61t-63.5 24q-46 0 -76 -31t-30 -74q0 -36 23.5 -59.5t62.5 -23.5q46 0 76.5 30.5
z" />
    <glyph glyph-name="e.sups" horiz-adv-x="330" 
d="M133 522v-1l-1 -12q0 -34 22.5 -54t59.5 -20q30 0 52.5 11.5t31.5 31.5h53q-12 -38 -51 -61t-90 -23q-61 0 -96 32t-35 88q0 71 45 114.5t114 43.5q57 0 91 -30t34 -79l-1 -13q-1 -11 -4 -28h-225zM169.5 614q-26.5 -22 -33.5 -58h174q4 35 -16.5 57.5t-59.5 22.5
q-38 0 -64.5 -22z" />
    <glyph glyph-name="f.sups" horiz-adv-x="224" 
d="M217 744q-15 -12 -18 -42l-4 -38h85l-5 -41h-85l-23 -222h-53l23 222h-57l5 41h57l4 37q5 49 33.5 73t68.5 24q30 0 45 -7l-4 -40q-18 5 -33 5q-24 0 -39 -12z" />
    <glyph glyph-name="g.sups" horiz-adv-x="367" 
d="M393 665l-27 -255q-7 -68 -57 -105q-37 -30 -106 -30q-58 0 -96 27q-19 14 -28.5 33t-7.5 40h54q-1 -26 20.5 -42t61.5 -16q95 0 104 87l6 55q-16 -28 -47 -45t-66 -17q-56 0 -90 34t-34 87q0 42 20.5 77t55.5 55.5t77 20.5q37 0 63.5 -16.5t36.5 -46.5l6 57h54z
M297.5 470q31.5 31 31.5 75q0 36 -24 59.5t-64 23.5q-45 0 -75.5 -31t-30.5 -76q0 -36 23.5 -59t62.5 -23q45 0 76.5 31z" />
    <glyph glyph-name="h.sups" horiz-adv-x="346" 
d="M344 648q24 -24 24 -70q0 -12 -1 -19l-17 -158h-54l15 142q1 6 1 18q0 65 -65 65q-42 0 -66.5 -25.5t-29.5 -68.5l-14 -131h-53l41 393h53l-19 -188q13 31 42 48.5t71 17.5q48 0 72 -24z" />
    <glyph glyph-name="i.sups" horiz-adv-x="191" 
d="M141 720.5q-10 9.5 -10 24.5q0 18 13 30.5t32 12.5q16 0 26 -10t10 -25q0 -17 -12.5 -29.5t-31.5 -12.5q-17 0 -27 9.5zM135 665h55l-28 -264h-55z" />
    <glyph glyph-name="j.sups" horiz-adv-x="162" 
d="M128.5 720.5q-9.5 9.5 -9.5 24.5q0 18 12 30.5t32 12.5q17 0 27 -10t10 -25q0 -18 -12.5 -30t-32.5 -12q-17 0 -26.5 9.5zM10 286l5 44q12 -6 33 -6q19 0 30.5 10.5t12.5 30.5l32 300h54l-32 -306q-4 -39 -28 -59.5t-63 -20.5q-24 0 -44 7z" />
    <glyph glyph-name="k.sups" horiz-adv-x="296" 
d="M264 401l-116 125l-13 -125h-53l41 393h53l-26 -252l144 123h66l-154 -128l127 -136h-69z" />
    <glyph glyph-name="l.sups" horiz-adv-x="161" 
d="M137 794h56l-41 -393h-56z" />
    <glyph glyph-name="m.sups" horiz-adv-x="493" 
d="M110 665h53l-6 -58q10 27 34.5 46t60.5 19q35 0 56.5 -17t25.5 -50q13 29 40 48t61 19q43 0 65.5 -22t22.5 -63q0 -14 -1 -21l-17 -165h-55l16 155q1 5 1 15q0 28 -14.5 41.5t-39.5 13.5q-33 0 -54 -24.5t-26 -67.5l-14 -133h-54l16 147q1 6 1 16q0 62 -54 62
q-34 0 -54 -25t-25 -67l-14 -133h-53z" />
    <glyph glyph-name="n.sups" horiz-adv-x="344" 
d="M112 665h53l-6 -59q12 31 41 48.5t71 17.5q48 0 72 -24t24 -70q0 -12 -1 -19l-17 -158h-54l15 142q1 6 1 18q0 65 -65 65q-42 0 -66 -25t-29 -69l-14 -131h-53z" />
    <glyph glyph-name="o.sups" horiz-adv-x="348" 
d="M117 428.5q-36 34.5 -36 88.5q0 42 20.5 77.5t58 56.5t85.5 21q62 0 98.5 -34.5t36.5 -88.5q0 -42 -21 -77.5t-59 -56.5t-85 -21q-62 0 -98 34.5zM296 469.5q30 30.5 30 74.5q0 36 -23 59.5t-63 23.5q-46 0 -76.5 -30.5t-30.5 -73.5q0 -37 23.5 -60.5t63.5 -23.5
q46 0 76 30.5z" />
    <glyph glyph-name="p.sups" horiz-adv-x="367" 
d="M365.5 638.5q33.5 -33.5 33.5 -87.5q0 -45 -20 -80.5t-55 -56t-77 -20.5q-38 0 -64.5 17t-37.5 45l-18 -174h-54l40 383h54l-6 -56q17 29 48 46t69 17q54 0 87.5 -33.5zM313 468.5q30 30.5 30 75.5q0 37 -23.5 60t-60.5 23q-47 0 -78.5 -30.5t-31.5 -75.5q0 -36 25 -59.5
t65 -23.5q44 0 74 30.5z" />
    <glyph glyph-name="q.sups" horiz-adv-x="367" 
d="M393 665l-40 -383h-54l18 174q-16 -28 -46.5 -45t-68.5 -17q-56 0 -89 34t-33 87q0 43 20 79t54.5 57t78.5 21q38 0 64 -17t36 -46l6 56h54zM297.5 469q30.5 31 30.5 73q0 37 -23.5 61t-63.5 24q-45 0 -75 -31t-30 -74q0 -36 23 -60t62 -24q46 0 76.5 31z" />
    <glyph glyph-name="r.sups" horiz-adv-x="224" 
d="M114 665h54l-7 -70q13 37 41.5 56.5t63.5 19.5q6 0 24 -3l-5 -50q-20 2 -28 2q-48 0 -74.5 -32t-31.5 -81l-11 -106h-54z" />
    <glyph glyph-name="s.sups" horiz-adv-x="279" 
d="M95 419q-31 25 -26 64h54q-2 -23 14.5 -37.5t49.5 -14.5q28 0 45 11.5t17 31.5q0 12 -7.5 20t-26.5 13l-63 17q-62 16 -62 63q0 40 33.5 62.5t87.5 22.5q51 0 78.5 -21t23.5 -59h-54q2 20 -12.5 32.5t-41.5 12.5t-44 -10.5t-17 -30.5q0 -22 39 -34l58 -15q63 -16 63 -63
q0 -42 -33.5 -66t-88.5 -24q-56 0 -87 25z" />
    <glyph glyph-name="t.sups" horiz-adv-x="225" 
d="M252 446l-5 -44q-16 -4 -52 -4t-58.5 15t-22.5 59q0 11 1 17l14 132h-54l5 44h54l9 86h53l-9 -86h79l-5 -44h-79l-13 -122l-1 -13q0 -26 12 -35t34 -9q25 0 38 4z" />
    <glyph glyph-name="u.sups" horiz-adv-x="345" 
d="M114.5 418.5q-25.5 24.5 -25.5 70.5q0 11 1 17l17 159h54l-16 -148q-7 -77 66 -77q42 0 66 26t27 62l15 137h53l-28 -264h-53l6 58q-13 -28 -42.5 -46.5t-67.5 -18.5q-47 0 -72.5 24.5z" />
    <glyph glyph-name="v.sups" horiz-adv-x="303" 
d="M72 665h59l69 -201l113 201h59l-154 -264h-49z" />
    <glyph glyph-name="w.sups" horiz-adv-x="438" 
d="M72 665h55l49 -200l89 200h47l48 -200l91 200h56l-129 -264h-49l-47 198l-91 -198h-47z" />
    <glyph glyph-name="x.sups" horiz-adv-x="294" 
d="M171 533l-93 132h63l66 -96l85 96h65l-122 -132l95 -132h-65l-66 97l-87 -97h-63z" />
    <glyph glyph-name="y.sups" horiz-adv-x="348" 
d="M374 665l-28 -267q-7 -63 -50 -95q-36 -28 -97 -28q-59 0 -96 27q-32 24 -27 68h54q-2 -25 15.5 -40t57.5 -15q81 0 90 80l6 66q-13 -28 -42 -45.5t-67 -17.5q-100 0 -100 95q0 14 1 21l16 151h53l-15 -142q-1 -6 -1 -17q0 -32 16 -48t52 -16q41 0 66 26.5t29 64.5
l14 132h53z" />
    <glyph glyph-name="z.sups" horiz-adv-x="276" 
d="M246 619h-160l5 46h246l-194 -219h165l-5 -45h-250z" />
    <glyph glyph-name="zero.case" horiz-adv-x="607" 
d="M138 60.5q-56 71.5 -56 208.5q0 34 5 84q19 179 93.5 271.5t198.5 92.5q108 0 164 -71t56 -209q0 -34 -5 -84q-19 -178 -93 -271t-198 -93q-109 0 -165 71.5zM458.5 126q55.5 76 71.5 227q4 39 4 80q0 223 -161 223q-189 0 -221 -303q-5 -48 -5 -81q0 -222 162 -222
q94 0 149.5 76z" />
    <glyph glyph-name="one.case" horiz-adv-x="356" 
d="M227 522h-139l6 59q59 0 91 11t46.5 36.5t19.5 71.5h62l-74 -700h-67z" />
    <glyph glyph-name="two.case" horiz-adv-x="559" 
d="M113.5 187.5q45.5 68.5 144.5 116.5l115 56q106 52 118 161q1 6 1 16q0 53 -34 85.5t-90 32.5q-73 0 -121 -47.5t-57 -130.5h-69q7 72 41 126t89 83.5t123 29.5q88 0 138.5 -45.5t50.5 -122.5q0 -16 -1 -24q-15 -139 -154 -209l-114 -57q-74 -37 -108 -80t-46 -115h377
l-7 -63h-455q13 119 58.5 187.5z" />
    <glyph glyph-name="three.case" horiz-adv-x="554" 
d="M119.5 39.5q-56.5 50.5 -56.5 139.5q0 9 2 29h68q-1 -7 -1 -22q0 -64 40 -101t110 -37q77 0 126 45.5t49 118.5q0 58 -38.5 90.5t-106.5 32.5h-53l7 60h53q73 0 116 39.5t43 110.5q0 51 -36 81.5t-96 30.5q-70 0 -115.5 -38.5t-52.5 -104.5h-67q10 92 75.5 147t165.5 55
q89 0 142 -45.5t53 -120.5q0 -72 -40 -120.5t-111 -62.5q57 -4 93 -47.5t36 -106.5q0 -15 -1 -22q-6 -59 -39.5 -105t-87.5 -71.5t-121 -25.5q-100 0 -156.5 50.5z" />
    <glyph glyph-name="four.case" horiz-adv-x="568" 
d="M555 237h-115l-25 -238h-67l25 238h-278l49 463h67l-42 -400h211l22 217h67l-22 -217h115z" />
    <glyph glyph-name="five.case" horiz-adv-x="569" 
d="M137 39.5q-56 50.5 -53 136.5h68q-2 -57 37 -91t108 -34q77 0 127.5 50t59.5 136q1 10 1 28q0 70 -36 109t-102 39q-63 0 -102.5 -23t-67.5 -73h-64l41 383h402l-7 -62h-340l-26 -251q28 41 74 63t105 22q89 0 139 -52t50 -144q0 -11 -2 -37q-8 -76 -42.5 -132.5
t-90.5 -87t-126 -30.5q-97 0 -153 50.5z" />
    <glyph glyph-name="six.case" horiz-adv-x="564" 
d="M444.5 453q47.5 -28 72.5 -77t25 -110q0 -9 -2 -31q-8 -68 -42.5 -124.5t-90.5 -89.5t-127 -33q-65 0 -112.5 28t-73 77t-25.5 110q0 10 2 32q9 96 71 164l230 301h80l-173 -224q27 5 53 5q65 0 112.5 -28zM385.5 76q43.5 29 67.5 77.5t24 106.5q0 71 -40.5 116.5
t-111.5 45.5q-56 0 -99.5 -28.5t-67 -77.5t-23.5 -107q0 -71 40 -116.5t111 -45.5q56 0 99.5 29z" />
    <glyph glyph-name="seven.case" horiz-adv-x="489" 
d="M464 637h-352l7 63h454l-435 -700h-75z" />
    <glyph glyph-name="eight.case" horiz-adv-x="567" 
d="M126.5 36.5q-57.5 47.5 -57.5 128.5q0 77 42 130t115 69q-53 13 -82 51.5t-29 92.5q0 61 31.5 108t87 73.5t125.5 26.5q93 0 149 -45.5t56 -120.5q0 -69 -40.5 -120t-107.5 -66q59 -13 90.5 -52.5t31.5 -99.5q0 -66 -32.5 -116.5t-90.5 -78.5t-132 -28q-99 0 -156.5 47.5
zM447 434q47 41 47 107q0 54 -38 86t-103 32q-70 0 -116 -36.5t-53 -98.5q-1 -5 -1 -15q0 -53 38.5 -84.5t103.5 -31.5q75 0 122 41zM419.5 93.5q50.5 45.5 50.5 118.5q0 58 -40.5 91.5t-110.5 33.5q-74 0 -123.5 -39t-56.5 -105q-1 -6 -1 -17q0 -58 41 -93t110 -35
q80 0 130.5 45.5z" />
    <glyph glyph-name="nine.case" horiz-adv-x="543" 
d="M350 239q-30 -19 -64 -19q-65 0 -113 28.5t-73 78t-25 111.5q0 9 2 31q8 69 42.5 125.5t91 89.5t127.5 33q65 0 112.5 -28t72.5 -77t25 -110q0 -11 -2 -33q-9 -88 -72 -170l-228 -299h-81zM391.5 309q43.5 29 67.5 78t24 108q0 71 -40 116.5t-111 45.5q-56 0 -99.5 -29
t-67.5 -77.5t-24 -107.5q0 -72 40 -117.5t111 -45.5q56 0 99.5 29z" />
    <glyph glyph-name="zero.case.zero" horiz-adv-x="607" 
d="M543 646q56 -71 56 -209q0 -34 -5 -84q-19 -178 -93 -271t-198 -93q-109 0 -165 71.5t-56 208.5q0 34 5 84q19 179 93.5 271.5t198.5 92.5q108 0 164 -71zM148 272q0 -114 42 -169l275 526q-38 27 -92 27q-189 0 -221 -303q-4 -39 -4 -81zM458.5 126q55.5 76 71.5 227
q5 48 5 80q0 111 -41 167l-274 -526q36 -24 89 -24q94 0 149.5 76z" />
    <glyph glyph-name="zero.tf.case" 
d="M204 15.5q-50 28.5 -77 78t-27 110.5q0 19 1 28l25 234q7 69 44 126.5t96 90.5t129 33q65 0 115 -28.5t77 -79t27 -112.5q0 -10 -2 -30l-25 -234q-7 -68 -43.5 -124t-95.5 -88.5t-129 -32.5q-65 0 -115 28.5zM419 73.5q43 24.5 69.5 66.5t31.5 92l25 234q1 8 1 23
q0 71 -43 117.5t-114 46.5q-51 0 -93.5 -25t-69.5 -67.5t-32 -94.5l-25 -234q-1 -7 -1 -21q0 -70 42.5 -116t114.5 -46q51 0 94 24.5z" />
    <glyph glyph-name="one.tf.case" 
d="M572 63l-7 -63h-490l7 63h217l48 459h-183l6 59h19q88 0 130 26.5t54 92.5h60l-67 -637h206z" />
    <glyph glyph-name="two.tf.case" 
d="M127.5 187.5q50.5 68.5 161.5 116.5l130 56q121 52 133 161l1 14q0 54 -40 87.5t-106 33.5q-85 0 -139.5 -48t-63.5 -131h-72q7 72 44.5 126.5t98.5 84t138 29.5q99 0 156.5 -46.5t57.5 -124.5q0 -15 -1 -22q-8 -70 -50.5 -124.5t-119.5 -88.5l-130 -57
q-85 -37 -123.5 -78.5t-50.5 -112.5h435l-7 -63h-516q13 119 63.5 187.5z" />
    <glyph glyph-name="three.tf.case" 
d="M148.5 40.5q-63.5 51.5 -63.5 140.5q0 18 1 27h71q-1 -7 -1 -19q0 -65 46 -103t127 -38q57 0 102 20.5t70 57.5t25 84q0 59 -44 92t-123 33h-60l7 60h60q83 0 131.5 39.5t48.5 108.5q0 52 -41.5 83.5t-111.5 31.5q-80 0 -131.5 -39t-58.5 -105h-69q6 60 41 106t92.5 71.5
t130.5 25.5q100 0 159.5 -46t59.5 -123q0 -72 -44 -119.5t-124 -61.5q65 -5 106 -49t41 -108q0 -12 -1 -19q-6 -59 -42.5 -105t-96 -71.5t-133.5 -25.5q-111 0 -174.5 51.5z" />
    <glyph glyph-name="four.tf.case" 
d="M600 237h-150l-25 -238h-69l25 238h-291l49 463h70l-42 -400h221l22 217h69l-22 -217h150z" />
    <glyph glyph-name="five.tf.case" 
d="M190 12q-52 23 -79.5 65t-25.5 99h70q-2 -57 43 -91t120 -34q89 0 145 49.5t65 135.5q1 9 1 25q0 72 -43 112t-121 40q-65 0 -109.5 -23t-73.5 -73h-67l41 383h466l-7 -62h-402l-26 -251q31 41 82.5 63t113.5 22q102 0 159.5 -54t57.5 -148q0 -11 -2 -33
q-8 -75 -45.5 -131t-99.5 -86.5t-142 -30.5q-69 0 -121 23z" />
    <glyph glyph-name="six.tf.case" 
d="M495.5 453.5q52.5 -27.5 80.5 -77t28 -112.5q0 -10 -2 -30q-7 -71 -45 -127t-99.5 -87.5t-138.5 -31.5q-72 0 -124.5 27.5t-80.5 76.5t-28 112q0 54 18.5 101.5t51.5 84.5l257 310h82l-190 -226q29 7 67 7q71 0 123.5 -27.5zM427 71.5q46 24.5 74.5 67t34.5 96.5
q1 8 1 22q0 73 -47 119t-126 46q-60 0 -108 -28t-75 -76t-27 -107q0 -73 46.5 -118.5t124.5 -45.5q56 0 102 24.5z" />
    <glyph glyph-name="seven.tf.case" 
d="M544 637h-413l7 63h522l-477 -700h-76z" />
    <glyph glyph-name="eight.tf.case" 
d="M150.5 37q-62.5 48 -62.5 130q0 77 45.5 129.5t124.5 67.5q-59 13 -91 52t-32 94q0 60 33.5 107t92.5 73t134 26q101 0 161.5 -46t60.5 -122q0 -67 -44 -118t-115 -66q64 -13 99 -53.5t35 -100.5q0 -66 -34.5 -116t-96.5 -77.5t-142 -27.5q-106 0 -168.5 48zM495 433.5
q51 40.5 51 105.5q0 55 -42.5 87.5t-114.5 32.5q-77 0 -126.5 -37t-56.5 -98l-1 -14q0 -53 42 -85t114 -32q83 0 134 40.5zM427.5 68.5q44.5 20.5 69.5 57t25 84.5q0 59 -45 93t-122 34q-56 0 -101 -20t-70.5 -56t-25.5 -83q0 -59 45.5 -94.5t121.5 -35.5q58 0 102.5 20.5z
" />
    <glyph glyph-name="nine.tf.case" 
d="M554 308l-252 -308h-83l190 227q-31 -7 -67 -7q-71 0 -123.5 28t-80.5 77.5t-28 113.5q0 10 2 30q7 71 45 127.5t99.5 88.5t138.5 32q72 0 124.5 -27.5t80.5 -76.5t28 -113q0 -10 -2 -30q-9 -94 -72 -162zM178 446q0 -74 46.5 -120t124.5 -46q60 0 108.5 28t76 76.5
t27.5 108.5q0 73 -46.5 118.5t-125.5 45.5q-56 0 -101.5 -24.5t-74 -67t-34.5 -96.5q-1 -8 -1 -23z" />
    <glyph glyph-name="zero.tf.case.zero" 
d="M510 687.5q50 -28.5 77 -79t27 -112.5q0 -10 -2 -30l-25 -234q-7 -68 -43.5 -124t-95.5 -88.5t-129 -32.5q-65 0 -115 28.5t-77 78t-27 110.5q0 19 1 28l25 234q7 69 44 126.5t96 90.5t129 33q65 0 115 -28.5zM168 211q0 -61 34 -106l276 523q-38 25 -89 25t-93.5 -25
t-69.5 -67.5t-32 -94.5l-25 -234q-1 -7 -1 -21zM545 466q1 8 1 23q0 62 -32 106l-276 -522q38 -24 87 -24q51 0 94 24.5t69.5 66.5t31.5 92z" />
    <glyph glyph-name="zero.dnom" horiz-adv-x="412" 
d="M100.5 34.5q-35.5 41.5 -35.5 120.5q0 28 2 43q10 100 56.5 152t124.5 52q70 0 106 -41t36 -121q0 -27 -2 -42q-10 -100 -57.5 -152.5t-125.5 -52.5q-69 0 -104.5 41.5zM331 198q2 14 2 40q0 116 -90 116q-52 0 -81.5 -38.5t-37.5 -117.5q-2 -15 -2 -42q0 -59 21.5 -87
t66.5 -28q105 0 121 157z" />
    <glyph glyph-name="one.dnom" horiz-adv-x="267" 
d="M155 282h-90l4 43q56 0 77.5 15.5t25.5 53.5h49l-41 -394h-55z" />
    <glyph glyph-name="two.dnom" horiz-adv-x="374" 
d="M74.5 109q27.5 40 87.5 67l71 32q67 30 67 91q0 26 -18.5 41.5t-50.5 15.5q-41 0 -67 -23.5t-30 -65.5h-57q7 61 50 98t109 37q57 0 90 -26.5t33 -70.5l-1 -13q-9 -80 -93 -117l-68 -32q-40 -18 -59 -39.5t-26 -55.5h220l-5 -48h-288q8 69 35.5 109z" />
    <glyph glyph-name="three.dnom" horiz-adv-x="381" 
d="M89.5 22q-35.5 29 -35.5 80q0 10 1 16h57q-4 -37 18.5 -58.5t63.5 -21.5q43 0 69 22.5t26 57.5q0 30 -21 47t-60 17h-37l5 44h37q39 0 62 17.5t27 49.5q3 29 -17 47t-56 18q-38 0 -63 -19.5t-29 -51.5h-57q5 51 47 83t107 32q58 0 92.5 -25.5t34.5 -68.5q0 -40 -24.5 -67
t-69.5 -36q35 -4 57.5 -27.5t22.5 -57.5q0 -57 -44 -92t-115 -35q-63 0 -98.5 29z" />
    <glyph glyph-name="four.dnom" horiz-adv-x="385" 
d="M363 127h-64l-13 -128h-56l13 128h-171l28 267h55l-23 -218h116l13 117h56l-13 -117h64z" />
    <glyph glyph-name="five.dnom" horiz-adv-x="390" 
d="M99 22.5q-35 29.5 -32 80.5h55q-1 -29 21 -46t60 -17q46 0 75.5 29.5t29.5 79.5q0 35 -21 55t-58 20q-35 0 -57 -11.5t-37 -36.5h-52l23 218h257l-4 -44h-206l-14 -127q35 44 107 44q54 0 85.5 -30t31.5 -82q0 -73 -46 -117.5t-119 -44.5q-64 0 -99 29.5z" />
    <glyph glyph-name="six.dnom" horiz-adv-x="387" 
d="M320 243q36 -35 36 -90q0 -44 -20.5 -81t-58 -58.5t-85.5 -21.5q-62 0 -98 36t-36 91q0 31 11 59t32 49l134 167h65l-98 -117q6 1 20 1q62 0 98 -35zM272.5 70.5q28.5 31.5 28.5 77.5q0 37 -22 60t-62 23q-46 0 -75.5 -31t-29.5 -76q0 -38 22.5 -61.5t62.5 -23.5
q47 0 75.5 31.5z" />
    <glyph glyph-name="seven.dnom" horiz-adv-x="344" 
d="M285 346h-206l5 48h289l-255 -394h-64z" />
    <glyph glyph-name="eight.dnom" horiz-adv-x="389" 
d="M94 19.5q-37 26.5 -37 73.5q0 42 25.5 72t70.5 38q-33 8 -51 30t-18 52q0 52 42.5 84.5t110.5 32.5q59 0 95 -26t36 -69q0 -38 -24 -66t-65 -38q36 -7 56 -30t20 -56q0 -57 -44.5 -90.5t-116.5 -33.5q-63 0 -100 26.5zM286 245.5q26 20.5 26 53.5q0 29 -21.5 46t-57.5 17
q-41 0 -67.5 -22t-26.5 -56q0 -27 22 -43t58 -16q41 0 67 20.5zM270.5 57.5q27.5 22.5 27.5 59.5q0 30 -22.5 48t-61.5 18q-45 0 -72 -22.5t-27 -59.5q0 -30 22.5 -48t61.5 -18q44 0 71.5 22.5z" />
    <glyph glyph-name="nine.dnom" horiz-adv-x="387" 
d="M359 216.5q-11 -28.5 -31 -49.5l-135 -167h-65l98 117q-6 -1 -20 -1q-62 0 -98 35.5t-36 91.5q0 43 21 79.5t58.5 58t84.5 21.5q61 0 97.5 -35.5t36.5 -89.5q0 -32 -11 -60.5zM149 186.5q22 -23.5 62 -23.5q46 0 75.5 31.5t29.5 77.5q0 36 -23 59.5t-62 23.5
q-46 0 -75 -31t-29 -77q0 -37 22 -60.5z" />
    <glyph glyph-name="zero.numr" horiz-adv-x="412" 
d="M130.5 320.5q-35.5 41.5 -35.5 120.5q0 28 2 43q10 100 56.5 152t124.5 52q70 0 106 -41t36 -121q0 -27 -2 -42q-10 -100 -57.5 -152.5t-125.5 -52.5q-69 0 -104.5 41.5zM361 484q2 14 2 40q0 116 -90 116q-52 0 -81.5 -38.5t-37.5 -117.5q-2 -15 -2 -42q0 -59 21.5 -87
t66.5 -28q105 0 121 157z" />
    <glyph glyph-name="one.numr" horiz-adv-x="267" 
d="M185 568h-90l4 43q56 0 77.5 15.5t25.5 53.5h49l-41 -394h-55z" />
    <glyph glyph-name="two.numr" horiz-adv-x="374" 
d="M104.5 395q27.5 40 88.5 67l70 32q67 30 67 89q0 27 -18.5 43t-50.5 16q-41 0 -67 -23.5t-30 -65.5h-57q7 61 50 98t109 37q57 0 90 -26.5t33 -70.5l-1 -13q-9 -80 -93 -117l-68 -32q-40 -18 -59 -39.5t-26 -55.5h220l-5 -48h-288q8 69 35.5 109z" />
    <glyph glyph-name="three.numr" horiz-adv-x="381" 
d="M119.5 308q-35.5 29 -35.5 80q0 10 1 16h57q-4 -37 18.5 -58.5t63.5 -21.5q43 0 69 22.5t26 57.5q0 30 -21 47t-60 17h-37l5 44h37q39 0 62 17.5t27 49.5q3 29 -17 47t-56 18q-38 0 -63 -19.5t-29 -51.5h-57q5 51 47 83t107 32q58 0 92.5 -25.5t34.5 -68.5
q0 -40 -24.5 -67t-69.5 -36q35 -4 57.5 -27.5t22.5 -57.5q0 -57 -44 -92t-115 -35q-63 0 -98.5 29z" />
    <glyph glyph-name="four.numr" horiz-adv-x="385" 
d="M393 413h-64l-13 -128h-56l13 128h-171l28 267h55l-22 -218h116l12 117h56l-12 -117h64z" />
    <glyph glyph-name="five.numr" horiz-adv-x="390" 
d="M129 308.5q-35 29.5 -32 80.5h55q-1 -29 21 -46t60 -17q46 0 75.5 29.5t29.5 79.5q0 35 -21 55t-58 20q-35 0 -57 -11.5t-36 -36.5h-52l22 218h257l-4 -44h-206l-14 -127q35 44 107 44q54 0 85.5 -30t31.5 -82q0 -73 -46 -117.5t-119 -44.5q-64 0 -99 29.5z" />
    <glyph glyph-name="six.numr" horiz-adv-x="387" 
d="M350 529q36 -35 36 -90q0 -44 -20.5 -81t-58 -58.5t-85.5 -21.5q-62 0 -98 36t-36 91q0 31 11 59t32 49l134 167h65l-98 -117q6 1 20 1q62 0 98 -35zM302.5 356.5q28.5 31.5 28.5 77.5q0 37 -22 60t-62 23q-46 0 -75.5 -31t-29.5 -76q0 -38 22.5 -61.5t62.5 -23.5
q47 0 75.5 31.5z" />
    <glyph glyph-name="seven.numr" horiz-adv-x="344" 
d="M315 632h-206l5 48h289l-255 -394h-64z" />
    <glyph glyph-name="eight.numr" horiz-adv-x="389" 
d="M124 305.5q-37 26.5 -37 73.5q0 42 25.5 72t70.5 38q-33 8 -51 30t-18 52q0 52 42.5 84.5t110.5 32.5q59 0 95 -26t36 -69q0 -38 -24 -66t-65 -38q36 -7 56 -30t20 -56q0 -57 -44.5 -90.5t-116.5 -33.5q-63 0 -100 26.5zM316 531.5q26 20.5 26 53.5q0 29 -21.5 46
t-57.5 17q-41 0 -67 -21.5t-26 -55.5q0 -27 21.5 -43.5t57.5 -16.5q41 0 67 20.5zM300.5 343.5q27.5 22.5 27.5 59.5q0 30 -22.5 48t-61.5 18q-45 0 -72 -22.5t-27 -59.5q0 -30 22.5 -48t61.5 -18q44 0 71.5 22.5z" />
    <glyph glyph-name="nine.numr" horiz-adv-x="387" 
d="M389 502.5q-11 -28.5 -31 -49.5l-135 -167h-65l98 117q-6 -1 -20 -1q-62 0 -98 35.5t-36 91.5q0 43 21 79.5t58.5 58t84.5 21.5q61 0 97.5 -35.5t36.5 -89.5q0 -32 -11 -60.5zM179 472.5q22 -23.5 62 -23.5q46 0 75.5 31.5t29.5 77.5q0 36 -23 59.5t-62 23.5
q-46 0 -75 -31t-29 -77q0 -37 22 -60.5z" />
    <glyph glyph-name="colon.case" horiz-adv-x="283" 
d="M139 367.5q-15 15.5 -15 39.5q0 28 20 48t47 20q25 0 40.5 -15.5t15.5 -39.5q0 -28 -20.5 -48t-48.5 -20q-24 0 -39 15.5zM101 9.5q-15 15.5 -15 39.5q0 28 20 48t47 20q25 0 40.5 -15.5t15.5 -39.5q0 -28 -20.5 -48t-48.5 -20q-24 0 -39 15.5z" />
    <glyph glyph-name="exclamdown.case" horiz-adv-x="254" 
d="M241 689.5q16 -16.5 16 -39.5q0 -27 -21 -47t-48 -20q-24 0 -39 15t-15 38q0 29 19.5 49.5t47.5 20.5q24 0 40 -16.5zM212 502l-53 -502h-64l53 502h64z" />
    <glyph glyph-name="questiondown.case" horiz-adv-x="475" 
d="M374.5 690q15.5 -16 15.5 -40q0 -28 -20 -47.5t-48 -19.5q-24 0 -39.5 15.5t-15.5 38.5q0 28 20.5 48.5t47.5 20.5q24 0 39.5 -16zM344 482q-5 -51 -23 -81.5t-59 -57.5l-58 -38q-88 -56 -88 -150q0 -50 34 -81t95 -31q71 0 117.5 43.5t54.5 119.5h67
q-11 -103 -77.5 -163t-170.5 -60q-92 0 -140.5 45t-48.5 118q0 70 32 116.5t85 82.5l53 35q32 21 45.5 42.5t17.5 60.5l2 19h64z" />
    <glyph glyph-name="quotedbl.case" horiz-adv-x="389" 
d="M243 644.5q-1 -4.5 -2 -11.5l-56 -178h-36l-20 178l-1 11q0 27 19 46.5t46 19.5q24 0 39 -16.5t13 -40.5q-1 -4 -2 -8.5zM396 644.5q-1 -4.5 -2 -11.5l-56 -178h-36l-20 178l-1 11q0 27 19 46.5t46 19.5q24 0 39 -16.5t13 -40.5q-1 -4 -2 -8.5z" />
    <glyph glyph-name="quotesingle.case" horiz-adv-x="236" 
d="M243 644.5q-1 -4.5 -2 -11.5l-56 -178h-36l-20 178l-1 11q0 27 19 46.5t46 19.5q24 0 39 -16.5t13 -40.5q-1 -4 -2 -8.5z" />
    <glyph glyph-name="semicolon.case" horiz-adv-x="292" 
d="M139 367.5q-15 15.5 -15 39.5q0 28 20 48t47 20q25 0 40.5 -15.5t15.5 -39.5q0 -28 -20.5 -48t-48.5 -20q-24 0 -39 15.5zM71 -116l3 35q20 -2 30 -2q22 0 38.5 12t23.5 32q11 22 9 49q-12 -15 -38 -15q-23 0 -37 14t-14 37q0 30 19 49.5t49 19.5t51.5 -24.5t21.5 -67.5
q0 -62 -35.5 -101.5t-91.5 -39.5q-20 0 -29 2z" />
    <glyph glyph-name="underscore.case" horiz-adv-x="510" 
d="M-2 -17h510l-5 -48h-510z" />
    <glyph glyph-name="colon.tf" horiz-adv-x="320" 
d="M155.5 358q-15.5 16 -15.5 40q0 27 20.5 47t47.5 20q24 0 39.5 -15.5t15.5 -38.5q0 -28 -20 -48.5t-48 -20.5q-24 0 -39.5 16zM119 9.5q-15 15.5 -15 39.5q0 28 20 48t47 20q25 0 40.5 -15.5t15.5 -39.5q0 -28 -20.5 -48t-48.5 -20q-24 0 -39 15.5z" />
    <glyph glyph-name="comma.tf" horiz-adv-x="320" 
d="M79 -116l3 35q20 -2 30 -2q22 0 38.5 12t23.5 32q9 20 9 49q-14 -15 -39 -15q-22 0 -36 14t-14 37q0 30 18.5 49.5t48.5 19.5q31 0 52 -24.5t21 -66.5q0 -11 -1 -17q-6 -57 -39.5 -91t-85.5 -34q-21 0 -29 2z" />
    <glyph glyph-name="period.tf" horiz-adv-x="320" 
d="M119 9.5q-15 15.5 -15 39.5q0 28 20 48t47 20q25 0 40.5 -15.5t15.5 -39.5q0 -28 -20.5 -48t-48.5 -20q-24 0 -39 15.5z" />
    <glyph glyph-name="semicolon.tf" horiz-adv-x="320" 
d="M144 342.5q-15 15.5 -15 39.5q0 28 20 48t47 20q25 0 40.5 -15.5t15.5 -39.5q0 -28 -20.5 -48t-48.5 -20q-24 0 -39 15.5zM79 -116l3 35q20 -2 30 -2q22 0 38.5 12t23.5 32q11 22 9 49q-12 -15 -38 -15q-23 0 -37 14t-14 37q0 30 19 49.5t49 19.5t51.5 -24.5t21.5 -67.5
q0 -62 -35.5 -101.5t-91.5 -39.5q-20 0 -29 2z" />
    <glyph glyph-name="slash.tf" 
d="M118 -38l427 796l50 -23l-426 -796z" />
    <glyph glyph-name="underscore.tf" 
d="M-18 -168h640l-5 -47h-640z" />
    <glyph glyph-name="braceleft.case" horiz-adv-x="310" 
d="M154 -82.5q-35 31.5 -35 89.5q0 12 1 19l21 203q3 31 -10 52t-33.5 31.5t-38.5 10.5l6 55q18 0 40.5 10t40.5 31t21 52l21 204q5 45 27.5 76t54.5 47t65 16h53l-6 -53h-45q-38 0 -61.5 -27t-28.5 -70l-21 -200q-5 -51 -35 -78t-66 -36q31 -8 54.5 -31.5t23.5 -66.5
q0 -10 -1 -15l-21 -200q-1 -6 -1 -17q0 -37 18.5 -59t52.5 -22h45l-6 -53h-53q-48 0 -83 31.5z" />
    <glyph glyph-name="braceright.case" horiz-adv-x="310" 
d="M-4 -114l6 53h45q38 0 61.5 27t28.5 70l21 201q5 51 35 77.5t66 35.5q-31 8 -54.5 31.5t-23.5 67.5q0 10 1 15l21 200q1 6 1 16q0 37 -18.5 59t-52.5 22h-45l6 53h53q48 0 83 -31.5t35 -88.5q0 -12 -1 -19l-21 -204q-3 -31 10 -52t33.5 -31t38.5 -10l-6 -55
q-18 0 -40.5 -10.5t-40.5 -31.5t-21 -52l-21 -204q-5 -45 -27.5 -76t-54.5 -47t-65 -16h-53z" />
    <glyph glyph-name="bracketleft.case" horiz-adv-x="285" 
d="M170 813h192l-5 -54h-132l-86 -819h132l-6 -53h-192z" />
    <glyph glyph-name="bracketright.case" horiz-adv-x="285" 
d="M-4 -113l6 53h132l86 819h-132l5 54h192l-97 -926h-192z" />
    <glyph glyph-name="parenleft.case" horiz-adv-x="311" 
d="M143.5 62q-45.5 96 -45.5 220q0 22 4 70q15 149 85 261.5t180 201.5l36 -38q-105 -90 -163.5 -192.5t-72.5 -232.5q-4 -46 -4 -67q0 -105 38 -192t112 -167l-44 -38q-80 78 -125.5 174z" />
    <glyph glyph-name="parenright.case" horiz-adv-x="311" 
d="M-19 -74q105 90 164 193t73 233q4 46 4 67q0 105 -38 192t-113 166l45 38q80 -78 125.5 -174t45.5 -220q0 -21 -4 -69q-15 -150 -85 -262.5t-180 -201.5z" />
    </font>
</defs>
</svg>
